<svg width="150" height="450" viewBox="0 0 150 450" fill="none" xmlns="http://www.w3.org/2000/svg">
<path fill-rule="evenodd" clip-rule="evenodd" d="M38.4277 406.9C38.4594 406.937 38.4313 407.025 38.3733 407.208L38.3721 407.211C38.3656 407.235 38.3589 407.257 38.3527 407.277C38.3394 407.321 38.3282 407.358 38.3245 407.395C38.2996 407.65 38.1994 407.776 37.9056 407.772C37.6108 407.769 37.3087 407.832 37.0366 407.969C36.7857 408.096 36.5551 408.262 36.5719 408.577C36.5891 408.898 36.8459 409.027 37.1138 409.108C37.2825 409.159 37.461 409.192 37.6369 409.202C37.8262 409.213 37.8921 409.281 37.8361 409.464C37.8117 409.544 37.7905 409.627 37.7822 409.71C37.7647 409.884 37.6837 409.961 37.4998 409.971C37.2476 409.985 37.0022 410.052 36.7664 410.148C36.5429 410.239 36.3737 410.372 36.3819 410.64C36.3897 410.898 36.5743 411.002 36.7785 411.096C36.8744 411.139 36.9911 411.149 37.1043 411.159C37.2772 411.174 37.442 411.188 37.5119 411.321C37.5839 411.458 37.564 411.641 37.5438 411.827C37.5331 411.926 37.5222 412.026 37.5252 412.12C37.538 412.523 37.7262 412.785 38.0228 412.846C38.2946 412.901 38.5731 412.731 38.7577 412.393C38.9059 412.121 39.0128 411.831 39.0885 411.532C39.1331 411.356 39.2232 411.298 39.4043 411.305C39.6651 411.316 39.9293 411.311 40.1837 411.235C40.386 411.174 40.5281 411.052 40.5675 410.833C40.605 410.625 40.508 410.472 40.3614 410.343C40.2322 410.228 40.0744 410.147 39.9107 410.126C39.5771 410.084 39.5815 409.932 39.6706 409.659C39.7407 409.445 39.8196 409.364 40.0501 409.367C40.4232 409.371 40.7991 409.353 41.1659 409.267C41.4353 409.203 41.6827 409.088 41.7048 408.777C41.7264 408.472 41.5096 408.31 41.2561 408.199C40.9722 408.074 40.6755 407.981 40.3698 407.941C40.1546 407.912 40.1419 407.827 40.202 407.649C40.2705 407.446 40.3216 407.235 40.3576 407.024C40.382 406.881 40.4391 406.841 40.5802 406.857C40.9425 406.901 41.3061 406.934 41.6697 406.966C42.0355 406.999 42.3916 407.063 42.7233 407.232L42.7375 407.239C42.7885 407.265 42.8292 407.285 42.864 407.346C43.0818 407.724 43.3605 407.742 43.621 407.391C44.2896 406.493 45.1497 405.838 46.1594 405.366C46.4531 405.228 46.6737 405.162 46.9883 405.425C47.5271 405.875 48.1036 406.28 48.6796 406.685C48.8463 406.802 49.0131 406.92 49.1787 407.038C49.3352 407.149 49.3479 407.212 49.1952 407.341C49.0043 407.503 48.8252 407.678 48.6461 407.853C48.5911 407.907 48.536 407.961 48.4807 408.015C48.2533 408.234 48.2207 408.444 48.3805 408.626C48.5481 408.817 48.7787 408.81 49.0188 408.591C49.3089 408.326 49.5928 408.055 49.8746 407.781C49.9729 407.686 50.0471 407.65 50.1799 407.747C50.9235 408.29 51.6721 408.828 52.4206 409.365L52.8419 409.667C52.9634 409.754 53.0446 409.856 53.0269 410.017C52.9689 410.547 52.8569 411.05 52.3968 411.397C52.2574 411.503 52.2014 411.652 52.2562 411.821C52.314 411.999 52.4491 412.098 52.6365 412.098C52.8044 412.098 52.9773 412.098 53.1393 412.061C53.845 411.897 54.4444 412.609 54.4393 413.2C54.4349 413.704 54.292 414.155 54.0438 414.584C53.7725 415.052 53.4258 415.463 53.0784 415.875L53.0526 415.905C52.8238 416.176 52.8433 416.488 53.1333 416.609C53.3998 416.72 53.3652 416.854 53.2868 417.057C53.1186 417.493 53.2182 417.685 53.6676 417.791C54.0456 417.881 54.2315 418.133 54.3014 418.492C54.3394 418.687 54.3278 418.886 54.2848 419.078C54.2135 419.396 54.1372 419.712 54.061 420.029C54.0192 420.202 53.9774 420.376 53.9364 420.549C53.8237 421.027 53.5706 421.399 53.1404 421.651C52.9414 421.768 52.8912 421.963 52.9911 422.161C53.0887 422.355 53.261 422.446 53.4842 422.353C53.5695 422.318 53.6568 422.279 53.7298 422.224C54.1506 421.906 54.469 421.51 54.6308 421.003C54.8325 420.37 54.9951 419.723 55.0819 419.067C55.1867 418.274 54.9991 417.574 54.2308 417.155C54.1215 417.095 54.134 417.02 54.1482 416.934L54.1506 416.92C54.1862 416.7 54.1736 416.479 54.0317 416.304C53.9077 416.151 53.9545 416.059 54.0628 415.928C54.5228 415.369 54.9181 414.773 55.1228 414.065C55.5518 412.583 54.698 411.446 53.6587 411.279C53.527 411.258 53.5401 411.194 53.5799 411.106C53.6842 410.874 53.7492 410.63 53.7868 410.38C54.1591 407.909 53.0341 405.675 50.8286 404.495C49.7455 403.915 48.5999 403.914 47.4381 404.14C45.8147 404.457 44.4532 405.247 43.3404 406.468C43.3279 406.482 43.3169 406.499 43.3059 406.516C43.266 406.579 43.2249 406.642 43.1069 406.558C42.8272 406.357 42.4939 406.281 42.159 406.236C41.806 406.189 41.4514 406.152 41.0969 406.116L40.8483 406.09C39.3908 405.938 37.9512 405.995 36.5476 406.463C35.7463 406.73 34.9921 407.102 34.2513 407.502C34.0277 407.623 33.9604 407.845 34.0661 408.046C34.1736 408.252 34.3785 408.31 34.6192 408.2C34.6791 408.172 34.737 408.141 34.7949 408.109C34.8272 408.091 34.8596 408.073 34.8923 408.056C35.925 407.52 36.9804 407.048 38.1508 406.897L38.1578 406.896C38.3162 406.876 38.398 406.866 38.4277 406.9ZM25.5604 437.296C24.5479 437.358 23.8574 436.894 23.5508 435.925C23.6206 435.908 23.6315 435.942 23.6422 435.978C23.6468 435.993 23.6514 436.008 23.6609 436.02C23.6951 436.06 23.726 436.106 23.7569 436.153C23.8742 436.328 23.9915 436.504 24.2856 436.358C24.3321 436.334 24.3466 436.366 24.3618 436.399C24.3665 436.409 24.3713 436.419 24.377 436.428C24.7 436.922 25.1575 437.07 25.703 436.851C26.0059 436.73 26.241 436.538 26.2747 436.188C26.3085 435.839 26.1557 435.575 25.8643 435.385C25.8505 435.376 25.8355 435.368 25.8204 435.361C25.7789 435.34 25.7368 435.319 25.7204 435.268C25.9777 435.075 26.0366 434.885 25.9035 434.681C25.7782 434.488 25.4859 434.4 25.3132 434.503C25.1155 434.621 25.125 434.761 25.3677 435.183C25.3099 435.189 25.2518 435.189 25.1936 435.188C25.0826 435.188 24.9714 435.187 24.8623 435.233L24.8483 435.234C24.8551 435.231 24.8623 435.229 24.8698 435.227C24.8651 435.213 24.8599 435.201 24.8551 435.19C24.8451 435.166 24.8376 435.148 24.843 435.136C24.963 434.871 24.7983 434.731 24.6018 434.63C24.3773 434.514 24.2575 434.688 24.1584 434.845C23.9914 435.11 24.1203 435.354 24.4418 435.401C24.4549 435.403 24.4686 435.403 24.4823 435.404C24.5179 435.404 24.5537 435.404 24.5799 435.435C24.5733 435.448 24.5669 435.461 24.5606 435.474C24.4819 435.599 24.4207 435.711 24.3581 435.825C23.9544 435.415 23.8654 435.421 23.5561 435.865C23.5554 435.866 23.5537 435.867 23.5513 435.867C23.5486 435.867 23.5451 435.868 23.5415 435.869C23.5388 435.86 23.5358 435.85 23.5332 435.837C23.4321 434.897 24.0974 434.31 24.8759 434.228C25.0232 434.212 25.1692 434.169 25.3113 434.124C25.7189 433.996 25.8394 433.836 25.8362 433.408C25.8353 433.296 25.8315 433.183 25.8276 433.07C25.8187 432.809 25.8097 432.548 25.8382 432.288C25.9164 431.571 26.0736 430.886 26.6378 430.371C26.7103 430.305 26.7729 430.208 26.744 430.123C26.709 430.02 26.6933 429.914 26.6776 429.807C26.6493 429.615 26.6209 429.422 26.4788 429.244C25.9681 428.604 25.8184 427.894 26.272 427.14C26.3937 426.938 26.3853 426.729 26.2596 426.53L26.2465 426.509C26.1761 426.397 26.1048 426.284 26.0177 426.186C25.5467 425.656 25.698 425.076 25.8721 424.493C25.8954 424.415 25.9547 424.368 26.0148 424.32L26.0332 424.305C26.4309 423.983 26.4191 423.69 25.9985 423.385C25.5892 423.088 25.1907 422.777 24.8258 422.428C24.236 421.864 23.7463 421.235 23.6247 420.392C23.5506 419.879 23.694 419.412 23.9333 418.967C24.1091 418.64 24.3865 418.469 24.7508 418.391C24.984 418.34 25.0976 418.098 25.0105 417.881C24.6711 417.035 25.2102 416.341 26.035 416.446C26.0436 416.447 26.0524 416.447 26.0611 416.446L26.0631 416.446C26.5 416.416 26.6944 416.138 26.5621 415.718C26.4416 415.336 26.4394 414.953 26.6243 414.6C26.8327 414.202 26.7318 413.903 26.4447 413.593C25.9125 413.019 25.4834 412.383 25.2982 411.601C25.2223 411.28 25.3016 411.046 25.5089 410.813C26.1609 410.079 26.9184 409.465 27.6763 408.85C27.7899 408.758 27.9036 408.666 28.017 408.573C28.1311 408.48 28.1831 408.512 28.2525 408.62C28.3938 408.84 28.5393 409.059 28.6982 409.267C28.8447 409.458 29.067 409.489 29.2425 409.352C29.4205 409.213 29.4668 409.035 29.3509 408.832C29.3126 408.765 29.2683 408.702 29.224 408.638C29.2093 408.617 29.1947 408.596 29.1802 408.575C28.9812 408.284 28.8826 408.14 28.9062 408.021C28.9293 407.905 29.068 407.811 29.3417 407.627L29.3858 407.598C29.7729 407.337 30.1907 407.135 30.6083 406.933C30.9648 406.761 31.3212 406.589 31.6582 406.381C31.7681 406.312 31.8584 406.364 31.9456 406.415C32.408 406.682 32.8577 406.961 33.1421 407.442C33.2459 407.617 33.4237 407.689 33.6282 407.594C33.8387 407.497 33.903 407.321 33.8501 407.106C33.809 406.939 33.7004 406.805 33.5849 406.682C33.0906 406.156 32.5188 405.746 31.8277 405.515C30.8262 405.181 29.8178 405.279 28.8043 405.453C25.9532 405.943 24.069 408.93 24.4853 411.537C24.6388 412.498 25.1184 413.284 25.742 413.999C25.8638 414.139 25.9177 414.254 25.8355 414.441C25.6946 414.763 25.6517 415.11 25.7046 415.458C25.73 415.625 25.664 415.655 25.5241 415.688C24.5322 415.924 24.0712 416.549 24.1243 417.579C24.1297 417.683 24.1204 417.751 24.0169 417.806C23.3998 418.134 23.1037 418.702 22.9292 419.338C22.5815 420.605 23.0593 421.645 23.8717 422.58C24.2473 423.013 24.6832 423.381 25.1392 423.725C25.2577 423.815 25.2892 423.869 25.2203 424.034C24.8401 424.946 24.6966 425.855 25.4108 426.692C25.5059 426.804 25.4921 426.893 25.4394 427.017C25.2269 427.518 25.1265 428.036 25.2741 428.575C25.3911 429.003 25.5772 429.399 25.8525 429.749C25.9239 429.84 25.9623 429.899 25.8725 430.008C25.2058 430.818 25.0321 431.781 25.0281 432.793L25.0281 432.798C25.0258 433.388 25.0258 433.388 24.4411 433.504C23.6809 433.654 22.9492 434.352 22.8011 435.067C22.5369 436.342 23.0903 437.418 24.3135 437.88C25.5196 438.337 26.6839 438.074 27.8109 437.552C27.8399 437.539 27.8671 437.52 27.8944 437.502C27.96 437.457 28.0255 437.413 28.1148 437.44C28.4804 437.55 28.8551 437.618 29.2298 437.686C29.5818 437.749 29.9339 437.813 30.2785 437.912C31.1867 438.173 32.0969 438.43 33.0544 438.432C33.0989 438.432 33.151 438.442 33.1867 438.466C33.8167 438.89 34.5285 438.868 35.2312 438.847C35.2833 438.845 35.3354 438.844 35.3874 438.842C35.8804 438.829 36.3518 438.699 36.5572 438.099C36.6929 438.446 36.9327 438.562 37.2234 438.617C37.3287 438.638 37.4317 438.669 37.5348 438.701C37.6016 438.722 37.6685 438.743 37.736 438.76C38.2909 438.904 38.8505 439.009 39.4286 438.951C40.2371 438.869 40.6468 438.368 40.5673 437.56L40.5665 437.553C40.5476 437.361 40.5289 437.171 40.6 436.98C40.7792 436.497 40.8945 435.995 40.9988 435.492C41.0246 435.368 41.0428 435.241 41.0609 435.114C41.0905 434.907 41.1201 434.7 41.1832 434.503L41.1883 434.487C41.3283 434.051 41.3389 434.018 40.9853 433.761C41.1653 433.594 41.2623 433.399 41.1037 433.174C40.9419 432.944 40.7198 432.97 40.5047 433.088C40.364 433.165 40.2376 433.148 40.105 433.084C40.0582 433.062 40.0118 433.039 39.9654 433.015C39.8615 432.963 39.7576 432.91 39.649 432.871C39.3998 432.78 39.1303 432.866 39.063 433.102C38.8734 433.766 38.3306 433.95 37.7646 434.052C36.9668 434.197 36.2073 433.974 35.4676 433.687C35.3566 433.644 35.2956 433.564 35.2421 433.455C35.0751 433.118 34.8062 433.074 34.516 433.322C34.4592 433.371 34.4027 433.42 34.3525 433.476C34.1822 433.663 33.9715 433.716 33.7403 433.634C33.5049 433.551 33.3172 433.421 33.2782 433.133C33.2305 432.782 33.0283 432.665 32.6762 432.746C32.3556 432.819 32.0377 432.867 31.7067 432.78C30.364 432.426 29.5621 431.172 29.7952 429.802C29.9159 429.092 30.2778 428.624 31.0045 428.473C31.2309 428.426 31.345 428.272 31.3197 428.047C31.2945 427.821 31.1463 427.697 30.9193 427.694C30.8091 427.692 30.6917 427.708 30.589 427.747C29.8994 428.005 29.3789 428.437 29.1388 429.161C28.5781 430.854 29.3398 432.605 30.9652 433.353C31.0162 433.376 31.0722 433.395 31.1284 433.414C31.3373 433.483 31.5494 433.554 31.5233 433.876C31.522 433.893 31.5399 433.911 31.5565 433.928C31.5615 433.934 31.5665 433.939 31.5707 433.944C31.7237 434.121 31.8147 434.331 31.906 434.542C31.9188 434.571 31.9315 434.601 31.9444 434.63C32.167 435.135 32.352 435.655 32.537 436.174C32.6526 436.499 32.7683 436.824 32.8931 437.145C32.9946 437.406 32.8141 437.638 32.5332 437.61L32.4901 437.605C32.3833 437.595 32.276 437.584 32.172 437.561C30.8976 437.268 29.6232 436.974 28.3505 436.674C28.0937 436.614 27.838 436.591 27.6183 436.743C26.9953 437.173 26.2833 437.252 25.5604 437.296ZM46.6496 436.331C46.4601 436.286 46.2758 436.221 46.2473 435.986C46.2261 435.811 46.2879 435.662 46.4838 435.584C46.5043 435.584 46.5205 435.584 46.5361 435.584C46.555 435.578 46.5778 435.576 46.6049 435.579C46.6038 435.582 46.6027 435.585 46.6015 435.588C46.9568 435.695 47.0114 435.825 46.8586 436.142C46.8531 436.153 46.8425 436.162 46.8318 436.171C46.8091 436.191 46.7862 436.21 46.8114 436.251C46.844 436.305 46.8817 436.292 46.9199 436.278C46.9321 436.274 46.9443 436.27 46.9565 436.267L47.0032 436.259C47.0704 436.246 47.1378 436.234 47.2056 436.228C47.254 436.223 47.3029 436.224 47.3648 436.225H47.3659L47.4175 436.226L47.4445 436.226L47.4714 436.226C47.2896 436.012 47.1757 435.81 47.4602 435.641C47.7049 435.496 47.9832 435.541 48.1164 435.737C48.2655 435.956 48.1918 436.16 47.867 436.393C48.1284 436.552 48.2746 436.792 48.3543 437.074C48.4264 437.328 48.3587 437.55 48.1256 437.678C47.62 437.955 47.0895 437.99 46.5625 437.745C46.2811 437.615 46.1229 437.376 46.1085 437.02C45.8672 437.154 45.6599 437.079 45.4682 436.924C45.3661 437.325 45.4667 437.605 45.8022 437.819C46.4838 438.255 47.2319 438.281 47.9958 438.134C49.1883 437.905 50.2667 437.389 51.2918 436.761C53.6408 435.321 54.7628 433.191 54.9158 430.466C55.0077 428.828 54.445 427.386 53.8172 425.944C53.6231 425.499 53.4095 425.062 53.1959 424.625C53.1347 424.5 53.0735 424.374 53.0128 424.249C52.9438 424.106 52.8533 423.976 52.7491 423.854C52.5828 423.658 52.5963 423.43 52.7659 423.279C52.9389 423.125 53.1985 423.141 53.364 423.339C53.6534 423.687 53.8402 424.096 54.0265 424.505L54.027 424.506C54.1586 424.794 54.291 425.082 54.4254 425.374L54.6051 425.765C54.7094 425.712 54.7337 425.626 54.7567 425.545C54.7602 425.533 54.7636 425.521 54.7673 425.509C55.0369 424.637 55.1779 423.745 55.199 422.834L55.2014 422.723C55.21 422.321 55.2186 421.92 55.3108 421.524C55.6672 419.993 57.066 419.313 58.4972 419.979C59.7267 420.552 60.3892 421.834 60.2438 423.268C60.1466 424.226 59.7713 425.083 59.3949 425.943C59.345 426.057 59.295 426.171 59.2457 426.285C58.526 427.954 57.4543 429.386 56.2552 430.733C56.2125 430.781 56.1727 430.832 56.1329 430.883C56.0191 431.03 55.9045 431.178 55.7169 431.252C55.6477 431.28 55.6496 431.345 55.6515 431.408C55.6523 431.433 55.653 431.458 55.6493 431.48C55.2914 433.616 54.3627 435.462 52.6449 436.796C51.1955 437.922 49.5607 438.747 47.6937 438.967C46.7317 439.081 45.8265 438.914 45.0708 438.247C44.9989 438.184 44.9273 438.168 44.8404 438.185C44.8092 438.191 44.7772 438.195 44.7451 438.2C44.6737 438.209 44.6021 438.219 44.5402 438.249C43.6479 438.675 42.7124 438.663 41.7634 438.538C41.6815 438.527 41.5988 438.523 41.516 438.519C41.4491 438.516 41.3821 438.513 41.3156 438.506C41.0785 438.481 40.9241 438.318 40.9407 438.101C40.9584 437.871 41.096 437.731 41.3212 437.73C41.6386 437.729 41.9598 437.738 42.2729 437.785C42.951 437.888 43.5831 437.764 44.2226 437.534C44.5441 437.418 44.6732 437.308 44.6419 436.951C44.6054 436.533 44.7796 436.145 45 435.79C45.2726 435.351 45.6184 434.969 45.9739 434.598C46.0371 434.531 46.1175 434.476 46.1999 434.435C46.4245 434.324 46.6591 434.386 46.7595 434.585C46.8691 434.802 46.7965 434.97 46.6126 435.123C46.2074 435.459 45.8815 435.866 45.615 436.319C45.6037 436.338 45.5998 436.362 45.595 436.391L45.5908 436.416C45.5891 436.425 45.5873 436.434 45.585 436.444C45.8492 436.397 46.0683 436.437 46.1851 436.719C46.213 436.691 46.2397 436.663 46.2662 436.634C46.364 436.53 46.4596 436.428 46.6047 436.371C46.6251 436.362 46.6315 436.354 46.6428 436.339L46.6496 436.331ZM47.3566 415.388C46.7652 415.433 46.5835 415.727 46.8205 416.288C47.1737 416.717 47.5735 417.057 48.1045 417.18C49.2778 417.452 50.4118 417.333 51.4676 416.735C51.9663 416.453 52.2743 416.007 52.3174 415.423C52.3593 414.855 52.1653 414.37 51.6982 414.026C51.244 413.692 50.7603 413.721 50.2659 413.952C49.8991 414.123 49.5989 414.37 49.3799 414.705C49.1239 415.097 48.7545 415.268 48.308 415.341C48.1164 415.373 47.925 415.374 47.7339 415.376C47.608 415.377 47.4822 415.378 47.3566 415.388ZM30.7315 416.466C29.7993 416.852 28.9034 416.76 28.024 416.365C27.7487 416.242 27.5174 416.05 27.3304 415.81C27.0177 415.409 26.9944 415.055 27.2546 414.68C27.5312 414.282 28.0242 414.108 28.4612 414.25C28.7956 414.358 29.0394 414.583 29.253 414.849C29.2647 414.863 29.2759 414.878 29.285 414.895C29.5717 415.403 30.0014 415.565 30.5612 415.431C30.6774 415.404 30.803 415.394 30.9221 415.404C31.1124 415.419 31.2601 415.513 31.3203 415.705C31.376 415.883 31.3223 416.036 31.1922 416.164C31.0642 416.291 30.9121 416.381 30.7315 416.466ZM46.8861 418.89C47.065 419.178 47.2953 419.421 47.5462 419.673C47.83 419.93 48.1326 420.119 48.5043 420.126C49.0394 420.138 49.5675 420.074 50.0633 419.855C50.5211 419.652 50.7374 419.264 50.6344 418.855C50.5191 418.397 50.2017 418.191 49.6534 418.237C49.5873 418.242 49.5214 418.248 49.4555 418.255C49.1784 418.281 48.902 418.307 48.6215 418.28C48.4143 418.26 48.2067 418.245 47.999 418.23L47.998 418.229C47.7686 418.213 47.539 418.196 47.3102 418.172C47.0988 418.151 46.9449 418.214 46.8385 418.394C46.7345 418.57 46.7849 418.727 46.8861 418.89ZM29.3315 418.424C28.9368 418.887 28.4959 419.247 27.9354 419.457C27.2078 419.73 26.4347 419.308 26.213 418.797C25.8871 418.046 26.2536 417.74 26.9015 417.716C27.5454 417.692 28.1642 417.634 28.7614 417.387C28.9719 417.3 29.1887 417.299 29.366 417.464C29.5498 417.634 29.567 417.853 29.5044 418.085C29.4723 418.203 29.4233 418.313 29.3315 418.424ZM35.9123 417.97C35.8734 418.135 35.9794 418.228 36.1417 418.298C36.1648 418.397 36.181 418.495 36.1971 418.593C36.2322 418.807 36.2664 419.014 36.3706 419.205C36.5306 419.498 36.8417 419.538 37.0237 419.267L37.077 419.188C37.2883 418.875 37.5009 418.56 37.635 418.202C37.7026 418.022 37.775 417.945 37.977 418.088C38.5419 418.487 39.1563 418.43 39.7728 418.224C39.9321 418.17 39.9854 418.04 39.929 417.885C39.8777 417.745 39.7644 417.688 39.6143 417.726C39.5825 417.734 39.5512 417.744 39.5199 417.754C39.48 417.767 39.4402 417.78 39.3995 417.789C39.0701 417.858 38.7409 417.912 38.4079 417.724C38.4349 417.7 38.4609 417.679 38.4859 417.658C38.5378 417.615 38.5854 417.575 38.6298 417.532C38.8083 417.359 38.9088 417.158 38.8375 416.903C38.7623 416.635 38.5567 416.517 38.3043 416.47C38.1288 416.437 37.9506 416.445 37.778 416.504C37.4165 416.628 37.2621 416.94 37.3839 417.304C37.4845 417.605 37.4431 417.671 37.1231 417.742C36.9194 417.788 36.7157 417.775 36.5121 417.762C36.4272 417.756 36.342 417.751 36.2571 417.75C36.0904 417.747 35.9527 417.798 35.9123 417.97ZM45.9142 419.83C46.1589 419.726 46.3642 419.75 46.57 419.887C46.7471 420.004 46.9461 420.075 47.1452 420.146C47.2363 420.179 47.3274 420.211 47.4164 420.248C47.8738 420.438 48.0761 420.695 48.0268 421.012C47.9775 421.33 47.5855 421.608 47.1491 421.619C46.7159 421.631 46.3828 421.418 46.0992 421.114C45.9261 420.929 45.7939 420.714 45.6877 420.485C45.5453 420.177 45.5939 420.027 45.9142 419.83ZM28.9243 421.097C29.5557 421.078 29.9633 420.684 30.3691 420.244C30.3867 420.221 30.4056 420.2 30.4237 420.18C30.4643 420.134 30.5005 420.093 30.5078 420.048C30.5161 419.997 30.5287 419.945 30.5413 419.893C30.5897 419.692 30.639 419.488 30.4514 419.315C30.2648 419.143 30.0325 419.172 29.8574 419.314C29.5592 419.558 29.2135 419.692 28.8661 419.826C28.7887 419.856 28.7112 419.886 28.6342 419.917C28.2458 420.074 28.1221 420.428 28.3136 420.786C28.4441 421.029 28.661 421.104 28.9243 421.097ZM33.8151 414.835C34.1683 414.52 34.4724 414.507 34.6686 414.783C34.8902 415.095 34.8147 415.478 34.4916 415.681C34.2613 415.825 34.0049 415.801 33.8246 415.618C33.6255 415.416 33.6179 415.161 33.8151 414.835ZM42.3292 415.61C42.5796 415.783 42.8196 415.742 43.0563 415.532C43.2377 415.317 43.2734 415.089 43.1423 414.871C43.0281 414.68 42.8383 414.567 42.6022 414.591C42.3601 414.615 42.2199 414.778 42.148 414.991C42.0669 415.232 42.1058 415.457 42.3292 415.61ZM36.9101 418.467C36.8918 418.487 36.8792 418.51 36.8671 418.532C36.8421 418.576 36.8191 418.617 36.7526 418.632C36.7124 418.531 36.6919 418.423 36.7419 418.327C36.7723 418.269 36.8672 418.285 36.9232 418.309C36.9823 418.336 36.9604 418.374 36.9343 418.42C36.9258 418.435 36.9169 418.45 36.9101 418.467ZM55.5454 428.409C55.4572 428.11 55.3742 427.833 55.2765 427.507C55.3434 427.526 55.4075 427.544 55.4696 427.562L55.4707 427.562C55.6041 427.601 55.7285 427.637 55.8534 427.671C56.1381 427.749 56.4239 427.788 56.7026 427.652C57.1427 427.438 57.2178 426.953 56.8677 426.612C56.7024 426.451 56.494 426.37 56.2855 426.289L56.2578 426.278C56.2105 426.26 56.1624 426.243 56.1144 426.226C56.0123 426.19 55.9103 426.154 55.8161 426.104C55.5928 425.984 55.4898 425.841 55.5799 425.54C55.8348 424.689 55.984 423.814 55.9895 422.92C55.9899 422.859 55.9898 422.798 55.9897 422.734L55.9896 422.639C57.6651 423.318 58.1923 423.298 59.4233 422.518C59.4921 422.821 59.4574 423.119 59.4227 423.417L59.4168 423.467C59.4103 423.524 59.3954 423.57 59.3362 423.602C58.658 423.972 57.9467 424.154 57.1649 424.056C56.6005 423.984 56.2426 424.405 56.3526 424.97C56.4225 425.329 56.6359 425.597 56.9195 425.81C57.2655 426.071 57.6423 426.277 58.0674 426.376C58.257 426.42 58.2766 426.489 58.1902 426.658C57.8537 427.317 57.4612 427.94 57.0371 428.545C56.9503 428.669 56.8641 428.701 56.7111 428.671C56.6844 428.666 56.6577 428.66 56.6309 428.655C56.302 428.588 55.9637 428.519 55.6496 428.828C55.6115 428.675 55.581 428.553 55.5454 428.409ZM36.0261 434.681C35.9404 434.667 35.8532 434.652 35.7724 434.631L35.7383 434.621C35.4153 434.526 35.1109 434.436 34.8548 434.239C34.7913 434.19 34.7514 434.201 34.683 434.234C33.8424 434.635 33.169 434.467 32.6294 433.716C32.5486 433.603 32.4815 433.564 32.356 433.641C32.3832 433.697 32.4107 433.752 32.4383 433.808C32.4977 433.928 32.5569 434.047 32.6111 434.169C32.8609 434.73 33.0683 435.307 33.2757 435.885C33.4281 436.309 33.5805 436.733 33.7497 437.151C33.813 437.307 33.8188 437.48 33.7226 437.61C33.576 437.807 33.6924 437.87 33.8456 437.923C34.2324 438.059 34.6368 438.062 35.0381 438.064L35.1219 438.065C35.7625 438.07 35.8459 437.974 35.828 437.342C35.8122 436.786 35.9522 436.666 36.4777 436.768C36.4777 436.65 36.4773 436.532 36.4768 436.413C36.4757 436.132 36.4745 435.849 36.4798 435.566C36.4813 435.483 36.4969 435.391 36.5123 435.299C36.5421 435.123 36.5712 434.95 36.497 434.856C36.4102 434.745 36.222 434.714 36.0261 434.681ZM39.58 433.883C39.3132 434.279 38.9173 434.503 38.4679 434.687C38.149 434.815 37.8352 434.857 37.5174 434.882C37.5044 434.883 37.4911 434.883 37.4778 434.883C37.4137 434.883 37.3516 434.883 37.343 434.998C37.3365 435.084 37.3246 435.17 37.3128 435.255C37.2928 435.399 37.2728 435.543 37.2784 435.69C37.2995 436.25 37.3157 436.81 37.3231 437.37L37.3234 437.392C37.3289 437.815 37.3289 437.817 37.7511 437.938C38.2824 438.091 38.8161 438.231 39.3772 438.16C39.7145 438.118 39.7954 438.021 39.7801 437.683C39.7772 437.618 39.7712 437.553 39.7651 437.488C39.7467 437.29 39.7282 437.092 39.7979 436.904C40.0256 436.29 40.1511 435.653 40.2771 435.013C40.3482 434.652 40.4195 434.29 40.5093 433.932C40.268 433.963 40.0309 433.919 39.8087 433.814C39.7 433.763 39.6436 433.788 39.58 433.883ZM55.7211 430.109C55.9254 430.009 55.9661 429.889 55.7997 429.714C55.7738 429.69 55.7609 429.679 55.7461 429.673C55.7398 429.67 55.7222 429.676 55.7222 429.679C55.7211 429.806 55.7211 429.934 55.7211 430.069V430.109Z" fill="#7E7EFF"/>
<path d="M58.5816 426.9C58.5683 426.74 58.5616 426.58 58.5616 426.42C58.5616 426.26 58.5616 426.1 58.5616 425.94V419.58C58.5616 419.367 58.5616 419.153 58.5616 418.94C58.5616 418.727 58.5483 418.507 58.5216 418.28C58.5083 418.213 58.4883 418.12 58.4616 418C58.4483 417.88 58.4083 417.807 58.3416 417.78C58.275 417.74 58.195 417.727 58.1016 417.74C58.0216 417.74 57.9416 417.733 57.8616 417.72C57.7683 417.707 57.675 417.707 57.5816 417.72C57.5016 417.733 57.415 417.733 57.3216 417.72H56.3816C56.155 417.733 55.9283 417.733 55.7016 417.72C55.475 417.707 55.2483 417.707 55.0216 417.72C54.915 417.733 54.815 417.74 54.7216 417.74C54.6416 417.727 54.5483 417.72 54.4416 417.72C54.295 417.72 54.1416 417.713 53.9816 417.7C53.8216 417.687 53.675 417.633 53.5416 417.54C53.355 417.407 53.2283 417.24 53.1616 417.04C53.095 416.84 53.0616 416.633 53.0616 416.42C53.0483 416.167 53.1016 415.913 53.2216 415.66C53.2883 415.5 53.375 415.387 53.4816 415.32C53.5483 415.253 53.6416 415.2 53.7616 415.16C53.895 415.107 54.0083 415.067 54.1016 415.04C54.3816 414.973 54.675 414.94 54.9816 414.94C55.2883 414.927 55.5883 414.92 55.8816 414.92H59.3616C59.535 414.947 59.715 414.973 59.9016 415C60.1016 415.013 60.2816 415.053 60.4416 415.12C60.5483 415.16 60.6483 415.213 60.7416 415.28C60.8483 415.347 60.935 415.427 61.0016 415.52C61.1216 415.707 61.1883 415.893 61.2016 416.08C61.2283 416.267 61.255 416.473 61.2816 416.7C61.3083 417.073 61.3216 417.447 61.3216 417.82C61.3216 418.18 61.3216 418.547 61.3216 418.92V425.48C61.3216 425.493 61.3216 425.6 61.3216 425.8C61.335 425.987 61.3416 426.213 61.3416 426.48C61.3416 426.733 61.3416 427.007 61.3416 427.3C61.3416 427.58 61.335 427.827 61.3216 428.04C61.3083 428.173 61.2883 428.313 61.2616 428.46C61.235 428.607 61.1883 428.747 61.1216 428.88C61.0683 429.013 60.9883 429.133 60.8816 429.24C60.775 429.347 60.635 429.433 60.4616 429.5C60.235 429.593 60.0083 429.64 59.7816 429.64C59.6083 429.64 59.435 429.6 59.2616 429.52C59.0883 429.453 58.9683 429.347 58.9016 429.2C58.6883 428.773 58.5816 428.3 58.5816 427.78V426.9ZM67.0416 420.42C67.2283 420.433 67.4216 420.447 67.6216 420.46C67.8216 420.46 68.015 420.467 68.2016 420.48C68.2683 420.48 68.3416 420.487 68.4216 420.5C68.5016 420.513 68.5816 420.527 68.6616 420.54C68.9283 420.593 69.1416 420.707 69.3016 420.88C69.475 421.04 69.5616 421.26 69.5616 421.54C69.5616 421.727 69.5416 421.94 69.5016 422.18C69.475 422.42 69.375 422.607 69.2016 422.74C69.1216 422.807 69.0416 422.86 68.9616 422.9C68.8816 422.94 68.7883 422.973 68.6816 423C68.4683 423.027 68.2083 423.033 67.9016 423.02C67.595 423.007 67.335 423.007 67.1216 423.02C67.0683 423.02 67.0416 423.053 67.0416 423.12C67.0416 423.28 67.0416 423.473 67.0416 423.7C67.0416 423.913 67.0416 424.14 67.0416 424.38C67.0416 424.607 67.0416 424.833 67.0416 425.06C67.0416 425.273 67.0416 425.467 67.0416 425.64C67.0683 426.333 67.0683 427.013 67.0416 427.68V427.96C67.0416 428.133 67.035 428.32 67.0216 428.52C67.0216 428.733 67.0083 428.94 66.9816 429.14C66.955 429.34 66.9083 429.527 66.8416 429.7C66.775 429.887 66.6816 430.04 66.5616 430.16C66.4016 430.347 66.1883 430.44 65.9216 430.44C65.9216 430.44 65.9083 430.433 65.8816 430.42C65.5616 430.407 65.3016 430.313 65.1016 430.14C64.915 429.967 64.7683 429.753 64.6616 429.5C64.5683 429.247 64.5083 428.98 64.4816 428.7C64.455 428.433 64.4416 428.193 64.4416 427.98V416.1C64.4416 416.087 64.4416 416.027 64.4416 415.92C64.4416 415.8 64.455 415.667 64.4816 415.52C64.5083 415.36 64.5483 415.2 64.6016 415.04C64.6683 414.867 64.755 414.727 64.8616 414.62C64.955 414.527 65.0883 414.46 65.2616 414.42C65.4483 414.367 65.615 414.34 65.7616 414.34C66.055 414.34 66.3016 414.44 66.5016 414.64C66.6883 414.827 66.795 415.027 66.8216 415.24C66.8616 415.44 66.895 415.653 66.9216 415.88C66.935 415.933 66.9416 416.013 66.9416 416.12C66.9683 416.347 66.9816 416.58 66.9816 416.82C66.995 417.06 67.0083 417.3 67.0216 417.54C67.0216 417.647 67.0216 417.733 67.0216 417.8C67.0216 417.867 67.0216 417.973 67.0216 418.12C67.035 418.253 67.0416 418.46 67.0416 418.74C67.0416 419.02 67.0416 419.427 67.0416 419.96V420.42Z" fill="#3E3CA5"/>
<path d="M82.8232 422.2C83.0499 422.213 83.2765 422.247 83.5032 422.3C83.7432 422.353 83.9565 422.453 84.1432 422.6C84.3299 422.747 84.4232 422.953 84.4232 423.22C84.4232 423.353 84.3965 423.5 84.3432 423.66C84.3032 423.82 84.2432 423.933 84.1632 424C84.0565 424.107 83.9165 424.187 83.7432 424.24C83.5832 424.28 83.4232 424.313 83.2632 424.34C83.1032 424.353 82.9632 424.36 82.8432 424.36C82.7365 424.36 82.6765 424.36 82.6632 424.36L72.0032 424.38C71.6965 424.393 71.3765 424.393 71.0432 424.38C70.7232 424.367 70.4499 424.267 70.2232 424.08C69.9165 423.853 69.7632 423.593 69.7632 423.3C69.7632 423.113 69.8232 422.927 69.9432 422.74C70.0765 422.54 70.2499 422.407 70.4632 422.34C70.7432 422.247 71.0299 422.207 71.3232 422.22C71.6165 422.22 71.9165 422.213 72.2232 422.2C72.5432 422.187 72.8165 422.18 73.0432 422.18C73.2832 422.18 73.5099 422.18 73.7232 422.18C73.9499 422.18 74.1832 422.187 74.4232 422.2C74.6632 422.2 74.9499 422.2 75.2832 422.2V420.7C73.6165 420.607 72.3565 420.32 71.5032 419.84C70.6499 419.36 70.2232 418.6 70.2232 417.56C70.2232 416.467 70.7965 415.667 71.9432 415.16C73.0899 414.653 74.7832 414.393 77.0232 414.38C78.0365 414.38 78.9632 414.433 79.8032 414.54C80.6432 414.647 81.3632 414.827 81.9632 415.08C82.5632 415.32 83.0232 415.647 83.3432 416.06C83.6765 416.46 83.8432 416.96 83.8432 417.56C83.8432 418.667 83.3632 419.46 82.4032 419.94C81.4565 420.407 80.0165 420.673 78.0832 420.74C78.0965 420.98 78.1032 421.247 78.1032 421.54C78.1165 421.82 78.1232 422.04 78.1232 422.2C78.4965 422.2 78.8965 422.2 79.3232 422.2C79.7499 422.187 80.1765 422.18 80.6032 422.18C81.0299 422.18 81.4365 422.18 81.8232 422.18C82.2099 422.18 82.5432 422.187 82.8232 422.2ZM83.0032 427.94C83.0165 427.94 83.0632 427.953 83.1432 427.98C83.2232 428.007 83.3099 428.047 83.4032 428.1C83.5099 428.167 83.6032 428.247 83.6832 428.34C83.7765 428.447 83.8365 428.567 83.8632 428.7C83.9432 429.207 83.8632 429.6 83.6232 429.88C83.4765 430.067 83.3165 430.18 83.1432 430.22C82.9699 430.26 82.8765 430.28 82.8632 430.28H71.9432C71.4365 430.28 71.0365 430.193 70.7432 430.02C70.4499 429.86 70.3032 429.627 70.3032 429.32V427.54C70.2899 427.393 70.2832 427.213 70.2832 427C70.2832 426.773 70.2899 426.587 70.3032 426.44C70.3299 426.16 70.4365 425.933 70.6232 425.76C70.8099 425.587 71.0432 425.5 71.3232 425.5C71.3899 425.5 71.4765 425.507 71.5832 425.52C71.7032 425.52 71.7965 425.533 71.8632 425.56C72.0365 425.613 72.1699 425.707 72.2632 425.84C72.3565 425.96 72.4299 426.1 72.4832 426.26C72.5365 426.42 72.5699 426.593 72.5832 426.78C72.5965 426.953 72.6099 427.113 72.6232 427.26C72.6232 427.367 72.6299 427.48 72.6432 427.6C72.6565 427.707 72.6765 427.807 72.7032 427.9C72.7299 427.913 72.8499 427.933 73.0632 427.96C73.2899 427.973 73.6365 427.98 74.1032 427.98C74.5032 427.98 74.8565 427.973 75.1632 427.96C75.4832 427.947 75.6499 427.94 75.6632 427.94H83.0032ZM81.1032 417.56C81.1032 417.347 81.0032 417.16 80.8032 417C80.6032 416.84 80.3232 416.707 79.9632 416.6C79.6032 416.493 79.1699 416.413 78.6632 416.36C78.1699 416.307 77.6232 416.28 77.0232 416.28C74.3965 416.28 73.0832 416.707 73.0832 417.56C73.0832 417.933 73.4165 418.227 74.0832 418.44C74.7632 418.653 75.7299 418.753 76.9832 418.74C77.4632 418.74 77.9432 418.727 78.4232 418.7C78.9165 418.66 79.3632 418.6 79.7632 418.52C80.1632 418.427 80.4832 418.307 80.7232 418.16C80.9765 418 81.1032 417.8 81.1032 417.56Z" fill="#3E3CA5"/>
<path d="M101.252 427.78C101.252 428.113 101.239 428.38 101.212 428.58C101.199 428.78 101.139 429.033 101.032 429.34C100.965 429.54 100.852 429.707 100.692 429.84C100.532 429.973 100.305 430.04 100.012 430.04C99.9319 430.04 99.8319 430.027 99.7119 430C99.5919 429.987 99.4986 429.953 99.4319 429.9C99.2986 429.82 99.1919 429.687 99.1119 429.5C99.0453 429.327 98.9919 429.14 98.9519 428.94C98.9119 428.74 98.8853 428.547 98.8719 428.36C98.8719 428.173 98.8719 428.027 98.8719 427.92V422.78L96.7519 422.72C96.6319 422.72 96.5053 422.707 96.3719 422.68C96.2519 422.64 96.1319 422.587 96.0119 422.52C95.9053 422.44 95.8119 422.34 95.7319 422.22C95.6519 422.087 95.6053 421.92 95.5919 421.72C95.5653 421.48 95.5786 421.227 95.6319 420.96C95.6986 420.68 95.8853 420.467 96.1919 420.32C96.3119 420.253 96.4586 420.213 96.6319 420.2C96.8186 420.187 96.9786 420.187 97.1119 420.2H98.8719V416.28C98.8719 416.107 98.8719 415.933 98.8719 415.76C98.8719 415.573 98.8919 415.393 98.9319 415.22C98.9586 415.153 98.9786 415.093 98.9919 415.04C99.0186 414.987 99.0453 414.927 99.0719 414.86C99.1519 414.727 99.2319 414.627 99.3119 414.56C99.3919 414.48 99.5053 414.413 99.6519 414.36C99.7186 414.333 99.7853 414.32 99.8519 414.32C99.9319 414.307 100.005 414.3 100.072 414.3C100.512 414.3 100.845 414.5 101.072 414.9C101.125 414.98 101.159 415.093 101.172 415.24C101.199 415.387 101.219 415.54 101.232 415.7C101.245 415.847 101.252 415.98 101.252 416.1C101.252 416.207 101.252 416.273 101.252 416.3V427.78ZM104.772 429.48C104.692 429.653 104.565 429.8 104.392 429.92C104.245 430.013 104.085 430.067 103.912 430.08C103.739 430.107 103.565 430.1 103.392 430.06C103.192 430.02 103.025 429.933 102.892 429.8C102.772 429.68 102.679 429.54 102.612 429.38C102.545 429.22 102.499 429.047 102.472 428.86C102.445 428.673 102.432 428.493 102.432 428.32V416.56C102.432 416.413 102.432 416.247 102.432 416.06C102.432 415.86 102.445 415.673 102.472 415.5C102.499 415.313 102.532 415.14 102.572 414.98C102.625 414.82 102.699 414.693 102.792 414.6C102.939 414.467 103.092 414.387 103.252 414.36C103.412 414.32 103.585 414.3 103.772 414.3C103.999 414.3 104.205 414.367 104.392 414.5C104.579 414.62 104.712 414.787 104.792 415C104.912 415.28 104.979 415.567 104.992 415.86C105.005 416.153 105.019 416.453 105.032 416.76C105.045 417.12 105.052 417.473 105.052 417.82C105.052 418.167 105.052 418.553 105.052 418.98C105.052 419.393 105.052 419.86 105.052 420.38C105.052 420.9 105.045 421.507 105.032 422.2C105.032 422.88 105.032 423.66 105.032 424.54C105.032 425.42 105.032 426.433 105.032 427.58C105.032 427.927 105.019 428.26 104.992 428.58C104.979 428.9 104.905 429.2 104.772 429.48ZM94.1119 429.04C93.8453 429.04 93.5853 429.027 93.3319 429C93.0919 428.973 92.8386 428.953 92.5719 428.94C92.3719 428.927 92.1653 428.887 91.9519 428.82C91.7386 428.767 91.5586 428.667 91.4119 428.52C91.2653 428.373 91.1519 428.247 91.0719 428.14C91.0053 428.033 90.9519 427.887 90.9119 427.7C90.8319 427.273 90.7986 426.833 90.8119 426.38C90.8253 425.927 90.8319 425.48 90.8319 425.04V423.4C90.8319 423.4 90.8319 423.247 90.8319 422.94C90.8319 422.62 90.8319 422.227 90.8319 421.76C90.8319 421.28 90.8253 420.753 90.8119 420.18C90.8119 419.607 90.8119 419.06 90.8119 418.54C90.8119 418.007 90.8119 417.54 90.8119 417.14C90.8119 416.727 90.8186 416.447 90.8319 416.3C90.8453 416.033 90.9053 415.76 91.0119 415.48C91.1186 415.187 91.3453 414.967 91.6919 414.82C91.8386 414.767 91.9919 414.727 92.1519 414.7C92.3119 414.673 92.4719 414.68 92.6319 414.72C92.7919 414.76 92.9386 414.833 93.0719 414.94C93.2186 415.033 93.3253 415.167 93.3919 415.34C93.4719 415.527 93.5253 415.727 93.5519 415.94C93.5919 416.14 93.6119 416.353 93.6119 416.58C93.6119 416.727 93.6053 416.94 93.5919 417.22C93.5919 417.5 93.5919 417.713 93.5919 417.86C93.5919 418.287 93.5919 418.867 93.5919 419.6C93.5919 420.32 93.5853 421.073 93.5719 421.86C93.5719 422.647 93.5719 423.4 93.5719 424.12C93.5719 424.84 93.5853 425.413 93.6119 425.84C93.6119 425.933 93.6186 426.027 93.6319 426.12C93.6453 426.213 93.6853 426.293 93.7519 426.36C93.8319 426.427 93.9253 426.467 94.0319 426.48C94.1519 426.48 94.2653 426.48 94.3719 426.48C94.7453 426.507 95.0319 426.527 95.2319 426.54C95.4319 426.54 95.5853 426.54 95.6919 426.54C95.8119 426.54 95.9119 426.547 95.9919 426.56C96.0853 426.573 96.2119 426.587 96.3719 426.6C96.5986 426.627 96.8319 426.66 97.0719 426.7C97.3253 426.727 97.5519 426.807 97.7519 426.94C97.8586 427.007 97.9319 427.1 97.9719 427.22C98.0253 427.327 98.0586 427.44 98.0719 427.56C98.0853 427.627 98.0919 427.693 98.0919 427.76C98.0919 427.813 98.0919 427.873 98.0919 427.94C98.0786 428.087 98.0453 428.193 97.9919 428.26C97.9519 428.34 97.8786 428.433 97.7719 428.54C97.5853 428.74 97.3386 428.873 97.0319 428.94C96.8453 428.967 96.6586 428.993 96.4719 429.02C96.2986 429.047 96.1186 429.06 95.9319 429.06C95.8653 429.06 95.7453 429.053 95.5719 429.04C95.3986 429.04 95.2119 429.04 95.0119 429.04C94.8119 429.04 94.6253 429.04 94.4519 429.04C94.2786 429.04 94.1653 429.04 94.1119 429.04Z" fill="#3E3CA5"/>
<path d="M114.883 416.94C114.443 416.94 113.99 416.96 113.523 417C113.057 417.027 112.577 417.007 112.083 416.94C111.857 416.913 111.683 416.76 111.563 416.48C111.457 416.187 111.403 415.873 111.403 415.54C111.417 415.233 111.53 415.007 111.743 414.86C111.957 414.713 112.177 414.607 112.403 414.54C112.683 414.46 112.917 414.42 113.103 414.42C113.303 414.407 113.55 414.393 113.843 414.38C114.03 414.38 114.243 414.387 114.483 414.4C114.723 414.4 114.937 414.4 115.123 414.4H116.323C116.403 414.4 116.483 414.4 116.563 414.4C116.643 414.387 116.723 414.387 116.803 414.4H117.363C117.483 414.4 117.603 414.407 117.723 414.42C117.843 414.42 117.957 414.42 118.063 414.42C118.183 414.42 118.303 414.42 118.423 414.42C118.543 414.42 118.663 414.427 118.783 414.44C118.85 414.44 118.91 414.44 118.963 414.44C119.017 414.44 119.07 414.453 119.123 414.48C119.203 414.507 119.277 414.533 119.343 414.56C119.463 414.627 119.577 414.7 119.683 414.78C119.79 414.86 119.877 414.96 119.943 415.08C120.063 415.28 120.137 415.493 120.163 415.72C120.203 415.947 120.223 416.173 120.223 416.4L120.243 420.58C120.217 420.953 120.21 421.3 120.223 421.62C120.237 421.94 120.15 422.26 119.963 422.58C119.857 422.767 119.71 422.92 119.523 423.04C119.337 423.16 119.137 423.233 118.923 423.26C118.723 423.287 118.53 423.267 118.343 423.2C118.157 423.12 118.003 422.987 117.883 422.8C117.763 422.6 117.677 422.42 117.623 422.26C117.57 422.087 117.53 421.92 117.503 421.76C117.49 421.587 117.49 421.413 117.503 421.24C117.517 421.053 117.523 420.847 117.523 420.62H112.823C112.823 420.62 112.79 420.62 112.723 420.62C112.67 420.62 112.603 420.613 112.523 420.6C112.457 420.573 112.383 420.54 112.303 420.5C112.223 420.447 112.157 420.373 112.103 420.28C112.023 420.12 111.983 419.913 111.983 419.66C111.983 419.407 112.03 419.207 112.123 419.06C112.217 418.913 112.31 418.827 112.403 418.8C112.51 418.773 112.617 418.747 112.723 418.72C112.83 418.707 112.923 418.693 113.003 418.68C113.097 418.653 113.203 418.633 113.323 418.62C114.057 418.58 114.837 418.56 115.663 418.56C115.93 418.56 116.23 418.56 116.563 418.56C116.91 418.56 117.23 418.567 117.523 418.58C117.523 418.313 117.523 418.06 117.523 417.82C117.523 417.567 117.51 417.307 117.483 417.04C117.057 417.027 116.623 417.013 116.183 417C115.757 416.987 115.323 416.967 114.883 416.94ZM122.283 425.82C122.777 426.167 123.263 426.513 123.743 426.86C124.223 427.207 124.697 427.567 125.163 427.94C125.323 428.073 125.51 428.207 125.723 428.34C125.937 428.487 126.063 428.673 126.103 428.9C126.143 429.087 126.117 429.28 126.023 429.48C125.943 429.68 125.83 429.84 125.683 429.96C125.457 430.147 125.237 430.227 125.023 430.2C124.81 430.173 124.583 430.107 124.343 430C123.85 429.773 123.377 429.52 122.923 429.24C122.47 428.96 122.017 428.667 121.563 428.36C121.337 428.213 121.117 428.06 120.903 427.9C120.69 427.727 120.477 427.567 120.263 427.42C120.117 427.313 119.963 427.193 119.803 427.06C119.643 426.927 119.457 426.873 119.243 426.9C119.057 426.913 118.91 426.953 118.803 427.02C118.697 427.087 118.577 427.173 118.443 427.28C118.297 427.387 118.137 427.507 117.963 427.64C117.803 427.773 117.663 427.893 117.543 428C117.197 428.293 116.817 428.587 116.403 428.88C116.003 429.187 115.61 429.44 115.223 429.64C115.077 429.72 114.91 429.8 114.723 429.88C114.537 429.96 114.35 430.02 114.163 430.06C113.977 430.113 113.783 430.133 113.583 430.12C113.397 430.12 113.223 430.08 113.063 430C112.85 429.893 112.697 429.733 112.603 429.52C112.51 429.307 112.497 429.087 112.563 428.86C112.63 428.633 112.777 428.433 113.003 428.26C113.243 428.087 113.443 427.933 113.603 427.8C114.11 427.413 114.657 427.013 115.243 426.6C115.83 426.173 116.383 425.773 116.903 425.4C117.13 425.227 117.357 425.08 117.583 424.96C117.81 424.827 118.037 424.667 118.263 424.48C118.343 424.413 118.437 424.34 118.543 424.26C118.65 424.167 118.763 424.087 118.883 424.02C119.003 423.94 119.123 423.88 119.243 423.84C119.363 423.8 119.483 423.793 119.603 423.82C119.79 423.873 119.95 423.967 120.083 424.1C120.217 424.233 120.357 424.353 120.503 424.46L122.283 425.82ZM122.823 419.96C122.437 419.933 122.09 419.913 121.783 419.9C121.477 419.873 121.237 419.727 121.063 419.46C120.983 419.327 120.943 419.16 120.943 418.96C120.943 418.76 120.957 418.587 120.983 418.44C121.023 418.293 121.097 418.173 121.203 418.08C121.31 417.973 121.497 417.887 121.763 417.82C121.817 417.807 121.917 417.8 122.063 417.8C122.21 417.787 122.363 417.773 122.523 417.76C122.697 417.747 122.857 417.74 123.003 417.74C123.15 417.727 123.25 417.72 123.303 417.72V416C123.29 415.853 123.283 415.707 123.283 415.56C123.297 415.413 123.323 415.267 123.363 415.12C123.39 415.013 123.417 414.913 123.443 414.82C123.47 414.727 123.53 414.627 123.623 414.52C123.73 414.387 123.877 414.293 124.063 414.24C124.263 414.187 124.477 414.173 124.703 414.2C125.13 414.267 125.403 414.433 125.523 414.7C125.603 414.86 125.65 415.06 125.663 415.3C125.69 415.527 125.703 415.667 125.703 415.72V422.24H125.683C125.683 422.253 125.677 422.3 125.663 422.38C125.65 422.46 125.623 422.56 125.583 422.68C125.543 422.787 125.483 422.9 125.403 423.02C125.323 423.14 125.217 423.24 125.083 423.32C124.897 423.427 124.71 423.48 124.523 423.48C124.297 423.48 124.077 423.407 123.863 423.26C123.703 423.153 123.59 423.02 123.523 422.86C123.443 422.713 123.39 422.567 123.363 422.42C123.337 422.273 123.317 422.127 123.303 421.98V419.96H122.823Z" fill="#3E3CA5"/>
<path fill-rule="evenodd" clip-rule="evenodd" d="M150 0H0V450H150V0ZM10 15C10 12.7909 11.7909 11 14 11H136C138.209 11 140 12.7909 140 15V97.5C140 99.7091 138.209 101.5 136 101.5H14C11.7909 101.5 10 99.7091 10 97.5V15ZM10 112.5C10 110.291 11.7909 108.5 14 108.5H136C138.209 108.5 140 110.291 140 112.5V195C140 197.209 138.209 199 136 199H14C11.7909 199 10 197.209 10 195V112.5ZM14 206C11.7909 206 10 207.791 10 210V292.5C10 294.709 11.7909 296.5 14 296.5H136C138.209 296.5 140 294.709 140 292.5V210C140 207.791 138.209 206 136 206H14ZM10 307.5C10 305.291 11.7909 303.5 14 303.5H136C138.209 303.5 140 305.291 140 307.5V390C140 392.209 138.209 394 136 394H14C11.7909 394 10 392.209 10 390V307.5ZM38.3733 407.208C38.4313 407.025 38.4594 406.937 38.4277 406.9C38.398 406.866 38.3162 406.876 38.1578 406.896L38.1508 406.897C36.9804 407.048 35.925 407.52 34.8923 408.056C34.8596 408.073 34.8272 408.091 34.7949 408.109C34.737 408.141 34.6791 408.172 34.6192 408.2C34.3785 408.31 34.1736 408.252 34.0661 408.046C33.9604 407.845 34.0277 407.623 34.2513 407.502C34.9921 407.102 35.7463 406.73 36.5476 406.463C37.9512 405.995 39.3908 405.938 40.8483 406.09L41.0969 406.116C41.4514 406.152 41.806 406.189 42.159 406.236C42.4939 406.281 42.8272 406.357 43.1069 406.558C43.2249 406.642 43.266 406.579 43.3059 406.516C43.3169 406.499 43.3279 406.482 43.3404 406.468C44.4532 405.247 45.8147 404.457 47.4381 404.14C48.5999 403.914 49.7455 403.915 50.8286 404.495C53.0341 405.675 54.1591 407.909 53.7868 410.38C53.7492 410.63 53.6842 410.874 53.5799 411.106C53.5401 411.194 53.527 411.258 53.6587 411.279C54.698 411.446 55.5518 412.583 55.1228 414.065C55.0321 414.379 54.9039 414.67 54.7493 414.947C54.8259 414.942 54.9033 414.94 54.9816 414.94C55.2883 414.927 55.5883 414.92 55.8816 414.92H59.3616C59.535 414.947 59.715 414.973 59.9016 415C60.1016 415.013 60.2816 415.053 60.4416 415.12C60.5483 415.16 60.6483 415.213 60.7416 415.28C60.8483 415.347 60.935 415.427 61.0016 415.52C61.1216 415.707 61.1883 415.893 61.2016 416.08C61.2283 416.267 61.255 416.473 61.2816 416.7C61.3083 417.073 61.3216 417.447 61.3216 417.82V418.92V425.48V425.8C61.335 425.987 61.3416 426.213 61.3416 426.48V427.3C61.3416 427.58 61.335 427.827 61.3216 428.04C61.3083 428.173 61.2883 428.313 61.2616 428.46C61.235 428.607 61.1883 428.747 61.1216 428.88C61.0683 429.013 60.9883 429.133 60.8816 429.24C60.775 429.347 60.635 429.433 60.4616 429.5C60.235 429.593 60.0083 429.64 59.7816 429.64C59.6083 429.64 59.435 429.6 59.2616 429.52C59.0883 429.453 58.9683 429.347 58.9016 429.2C58.6883 428.773 58.5816 428.3 58.5816 427.78V427.603C57.931 428.73 57.1267 429.754 56.2552 430.733C56.2125 430.781 56.1727 430.832 56.1329 430.883C56.0191 431.03 55.9045 431.178 55.7169 431.252C55.6477 431.28 55.6496 431.345 55.6515 431.408C55.6519 431.419 55.6522 431.43 55.6522 431.441C55.6521 431.454 55.6514 431.467 55.6493 431.48C55.2914 433.616 54.3627 435.462 52.6449 436.796C51.1955 437.922 49.5607 438.747 47.6937 438.967C46.7317 439.081 45.8265 438.914 45.0708 438.247C44.9989 438.184 44.9273 438.168 44.8404 438.185C44.8097 438.191 44.7781 438.195 44.7465 438.199L44.7451 438.2C44.6737 438.209 44.6021 438.219 44.5402 438.249C43.6479 438.675 42.7124 438.663 41.7634 438.538C41.6815 438.527 41.5988 438.523 41.516 438.519C41.4739 438.517 41.4318 438.515 41.3898 438.512C41.3758 438.511 41.3618 438.51 41.3478 438.509L41.3156 438.506C41.0785 438.481 40.9241 438.318 40.9407 438.101C40.9584 437.871 41.096 437.731 41.3212 437.73C41.6386 437.729 41.9598 437.738 42.2729 437.785C42.951 437.888 43.5831 437.764 44.2226 437.534C44.5441 437.418 44.6732 437.308 44.6419 436.951C44.6054 436.533 44.7796 436.145 45 435.79C45.2726 435.351 45.6184 434.969 45.9739 434.598C46.0371 434.531 46.1175 434.476 46.1999 434.435C46.4245 434.324 46.6591 434.386 46.7595 434.585C46.8691 434.802 46.7965 434.97 46.6126 435.123C46.2074 435.459 45.8815 435.866 45.615 436.319C45.6037 436.338 45.5998 436.362 45.595 436.391L45.5908 436.416L45.588 436.43L45.585 436.444C45.8492 436.397 46.0683 436.437 46.1851 436.719C46.213 436.691 46.2397 436.663 46.2662 436.634C46.364 436.53 46.4596 436.428 46.6047 436.371C46.6251 436.362 46.6315 436.354 46.6428 436.339L46.6496 436.331C46.4601 436.286 46.2758 436.221 46.2473 435.986C46.2261 435.811 46.2879 435.662 46.4838 435.584L46.5066 435.584L46.5361 435.584C46.555 435.578 46.5778 435.576 46.6049 435.579L46.6025 435.585L46.6015 435.588C46.9568 435.695 47.0114 435.825 46.8586 436.142C46.8531 436.153 46.8425 436.162 46.8318 436.171C46.8091 436.191 46.7862 436.21 46.8114 436.251C46.844 436.305 46.8817 436.292 46.9199 436.278C46.927 436.276 46.9342 436.273 46.9413 436.271C46.9464 436.27 46.9515 436.268 46.9565 436.267L47.0032 436.259L47.0457 436.251C47.0694 436.247 47.0932 436.242 47.117 436.239C47.1465 436.234 47.176 436.23 47.2056 436.228C47.2218 436.226 47.238 436.225 47.2548 436.225C47.2879 436.224 47.324 436.224 47.3648 436.225H47.3659L47.4175 436.226L47.4445 436.226L47.4714 436.226C47.2896 436.012 47.1757 435.81 47.4602 435.641C47.7049 435.496 47.9832 435.541 48.1164 435.737C48.2655 435.956 48.1918 436.16 47.867 436.393C48.1284 436.552 48.2746 436.792 48.3543 437.074C48.4264 437.328 48.3587 437.55 48.1256 437.678C47.62 437.955 47.0895 437.99 46.5625 437.745C46.2811 437.615 46.1229 437.376 46.1085 437.02C45.8672 437.154 45.6599 437.079 45.4682 436.924C45.3661 437.325 45.4667 437.605 45.8022 437.819C46.4838 438.255 47.2319 438.281 47.9958 438.134C49.1883 437.905 50.2667 437.389 51.2918 436.761C53.6408 435.321 54.7628 433.191 54.9158 430.466C55.0077 428.828 54.445 427.386 53.8172 425.944C53.6231 425.499 53.4095 425.062 53.1959 424.625C53.1347 424.5 53.0735 424.374 53.0128 424.249C52.9438 424.106 52.8533 423.976 52.7491 423.854C52.5828 423.658 52.5963 423.43 52.7659 423.279C52.9389 423.125 53.1985 423.141 53.364 423.339C53.6534 423.687 53.8402 424.096 54.0265 424.505L54.027 424.506C54.1106 424.689 54.1945 424.872 54.279 425.056L54.4254 425.374L54.6051 425.765C54.7094 425.712 54.7337 425.626 54.7567 425.545C54.7602 425.533 54.7636 425.521 54.7673 425.509C55.0369 424.637 55.1779 423.745 55.199 422.834L55.2014 422.723C55.21 422.321 55.2186 421.92 55.3108 421.524C55.6672 419.993 57.066 419.313 58.4972 419.979C58.5189 419.989 58.5403 420 58.5616 420.01V419.58V418.94C58.5616 418.727 58.5483 418.507 58.5216 418.28C58.5083 418.213 58.4883 418.12 58.4616 418C58.4483 417.88 58.4083 417.807 58.3416 417.78C58.275 417.74 58.195 417.727 58.1016 417.74C58.0216 417.74 57.9416 417.733 57.8616 417.72C57.7683 417.707 57.675 417.707 57.5816 417.72C57.5016 417.733 57.415 417.733 57.3216 417.72H56.3816C56.155 417.733 55.9283 417.733 55.7016 417.72C55.475 417.707 55.2483 417.707 55.0216 417.72C54.9885 417.724 54.956 417.728 54.9242 417.73C54.9044 417.732 54.8848 417.734 54.8654 417.735C55.0987 418.112 55.1474 418.572 55.0819 419.067C54.9951 419.723 54.8325 420.37 54.6308 421.003C54.469 421.51 54.1506 421.906 53.7298 422.224C53.6568 422.279 53.5695 422.318 53.4842 422.353C53.261 422.446 53.0887 422.355 52.9911 422.161C52.8912 421.963 52.9414 421.768 53.1404 421.651C53.5706 421.399 53.8237 421.027 53.9364 420.549C53.9532 420.478 53.9701 420.407 53.987 420.336C54.0116 420.234 54.0363 420.131 54.061 420.029C54.1372 419.712 54.2135 419.396 54.2848 419.078C54.3278 418.886 54.3394 418.687 54.3014 418.492C54.2315 418.133 54.0456 417.881 53.6676 417.791C53.2741 417.698 53.1488 417.54 53.2367 417.209C53.2064 417.156 53.1814 417.099 53.1616 417.04C53.1113 416.889 53.08 416.734 53.0677 416.576C52.8418 416.438 52.8425 416.154 53.0526 415.905L53.0784 415.875L53.1802 415.754C53.1865 415.739 53.193 415.723 53.1998 415.708C53.2068 415.692 53.2141 415.676 53.2216 415.66C53.2883 415.5 53.375 415.387 53.4816 415.32C53.5166 415.285 53.5588 415.254 53.6083 415.226C53.7654 415.021 53.9133 414.809 54.0438 414.584C54.292 414.155 54.4349 413.704 54.4393 413.2C54.4444 412.609 53.845 411.897 53.1393 412.061C52.9773 412.098 52.8044 412.098 52.6365 412.098C52.4491 412.098 52.314 411.999 52.2562 411.821C52.2014 411.652 52.2574 411.503 52.3968 411.397C52.8569 411.05 52.9689 410.547 53.0269 410.017C53.0446 409.856 52.9634 409.754 52.8419 409.667L52.4206 409.365L52.4194 409.364L52.417 409.362C51.6697 408.826 50.9223 408.29 50.1799 407.747C50.0471 407.65 49.9729 407.686 49.8746 407.781C49.5928 408.055 49.3089 408.326 49.0188 408.591C48.7787 408.81 48.5481 408.817 48.3805 408.626C48.2207 408.444 48.2533 408.234 48.4807 408.015C48.536 407.961 48.5911 407.907 48.6461 407.853C48.8252 407.678 49.0043 407.503 49.1952 407.341C49.3479 407.212 49.3352 407.149 49.1787 407.038C49.0855 406.971 48.9919 406.905 48.8982 406.839L48.6796 406.685C48.1036 406.28 47.5271 405.875 46.9883 405.425C46.6737 405.162 46.4531 405.228 46.1594 405.366C45.1497 405.838 44.2896 406.493 43.621 407.391C43.3605 407.742 43.0818 407.724 42.864 407.346C42.8292 407.285 42.7885 407.265 42.7375 407.239L42.7233 407.232C42.3916 407.063 42.0355 406.999 41.6697 406.966C41.3061 406.934 40.9425 406.901 40.5802 406.857C40.4391 406.841 40.382 406.881 40.3576 407.024C40.3216 407.235 40.2705 407.446 40.202 407.649C40.1419 407.827 40.1546 407.912 40.3698 407.941C40.6755 407.981 40.9722 408.074 41.2561 408.199C41.5096 408.31 41.7264 408.472 41.7048 408.777C41.6827 409.088 41.4353 409.203 41.1659 409.267C40.7991 409.353 40.4232 409.371 40.0501 409.367C39.8196 409.364 39.7407 409.445 39.6706 409.659C39.5815 409.932 39.5771 410.084 39.9107 410.126C40.0744 410.147 40.2322 410.228 40.3614 410.343C40.508 410.472 40.605 410.625 40.5675 410.833C40.5281 411.052 40.386 411.174 40.1837 411.235C39.9293 411.311 39.6651 411.316 39.4043 411.305C39.2232 411.298 39.1331 411.356 39.0885 411.532C39.0128 411.831 38.9059 412.121 38.7577 412.393C38.5731 412.731 38.2946 412.901 38.0228 412.846C37.7262 412.785 37.538 412.523 37.5252 412.12C37.5222 412.026 37.5331 411.926 37.5438 411.827C37.564 411.641 37.5839 411.458 37.5119 411.321C37.442 411.188 37.2772 411.174 37.1043 411.159C36.9911 411.149 36.8744 411.139 36.7785 411.096C36.5743 411.002 36.3897 410.898 36.3819 410.64C36.3737 410.372 36.5429 410.239 36.7664 410.148C37.0022 410.052 37.2476 409.985 37.4998 409.971C37.6837 409.961 37.7647 409.884 37.7822 409.71C37.7905 409.627 37.8117 409.544 37.8361 409.464C37.8921 409.281 37.8262 409.213 37.6369 409.202C37.461 409.192 37.2825 409.159 37.1138 409.108C36.8459 409.027 36.5891 408.898 36.5719 408.577C36.5551 408.262 36.7857 408.096 37.0366 407.969C37.3087 407.832 37.6108 407.769 37.9056 407.772C38.1994 407.776 38.2996 407.65 38.3245 407.395C38.3282 407.358 38.3394 407.321 38.3527 407.277C38.3589 407.257 38.3656 407.235 38.3721 407.211L38.3733 407.208ZM58.5616 423.933V422.978C57.834 423.26 57.2229 423.139 55.9896 422.639L55.9897 422.734C55.9898 422.798 55.9899 422.859 55.9895 422.92C55.984 423.814 55.8348 424.689 55.5799 425.54C55.4898 425.841 55.5928 425.984 55.8161 426.104C55.9103 426.154 56.0123 426.19 56.1144 426.226C56.1624 426.243 56.2105 426.26 56.2578 426.278L56.2855 426.289C56.494 426.37 56.7024 426.451 56.8677 426.612C57.2178 426.953 57.1427 427.438 56.7026 427.652C56.4239 427.788 56.1381 427.749 55.8534 427.671C55.7285 427.637 55.6041 427.601 55.4707 427.562L55.4696 427.562C55.4075 427.544 55.3434 427.526 55.2765 427.507C55.3742 427.833 55.4572 428.11 55.5454 428.409C55.581 428.553 55.6115 428.675 55.6496 428.828C55.9637 428.519 56.302 428.588 56.6309 428.655C56.6577 428.66 56.6844 428.666 56.7111 428.671C56.8641 428.701 56.9503 428.669 57.0371 428.545C57.4612 427.94 57.8537 427.317 58.1902 426.658C58.2766 426.489 58.257 426.42 58.0674 426.376C57.6423 426.277 57.2655 426.071 56.9195 425.81C56.6359 425.597 56.4225 425.329 56.3526 424.97C56.2426 424.405 56.6005 423.984 57.1649 424.056C57.6552 424.118 58.1176 424.069 58.5616 423.933ZM23.5508 435.925C23.8574 436.894 24.5479 437.358 25.5604 437.296C26.2833 437.252 26.9953 437.173 27.6183 436.743C27.838 436.591 28.0937 436.614 28.3505 436.674C29.6232 436.974 30.8976 437.268 32.172 437.561C32.276 437.584 32.3833 437.595 32.4901 437.605L32.5332 437.61C32.8141 437.638 32.9946 437.406 32.8931 437.145C32.7683 436.824 32.6526 436.499 32.537 436.174C32.352 435.655 32.167 435.135 31.9444 434.63C31.932 434.602 31.9197 434.573 31.9074 434.545L31.906 434.542C31.8147 434.331 31.7237 434.121 31.5707 433.944C31.5667 433.939 31.5621 433.934 31.5574 433.929L31.5565 433.928C31.5399 433.911 31.522 433.893 31.5233 433.876C31.5494 433.554 31.3373 433.483 31.1284 433.414C31.0722 433.395 31.0162 433.376 30.9652 433.353C29.3398 432.605 28.5781 430.854 29.1388 429.161C29.3789 428.437 29.8994 428.005 30.589 427.747C30.6917 427.708 30.8091 427.692 30.9193 427.694C31.1463 427.697 31.2945 427.821 31.3197 428.047C31.345 428.272 31.2309 428.426 31.0045 428.473C30.2778 428.624 29.9159 429.092 29.7952 429.802C29.5621 431.172 30.364 432.426 31.7067 432.78C32.0377 432.867 32.3556 432.819 32.6762 432.746C33.0283 432.665 33.2305 432.782 33.2782 433.133C33.3172 433.421 33.5049 433.551 33.7403 433.634C33.9715 433.716 34.1822 433.663 34.3525 433.476C34.4027 433.42 34.4592 433.371 34.516 433.322C34.8062 433.074 35.0751 433.118 35.2421 433.455C35.2956 433.564 35.3566 433.644 35.4676 433.687C36.2073 433.974 36.9668 434.197 37.7646 434.052C38.3306 433.95 38.8734 433.766 39.063 433.102C39.1303 432.866 39.3998 432.78 39.649 432.871C39.7576 432.91 39.8615 432.963 39.9654 433.015L40.0045 433.035L40.0509 433.058L40.0876 433.076L40.105 433.084C40.2376 433.148 40.364 433.165 40.5047 433.088C40.7198 432.97 40.9419 432.944 41.1037 433.174C41.2623 433.399 41.1653 433.594 40.9853 433.761C41.3389 434.018 41.3283 434.051 41.1883 434.487L41.1832 434.503C41.1201 434.7 41.0905 434.907 41.0609 435.114C41.0428 435.241 41.0246 435.368 40.9988 435.492C40.8945 435.995 40.7792 436.497 40.6 436.98C40.5289 437.171 40.5476 437.361 40.5665 437.553L40.5673 437.56C40.6468 438.368 40.2371 438.869 39.4286 438.951C38.8505 439.009 38.2909 438.904 37.736 438.76C37.7067 438.753 37.6775 438.745 37.6483 438.736C37.6266 438.73 37.605 438.723 37.5834 438.716L37.5348 438.701C37.4317 438.669 37.3287 438.638 37.2234 438.617C36.9327 438.562 36.6929 438.446 36.5572 438.099C36.3518 438.699 35.8804 438.829 35.3874 438.842C35.3354 438.844 35.2833 438.845 35.2312 438.847C34.5285 438.868 33.8167 438.89 33.1867 438.466C33.151 438.442 33.0989 438.432 33.0544 438.432C32.0969 438.43 31.1867 438.173 30.2785 437.912C29.9339 437.813 29.5818 437.749 29.2298 437.686L29.2285 437.685L29.2274 437.685C28.8536 437.617 28.4795 437.55 28.1148 437.44C28.0255 437.413 27.96 437.457 27.8944 437.502C27.8671 437.52 27.8399 437.539 27.8109 437.552C26.6839 438.074 25.5196 438.337 24.3135 437.88C23.0903 437.418 22.5369 436.342 22.8011 435.067C22.9492 434.352 23.6809 433.654 24.4411 433.504C25.0258 433.388 25.0258 433.388 25.0281 432.798L25.0281 432.793C25.0321 431.781 25.2058 430.818 25.8725 430.008C25.9623 429.899 25.9239 429.84 25.8525 429.749C25.5772 429.399 25.3911 429.003 25.2741 428.575C25.1265 428.036 25.2269 427.518 25.4394 427.017C25.4921 426.893 25.5059 426.804 25.4108 426.692C24.6966 425.855 24.8401 424.946 25.2203 424.034C25.2892 423.869 25.2577 423.815 25.1392 423.725C24.6832 423.381 24.2473 423.013 23.8717 422.58C23.0593 421.645 22.5815 420.605 22.9292 419.338C23.1037 418.702 23.3998 418.134 24.0169 417.806C24.1204 417.751 24.1297 417.683 24.1243 417.579C24.0712 416.549 24.5322 415.924 25.5241 415.688C25.664 415.655 25.73 415.625 25.7046 415.458C25.6517 415.11 25.6946 414.763 25.8355 414.441C25.9177 414.254 25.8638 414.139 25.742 413.999C25.1184 413.284 24.6388 412.498 24.4853 411.537C24.069 408.93 25.9532 405.943 28.8043 405.453C29.8178 405.279 30.8262 405.181 31.8277 405.515C32.5188 405.746 33.0906 406.156 33.5849 406.682C33.7004 406.805 33.809 406.939 33.8501 407.106C33.903 407.321 33.8387 407.497 33.6282 407.594C33.4237 407.689 33.2459 407.617 33.1421 407.442C32.8577 406.961 32.408 406.682 31.9456 406.415C31.8584 406.364 31.7681 406.312 31.6582 406.381C31.3215 406.589 30.9656 406.761 30.6094 406.933L30.6083 406.933C30.1907 407.135 29.7729 407.337 29.3858 407.598L29.3417 407.627C29.068 407.811 28.9293 407.905 28.9062 408.021C28.8826 408.14 28.9812 408.284 29.1802 408.575L29.2042 408.61L29.224 408.638C29.2683 408.702 29.3126 408.765 29.3509 408.832C29.4668 409.035 29.4205 409.213 29.2425 409.352C29.067 409.489 28.8447 409.458 28.6982 409.267C28.5393 409.059 28.3938 408.84 28.2525 408.62C28.1831 408.512 28.1311 408.48 28.017 408.573C27.9484 408.629 27.8798 408.685 27.8111 408.741L27.6763 408.85C26.9184 409.465 26.1609 410.079 25.5089 410.813C25.3016 411.046 25.2223 411.28 25.2982 411.601C25.4834 412.383 25.9125 413.019 26.4447 413.593C26.7318 413.903 26.8327 414.202 26.6243 414.6C26.4394 414.953 26.4416 415.336 26.5621 415.718C26.6944 416.138 26.5 416.416 26.0631 416.446L26.0611 416.446C26.0524 416.447 26.0436 416.447 26.035 416.446C25.2102 416.341 24.6711 417.035 25.0105 417.881C25.0976 418.098 24.984 418.34 24.7508 418.391C24.3865 418.469 24.1091 418.64 23.9333 418.967C23.694 419.412 23.5506 419.879 23.6247 420.392C23.7463 421.235 24.236 421.864 24.8258 422.428C25.1907 422.777 25.5892 423.088 25.9985 423.385C26.4191 423.69 26.4309 423.983 26.0332 424.305L26.0148 424.32C25.9547 424.368 25.8954 424.415 25.8721 424.493C25.698 425.076 25.5467 425.656 26.0177 426.186C26.1048 426.284 26.1761 426.397 26.2465 426.509L26.2596 426.53C26.3853 426.729 26.3937 426.938 26.272 427.14C25.8184 427.894 25.9681 428.604 26.4788 429.244C26.6209 429.422 26.6493 429.615 26.6776 429.807C26.6933 429.914 26.709 430.02 26.744 430.123C26.7729 430.208 26.7103 430.305 26.6378 430.371C26.0736 430.886 25.9164 431.571 25.8382 432.288C25.8097 432.548 25.8187 432.809 25.8276 433.07L25.8305 433.155L25.8326 433.224C25.8344 433.285 25.8357 433.347 25.8362 433.408C25.8394 433.836 25.7189 433.996 25.3113 434.124C25.1692 434.169 25.0232 434.212 24.8759 434.228C24.0974 434.31 23.4321 434.897 23.5332 435.837C23.5358 435.85 23.5388 435.86 23.5415 435.869C23.5437 435.868 23.5459 435.868 23.5479 435.867L23.5513 435.867L23.5536 435.866C23.5548 435.866 23.5557 435.866 23.5561 435.865C23.8654 435.421 23.9544 435.415 24.3581 435.825C24.4207 435.711 24.4819 435.599 24.5606 435.474L24.5677 435.459C24.5717 435.451 24.5758 435.443 24.5799 435.435C24.5537 435.404 24.5179 435.404 24.4823 435.404L24.4705 435.403L24.4585 435.403C24.4529 435.403 24.4473 435.402 24.4418 435.401C24.1203 435.354 23.9914 435.11 24.1584 434.845C24.2575 434.688 24.3773 434.514 24.6018 434.63C24.7983 434.731 24.963 434.871 24.843 435.136C24.8376 435.148 24.8451 435.166 24.8551 435.19L24.8623 435.207C24.8649 435.213 24.8674 435.22 24.8698 435.227L24.864 435.228C24.861 435.229 24.8579 435.23 24.855 435.231L24.8483 435.234L24.8623 435.233C24.9714 435.187 25.0826 435.188 25.1936 435.188C25.2518 435.189 25.3099 435.189 25.3677 435.183C25.125 434.761 25.1155 434.621 25.3132 434.503C25.4859 434.4 25.7782 434.488 25.9035 434.681C26.0366 434.885 25.9777 435.075 25.7204 435.268C25.7368 435.319 25.7789 435.34 25.8204 435.361C25.8355 435.368 25.8505 435.376 25.8643 435.385C26.1557 435.575 26.3085 435.839 26.2747 436.188C26.241 436.538 26.0059 436.73 25.703 436.851C25.1575 437.07 24.7 436.922 24.377 436.428C24.3713 436.419 24.3665 436.409 24.3618 436.399C24.3466 436.366 24.3321 436.334 24.2856 436.358C23.9915 436.504 23.8742 436.328 23.7569 436.153C23.726 436.106 23.6951 436.06 23.6609 436.02C23.6579 436.016 23.6554 436.012 23.6532 436.008C23.6513 436.004 23.6497 436 23.6483 435.996L23.645 435.987L23.6422 435.978C23.6315 435.942 23.6206 435.908 23.5508 435.925ZM46.8205 416.288C46.5835 415.727 46.7652 415.433 47.3566 415.388C47.4822 415.378 47.608 415.377 47.7339 415.376C47.925 415.374 48.1164 415.373 48.308 415.341C48.7545 415.268 49.1239 415.097 49.3799 414.705C49.5989 414.37 49.8991 414.123 50.2659 413.952C50.7603 413.721 51.244 413.692 51.6982 414.026C52.1653 414.37 52.3593 414.855 52.3174 415.423C52.2743 416.007 51.9663 416.453 51.4676 416.735C50.4118 417.333 49.2778 417.452 48.1045 417.18C47.5735 417.057 47.1737 416.717 46.8205 416.288ZM28.024 416.365C28.9034 416.76 29.7993 416.852 30.7315 416.466C30.9121 416.381 31.0642 416.291 31.1922 416.164C31.3223 416.036 31.376 415.883 31.3203 415.705C31.2601 415.513 31.1124 415.419 30.9221 415.404C30.803 415.394 30.6774 415.404 30.5612 415.431C30.0014 415.565 29.5717 415.403 29.285 414.895C29.2759 414.878 29.2647 414.863 29.253 414.849C29.0394 414.583 28.7956 414.358 28.4612 414.25C28.0242 414.108 27.5312 414.282 27.2546 414.68C26.9944 415.055 27.0177 415.409 27.3304 415.81C27.5174 416.05 27.7487 416.242 28.024 416.365ZM47.5462 419.673C47.2953 419.421 47.065 419.178 46.8861 418.89C46.7849 418.727 46.7345 418.57 46.8385 418.394C46.9449 418.214 47.0988 418.151 47.3102 418.172C47.539 418.196 47.7686 418.213 47.998 418.229L47.999 418.23C48.2067 418.245 48.4143 418.26 48.6215 418.28C48.902 418.307 49.1784 418.281 49.4555 418.255C49.5214 418.248 49.5873 418.242 49.6534 418.237C50.2017 418.191 50.5191 418.397 50.6344 418.855C50.7374 419.264 50.5211 419.652 50.0633 419.855C49.5675 420.074 49.0394 420.138 48.5043 420.126C48.1326 420.119 47.83 419.93 47.5462 419.673ZM27.9354 419.457C28.4959 419.247 28.9368 418.887 29.3315 418.424C29.4233 418.313 29.4723 418.203 29.5044 418.085C29.567 417.853 29.5498 417.634 29.366 417.464C29.1887 417.299 28.9719 417.3 28.7614 417.387C28.1642 417.634 27.5454 417.692 26.9015 417.716C26.2536 417.74 25.8871 418.046 26.213 418.797C26.4347 419.308 27.2078 419.73 27.9354 419.457ZM36.1417 418.298C35.9794 418.228 35.8734 418.135 35.9123 417.97C35.9527 417.798 36.0904 417.747 36.2571 417.75C36.342 417.751 36.4272 417.756 36.5121 417.762C36.7157 417.775 36.9194 417.788 37.1231 417.742C37.4431 417.671 37.4845 417.605 37.3839 417.304C37.2621 416.94 37.4165 416.628 37.778 416.504C37.9506 416.445 38.1288 416.437 38.3043 416.47C38.5567 416.517 38.7623 416.635 38.8375 416.903C38.9088 417.158 38.8083 417.359 38.6298 417.532C38.5854 417.575 38.5378 417.615 38.4859 417.658C38.4609 417.679 38.4349 417.7 38.4079 417.724C38.7409 417.912 39.0701 417.858 39.3995 417.789C39.4241 417.783 39.4483 417.777 39.4724 417.769C39.488 417.765 39.5043 417.759 39.5199 417.754C39.5512 417.744 39.5825 417.734 39.6143 417.726C39.7644 417.688 39.8777 417.745 39.929 417.885C39.9854 418.04 39.9321 418.17 39.7728 418.224C39.1563 418.43 38.5419 418.487 37.977 418.088C37.775 417.945 37.7026 418.022 37.635 418.202C37.5009 418.56 37.2883 418.875 37.077 419.188L37.0237 419.267C36.8417 419.538 36.5306 419.498 36.3706 419.205C36.2664 419.014 36.2322 418.807 36.1971 418.593C36.181 418.495 36.1648 418.397 36.1417 418.298ZM46.57 419.887C46.3642 419.75 46.1589 419.726 45.9142 419.83C45.5939 420.027 45.5453 420.177 45.6877 420.485C45.7939 420.714 45.9261 420.929 46.0992 421.114C46.3828 421.418 46.7159 421.631 47.1491 421.619C47.5855 421.608 47.9775 421.33 48.0268 421.012C48.0761 420.695 47.8738 420.438 47.4164 420.248C47.3585 420.224 47.2996 420.202 47.2404 420.18C47.2087 420.169 47.1769 420.157 47.1452 420.146C46.9461 420.075 46.7471 420.004 46.57 419.887ZM30.3691 420.244C29.9633 420.684 29.5557 421.078 28.9243 421.097C28.661 421.104 28.4441 421.029 28.3136 420.786C28.1221 420.428 28.2458 420.074 28.6342 419.917C28.7088 419.887 28.7838 419.858 28.8587 419.829L28.862 419.827L28.8661 419.826C29.2135 419.692 29.5592 419.558 29.8574 419.314C30.0325 419.172 30.2648 419.143 30.4514 419.315C30.639 419.488 30.5897 419.692 30.5413 419.893C30.5287 419.945 30.5161 419.997 30.5078 420.048C30.5005 420.093 30.4643 420.134 30.4237 420.18C30.4056 420.2 30.3867 420.221 30.3691 420.244ZM34.6686 414.783C34.4724 414.507 34.1683 414.52 33.8151 414.835C33.6179 415.161 33.6255 415.416 33.8246 415.618C34.0049 415.801 34.2613 415.825 34.4916 415.681C34.8147 415.478 34.8902 415.095 34.6686 414.783ZM43.0563 415.532C42.8196 415.742 42.5796 415.783 42.3292 415.61C42.1058 415.457 42.0669 415.232 42.148 414.991C42.2199 414.778 42.3601 414.615 42.6022 414.591C42.8383 414.567 43.0281 414.68 43.1423 414.871C43.2734 415.089 43.2377 415.317 43.0563 415.532ZM36.8671 418.532C36.8792 418.51 36.8918 418.487 36.9101 418.467C36.913 418.46 36.9162 418.453 36.9196 418.446C36.9222 418.441 36.9249 418.436 36.9276 418.432L36.9343 418.42C36.9604 418.374 36.9823 418.336 36.9232 418.309C36.8672 418.285 36.7723 418.269 36.7419 418.327C36.6919 418.423 36.7124 418.531 36.7526 418.632C36.8191 418.617 36.8421 418.576 36.8671 418.532ZM35.7724 434.631C35.8532 434.652 35.9404 434.667 36.0261 434.681C36.222 434.714 36.4102 434.745 36.497 434.856C36.5712 434.95 36.5421 435.123 36.5123 435.299C36.4969 435.391 36.4813 435.483 36.4798 435.566C36.4745 435.849 36.4757 436.132 36.4768 436.413C36.4773 436.532 36.4777 436.65 36.4777 436.768C35.9522 436.666 35.8122 436.786 35.828 437.342C35.8459 437.974 35.7625 438.07 35.1219 438.065L35.0381 438.064C34.6368 438.062 34.2324 438.059 33.8456 437.923C33.6924 437.87 33.576 437.807 33.7226 437.61C33.8188 437.48 33.813 437.307 33.7497 437.151C33.5805 436.733 33.4281 436.309 33.2757 435.885C33.0683 435.307 32.8609 434.73 32.6111 434.169C32.5569 434.047 32.4977 433.928 32.4383 433.808C32.4107 433.752 32.3832 433.697 32.356 433.641C32.4815 433.564 32.5486 433.603 32.6294 433.716C33.169 434.467 33.8424 434.635 34.683 434.234C34.7514 434.201 34.7913 434.19 34.8548 434.239C35.1109 434.436 35.4153 434.526 35.7383 434.621L35.7724 434.631ZM38.4679 434.687C38.9173 434.503 39.3132 434.279 39.58 433.883C39.6436 433.788 39.7 433.763 39.8087 433.814C40.0309 433.919 40.268 433.963 40.5093 433.932C40.4195 434.29 40.3482 434.652 40.2771 435.013C40.1511 435.653 40.0256 436.29 39.7979 436.904C39.7282 437.092 39.7467 437.29 39.7651 437.488C39.7688 437.528 39.7726 437.569 39.7756 437.608C39.7774 437.633 39.779 437.658 39.7801 437.683C39.7954 438.021 39.7145 438.118 39.3772 438.16C38.8161 438.231 38.2824 438.091 37.7511 437.938C37.3289 437.817 37.3289 437.815 37.3234 437.392L37.3231 437.37C37.3157 436.81 37.2995 436.25 37.2784 435.69C37.2728 435.543 37.2928 435.399 37.3128 435.255C37.3246 435.17 37.3365 435.084 37.343 434.998C37.3516 434.883 37.4137 434.883 37.4778 434.883H37.479C37.4919 434.883 37.5048 434.883 37.5174 434.882C37.8352 434.857 38.149 434.815 38.4679 434.687ZM55.7997 429.714C55.9661 429.889 55.9254 430.009 55.7211 430.109V430.069C55.7211 429.934 55.7211 429.806 55.7222 429.679C55.7222 429.676 55.7398 429.67 55.7461 429.673C55.7483 429.674 55.7505 429.675 55.7527 429.676C55.7553 429.677 55.7579 429.679 55.7606 429.681C55.7708 429.688 55.7823 429.698 55.7997 429.714ZM67.0416 420.42C67.2283 420.433 67.4216 420.447 67.6216 420.46C67.8216 420.46 68.015 420.467 68.2016 420.48C68.2683 420.48 68.3416 420.487 68.4216 420.5L68.6616 420.54C68.9283 420.593 69.1416 420.707 69.3016 420.88C69.475 421.04 69.5616 421.26 69.5616 421.54C69.5616 421.727 69.5416 421.94 69.5016 422.18C69.475 422.42 69.375 422.607 69.2016 422.74C69.1216 422.807 69.0416 422.86 68.9616 422.9C68.8816 422.94 68.7883 422.973 68.6816 423C68.4683 423.027 68.2083 423.033 67.9016 423.02C67.595 423.007 67.335 423.007 67.1216 423.02C67.0683 423.02 67.0416 423.053 67.0416 423.12V423.7V424.38V425.06V425.64C67.0683 426.333 67.0683 427.013 67.0416 427.68V427.96C67.0416 428.133 67.035 428.32 67.0216 428.52C67.0216 428.733 67.0083 428.94 66.9816 429.14C66.955 429.34 66.9083 429.527 66.8416 429.7C66.775 429.887 66.6816 430.04 66.5616 430.16C66.4016 430.347 66.1883 430.44 65.9216 430.44L65.8816 430.42C65.5616 430.407 65.3016 430.313 65.1016 430.14C64.915 429.967 64.7683 429.753 64.6616 429.5C64.5683 429.247 64.5083 428.98 64.4816 428.7C64.455 428.433 64.4416 428.193 64.4416 427.98V416.1V415.92C64.4416 415.8 64.455 415.667 64.4816 415.52C64.5083 415.36 64.5483 415.2 64.6016 415.04C64.6683 414.867 64.755 414.727 64.8616 414.62C64.955 414.527 65.0883 414.46 65.2616 414.42C65.4483 414.367 65.615 414.34 65.7616 414.34C66.055 414.34 66.3016 414.44 66.5016 414.64C66.6883 414.827 66.795 415.027 66.8216 415.24C66.8616 415.44 66.895 415.653 66.9216 415.88C66.935 415.933 66.9416 416.013 66.9416 416.12C66.9683 416.347 66.9816 416.58 66.9816 416.82L67.0216 417.54V417.8V418.12C67.035 418.253 67.0416 418.46 67.0416 418.74V419.96V420.42ZM83.5032 422.3C83.2765 422.247 83.0499 422.213 82.8232 422.2C82.5432 422.187 82.2099 422.18 81.8232 422.18H80.6032C80.1765 422.18 79.7499 422.187 79.3232 422.2H78.1232C78.1232 422.04 78.1165 421.82 78.1032 421.54C78.1032 421.247 78.0965 420.98 78.0832 420.74C80.0165 420.673 81.4565 420.407 82.4032 419.94C83.3632 419.46 83.8432 418.667 83.8432 417.56C83.8432 416.96 83.6765 416.46 83.3432 416.06C83.0232 415.647 82.5632 415.32 81.9632 415.08C81.3632 414.827 80.6432 414.647 79.8032 414.54C78.9632 414.433 78.0365 414.38 77.0232 414.38C74.7832 414.393 73.0899 414.653 71.9432 415.16C70.7965 415.667 70.2232 416.467 70.2232 417.56C70.2232 418.6 70.6499 419.36 71.5032 419.84C72.3565 420.32 73.6165 420.607 75.2832 420.7V422.2H74.4232C74.1832 422.187 73.9499 422.18 73.7232 422.18H73.0432C72.8165 422.18 72.5432 422.187 72.2232 422.2C71.9165 422.213 71.6165 422.22 71.3232 422.22C71.0299 422.207 70.7432 422.247 70.4632 422.34C70.2499 422.407 70.0765 422.54 69.9432 422.74C69.8232 422.927 69.7632 423.113 69.7632 423.3C69.7632 423.593 69.9165 423.853 70.2232 424.08C70.4499 424.267 70.7232 424.367 71.0432 424.38C71.3765 424.393 71.6965 424.393 72.0032 424.38L82.6632 424.36H82.8432C82.9632 424.36 83.1032 424.353 83.2632 424.34C83.4232 424.313 83.5832 424.28 83.7432 424.24C83.9165 424.187 84.0565 424.107 84.1632 424C84.2432 423.933 84.3032 423.82 84.3432 423.66C84.3965 423.5 84.4232 423.353 84.4232 423.22C84.4232 422.953 84.3299 422.747 84.1432 422.6C83.9565 422.453 83.7432 422.353 83.5032 422.3ZM83.1432 427.98C83.0632 427.953 83.0165 427.94 83.0032 427.94H75.6632C75.6499 427.94 75.4832 427.947 75.1632 427.96C74.8565 427.973 74.5032 427.98 74.1032 427.98C73.6365 427.98 73.2899 427.973 73.0632 427.96C72.8499 427.933 72.7299 427.913 72.7032 427.9C72.6765 427.807 72.6565 427.707 72.6432 427.6C72.6299 427.48 72.6232 427.367 72.6232 427.26C72.6099 427.113 72.5965 426.953 72.5832 426.78C72.5699 426.593 72.5365 426.42 72.4832 426.26C72.4299 426.1 72.3565 425.96 72.2632 425.84C72.1699 425.707 72.0365 425.613 71.8632 425.56C71.7965 425.533 71.7032 425.52 71.5832 425.52C71.4765 425.507 71.3899 425.5 71.3232 425.5C71.0432 425.5 70.8099 425.587 70.6232 425.76C70.4365 425.933 70.3299 426.16 70.3032 426.44C70.2899 426.587 70.2832 426.773 70.2832 427C70.2832 427.213 70.2899 427.393 70.3032 427.54V429.32C70.3032 429.627 70.4499 429.86 70.7432 430.02C71.0365 430.193 71.4365 430.28 71.9432 430.28H82.8632C82.87 430.28 82.898 430.275 82.9472 430.264L83.012 430.25C83.049 430.242 83.0927 430.232 83.1432 430.22C83.3165 430.18 83.4765 430.067 83.6232 429.88C83.8632 429.6 83.9432 429.207 83.8632 428.7C83.8365 428.567 83.7765 428.447 83.6832 428.34C83.6032 428.247 83.5099 428.167 83.4032 428.1C83.3099 428.047 83.2232 428.007 83.1432 427.98ZM80.8032 417C81.0032 417.16 81.1032 417.347 81.1032 417.56C81.1032 417.8 80.9765 418 80.7232 418.16C80.4832 418.307 80.1632 418.427 79.7632 418.52C79.3632 418.6 78.9165 418.66 78.4232 418.7C77.9432 418.727 77.4632 418.74 76.9832 418.74C75.7299 418.753 74.7632 418.653 74.0832 418.44C73.4165 418.227 73.0832 417.933 73.0832 417.56C73.0832 416.707 74.3965 416.28 77.0232 416.28C77.6232 416.28 78.1699 416.307 78.6632 416.36C79.1699 416.413 79.6032 416.493 79.9632 416.6C80.3232 416.707 80.6032 416.84 80.8032 417ZM101.252 427.78C101.252 428.113 101.239 428.38 101.212 428.58C101.199 428.78 101.139 429.033 101.032 429.34C100.965 429.54 100.852 429.707 100.692 429.84C100.532 429.973 100.305 430.04 100.012 430.04C99.9319 430.04 99.8319 430.027 99.7119 430C99.5919 429.987 99.4986 429.953 99.4319 429.9C99.2986 429.82 99.1919 429.687 99.1119 429.5C99.0453 429.327 98.9919 429.14 98.9519 428.94C98.9119 428.74 98.8853 428.547 98.8719 428.36V427.92V422.78L96.7519 422.72C96.6319 422.72 96.5053 422.707 96.3719 422.68C96.2519 422.64 96.1319 422.587 96.0119 422.52C95.9053 422.44 95.8119 422.34 95.7319 422.22C95.6519 422.087 95.6053 421.92 95.5919 421.72C95.5653 421.48 95.5786 421.227 95.6319 420.96C95.6986 420.68 95.8853 420.467 96.1919 420.32C96.3119 420.253 96.4586 420.213 96.6319 420.2C96.8186 420.187 96.9786 420.187 97.1119 420.2H98.8719V416.28V415.76C98.8719 415.573 98.8919 415.393 98.9319 415.22C98.9586 415.153 98.9786 415.093 98.9919 415.04C99.0186 414.987 99.0453 414.927 99.0719 414.86C99.1519 414.727 99.2319 414.627 99.3119 414.56C99.3919 414.48 99.5053 414.413 99.6519 414.36C99.7186 414.333 99.7853 414.32 99.8519 414.32C99.9319 414.307 100.005 414.3 100.072 414.3C100.512 414.3 100.845 414.5 101.072 414.9C101.125 414.98 101.159 415.093 101.172 415.24C101.199 415.387 101.219 415.54 101.232 415.7C101.245 415.847 101.252 415.98 101.252 416.1V416.3V427.78ZM104.772 429.48C104.692 429.653 104.565 429.8 104.392 429.92C104.245 430.013 104.085 430.067 103.912 430.08C103.739 430.107 103.565 430.1 103.392 430.06C103.192 430.02 103.025 429.933 102.892 429.8C102.772 429.68 102.679 429.54 102.612 429.38C102.545 429.22 102.499 429.047 102.472 428.86C102.445 428.673 102.432 428.493 102.432 428.32V416.56V416.06C102.432 415.86 102.445 415.673 102.472 415.5C102.499 415.313 102.532 415.14 102.572 414.98C102.625 414.82 102.699 414.693 102.792 414.6C102.939 414.467 103.092 414.387 103.252 414.36C103.412 414.32 103.585 414.3 103.772 414.3C103.999 414.3 104.205 414.367 104.392 414.5C104.579 414.62 104.712 414.787 104.792 415C104.912 415.28 104.979 415.567 104.992 415.86C105.005 416.153 105.019 416.453 105.032 416.76C105.045 417.12 105.052 417.473 105.052 417.82V418.98V420.38C105.052 420.9 105.045 421.507 105.032 422.2V424.54V427.58C105.032 427.927 105.019 428.26 104.992 428.58C104.979 428.9 104.905 429.2 104.772 429.48ZM94.1119 429.04C93.8453 429.04 93.5853 429.027 93.3319 429C93.0919 428.973 92.8386 428.953 92.5719 428.94C92.3719 428.927 92.1653 428.887 91.9519 428.82C91.7386 428.767 91.5586 428.667 91.4119 428.52C91.2653 428.373 91.1519 428.247 91.0719 428.14C91.0053 428.033 90.9519 427.887 90.9119 427.7C90.8319 427.273 90.7986 426.833 90.8119 426.38C90.8253 425.927 90.8319 425.48 90.8319 425.04V423.4V422.94V421.76C90.8319 421.28 90.8253 420.753 90.8119 420.18V418.54V417.14C90.8119 416.727 90.8186 416.447 90.8319 416.3C90.8453 416.033 90.9053 415.76 91.0119 415.48C91.1186 415.187 91.3453 414.967 91.6919 414.82C91.8386 414.767 91.9919 414.727 92.1519 414.7C92.3119 414.673 92.4719 414.68 92.6319 414.72C92.7919 414.76 92.9386 414.833 93.0719 414.94C93.2186 415.033 93.3253 415.167 93.3919 415.34C93.4719 415.527 93.5253 415.727 93.5519 415.94C93.5919 416.14 93.6119 416.353 93.6119 416.58C93.6119 416.727 93.6053 416.94 93.5919 417.22V417.86V419.6C93.5919 420.32 93.5853 421.073 93.5719 421.86V424.12C93.5719 424.84 93.5853 425.413 93.6119 425.84C93.6119 425.933 93.6186 426.027 93.6319 426.12C93.6453 426.213 93.6853 426.293 93.7519 426.36C93.8319 426.427 93.9253 426.467 94.0319 426.48H94.3719C94.7453 426.507 95.0319 426.527 95.2319 426.54H95.6919C95.8119 426.54 95.9119 426.547 95.9919 426.56C96.0853 426.573 96.2119 426.587 96.3719 426.6C96.5986 426.627 96.8319 426.66 97.0719 426.7C97.3253 426.727 97.5519 426.807 97.7519 426.94C97.8586 427.007 97.9319 427.1 97.9719 427.22C98.0253 427.327 98.0586 427.44 98.0719 427.56C98.0853 427.627 98.0919 427.693 98.0919 427.76V427.94C98.0786 428.087 98.0453 428.193 97.9919 428.26C97.9519 428.34 97.8786 428.433 97.7719 428.54C97.5853 428.74 97.3386 428.873 97.0319 428.94L96.4719 429.02C96.2986 429.047 96.1186 429.06 95.9319 429.06C95.8964 429.06 95.8457 429.058 95.7798 429.054C95.7461 429.052 95.7085 429.05 95.667 429.047C95.6373 429.045 95.6056 429.043 95.5719 429.04H95.0119H94.4519H94.1119ZM113.523 417C113.99 416.96 114.443 416.94 114.883 416.94C115.323 416.967 115.757 416.987 116.183 417C116.623 417.013 117.057 417.027 117.483 417.04C117.51 417.307 117.523 417.567 117.523 417.82V418.58C117.23 418.567 116.91 418.56 116.563 418.56H115.663C114.837 418.56 114.057 418.58 113.323 418.62C113.203 418.633 113.097 418.653 113.003 418.68C112.967 418.686 112.927 418.692 112.885 418.698C112.864 418.701 112.842 418.705 112.819 418.708C112.788 418.712 112.756 418.716 112.723 418.72L112.403 418.8C112.31 418.827 112.217 418.913 112.123 419.06C112.03 419.207 111.983 419.407 111.983 419.66C111.983 419.913 112.023 420.12 112.103 420.28C112.157 420.373 112.223 420.447 112.303 420.5C112.383 420.54 112.457 420.573 112.523 420.6C112.603 420.613 112.67 420.62 112.723 420.62H112.823H117.523C117.523 420.847 117.517 421.053 117.503 421.24C117.49 421.413 117.49 421.587 117.503 421.76C117.53 421.92 117.57 422.087 117.623 422.26C117.677 422.42 117.763 422.6 117.883 422.8C118.003 422.987 118.157 423.12 118.343 423.2C118.53 423.267 118.723 423.287 118.923 423.26C119.137 423.233 119.337 423.16 119.523 423.04C119.71 422.92 119.857 422.767 119.963 422.58C120.15 422.26 120.237 421.94 120.223 421.62C120.21 421.3 120.217 420.953 120.243 420.58L120.223 416.4C120.223 416.173 120.203 415.947 120.163 415.72C120.137 415.493 120.063 415.28 119.943 415.08C119.877 414.96 119.79 414.86 119.683 414.78C119.577 414.7 119.463 414.627 119.343 414.56C119.277 414.533 119.203 414.507 119.123 414.48C119.07 414.453 119.017 414.44 118.963 414.44H118.783C118.71 414.432 118.636 414.426 118.563 414.423C118.538 414.422 118.514 414.421 118.489 414.421C118.467 414.42 118.445 414.42 118.423 414.42H118.063H117.723C117.681 414.415 117.64 414.412 117.598 414.408C117.557 414.406 117.516 414.403 117.475 414.402C117.438 414.401 117.401 414.4 117.363 414.4H116.803C116.723 414.387 116.643 414.387 116.563 414.4H116.323H115.123H114.483C114.243 414.387 114.03 414.38 113.843 414.38C113.55 414.393 113.303 414.407 113.103 414.42C112.917 414.42 112.683 414.46 112.403 414.54C112.177 414.607 111.957 414.713 111.743 414.86C111.53 415.007 111.417 415.233 111.403 415.54C111.403 415.873 111.457 416.187 111.563 416.48C111.683 416.76 111.857 416.913 112.083 416.94C112.577 417.007 113.057 417.027 113.523 417ZM123.743 426.86C123.263 426.513 122.777 426.167 122.283 425.82L120.503 424.46C120.357 424.353 120.217 424.233 120.083 424.1C119.95 423.967 119.79 423.873 119.603 423.82C119.483 423.793 119.363 423.8 119.243 423.84C119.123 423.88 119.003 423.94 118.883 424.02C118.763 424.087 118.65 424.167 118.543 424.26C118.437 424.34 118.343 424.413 118.263 424.48C118.037 424.667 117.81 424.827 117.583 424.96C117.357 425.08 117.13 425.227 116.903 425.4C116.383 425.773 115.83 426.173 115.243 426.6C114.657 427.013 114.11 427.413 113.603 427.8C113.443 427.933 113.243 428.087 113.003 428.26C112.777 428.433 112.63 428.633 112.563 428.86C112.497 429.087 112.51 429.307 112.603 429.52C112.697 429.733 112.85 429.893 113.063 430C113.223 430.08 113.397 430.12 113.583 430.12C113.783 430.133 113.977 430.113 114.163 430.06C114.35 430.02 114.537 429.96 114.723 429.88C114.91 429.8 115.077 429.72 115.223 429.64C115.61 429.44 116.003 429.187 116.403 428.88C116.817 428.587 117.197 428.293 117.543 428C117.663 427.893 117.803 427.773 117.963 427.64C118.137 427.507 118.297 427.387 118.443 427.28C118.577 427.173 118.697 427.087 118.803 427.02C118.91 426.953 119.057 426.913 119.243 426.9C119.457 426.873 119.643 426.927 119.803 427.06C119.963 427.193 120.117 427.313 120.263 427.42C120.477 427.567 120.69 427.727 120.903 427.9C121.117 428.06 121.337 428.213 121.563 428.36C122.017 428.667 122.47 428.96 122.923 429.24C123.377 429.52 123.85 429.773 124.343 430C124.583 430.107 124.81 430.173 125.023 430.2C125.237 430.227 125.457 430.147 125.683 429.96C125.83 429.84 125.943 429.68 126.023 429.48C126.117 429.28 126.143 429.087 126.103 428.9C126.063 428.673 125.937 428.487 125.723 428.34C125.51 428.207 125.323 428.073 125.163 427.94C124.697 427.567 124.223 427.207 123.743 426.86ZM121.783 419.9C122.09 419.913 122.437 419.933 122.823 419.96H123.303V421.98C123.317 422.127 123.337 422.273 123.363 422.42C123.39 422.567 123.443 422.713 123.523 422.86C123.59 423.02 123.703 423.153 123.863 423.26C124.077 423.407 124.297 423.48 124.523 423.48C124.71 423.48 124.897 423.427 125.083 423.32C125.217 423.24 125.323 423.14 125.403 423.02C125.483 422.9 125.543 422.787 125.583 422.68C125.623 422.56 125.65 422.46 125.663 422.38C125.677 422.3 125.683 422.253 125.683 422.24H125.703V415.72C125.703 415.667 125.69 415.527 125.663 415.3C125.65 415.06 125.603 414.86 125.523 414.7C125.403 414.433 125.13 414.267 124.703 414.2C124.477 414.173 124.263 414.187 124.063 414.24C123.877 414.293 123.73 414.387 123.623 414.52C123.53 414.627 123.47 414.727 123.443 414.82C123.417 414.913 123.39 415.013 123.363 415.12C123.323 415.267 123.297 415.413 123.283 415.56C123.283 415.707 123.29 415.853 123.303 416V417.72C123.292 417.72 123.279 417.72 123.264 417.721C123.244 417.722 123.221 417.723 123.195 417.725C123.144 417.728 123.08 417.733 123.003 417.74C122.857 417.74 122.697 417.747 122.523 417.76C122.363 417.773 122.21 417.787 122.063 417.8C121.917 417.8 121.817 417.807 121.763 417.82C121.497 417.887 121.31 417.973 121.203 418.08C121.097 418.173 121.023 418.293 120.983 418.44C120.957 418.587 120.943 418.76 120.943 418.96C120.943 419.16 120.983 419.327 121.063 419.46C121.237 419.727 121.477 419.873 121.783 419.9Z" fill="white"/>
</svg>
