<svg width="150" height="450" viewBox="0 0 150 450" fill="none" xmlns="http://www.w3.org/2000/svg">
<path fill-rule="evenodd" clip-rule="evenodd" d="M38.4277 405.9C38.4594 405.937 38.4313 406.025 38.3733 406.208L38.3722 406.211C38.3656 406.235 38.3589 406.257 38.3527 406.277C38.3394 406.321 38.3282 406.358 38.3245 406.395C38.2996 406.65 38.1994 406.776 37.9056 406.772C37.6108 406.769 37.3087 406.832 37.0366 406.969C36.7857 407.096 36.5551 407.262 36.5719 407.577C36.5891 407.898 36.8459 408.027 37.1138 408.108C37.2825 408.159 37.461 408.192 37.6369 408.202C37.8262 408.213 37.8921 408.281 37.8361 408.464C37.8117 408.544 37.7905 408.627 37.7822 408.71C37.7647 408.884 37.6837 408.961 37.4998 408.971C37.2476 408.985 37.0022 409.052 36.7664 409.148C36.5429 409.239 36.3737 409.372 36.3819 409.64C36.3897 409.898 36.5743 410.002 36.7785 410.096C36.8744 410.139 36.9911 410.149 37.1043 410.159C37.2772 410.174 37.442 410.188 37.5119 410.321C37.5839 410.458 37.564 410.641 37.5438 410.827C37.5331 410.926 37.5222 411.026 37.5252 411.12C37.538 411.523 37.7262 411.785 38.0228 411.846C38.2946 411.901 38.5731 411.731 38.7577 411.393C38.9059 411.12 39.0128 410.831 39.0885 410.532C39.1331 410.356 39.2232 410.298 39.4043 410.305C39.6651 410.316 39.9293 410.311 40.1837 410.235C40.386 410.174 40.5281 410.052 40.5675 409.833C40.605 409.625 40.508 409.472 40.3614 409.343C40.2322 409.228 40.0744 409.147 39.9107 409.126C39.5771 409.084 39.5815 408.932 39.6706 408.659C39.7407 408.445 39.8196 408.364 40.0501 408.367C40.4232 408.371 40.7991 408.353 41.1659 408.267C41.4353 408.203 41.6827 408.088 41.7048 407.777C41.7264 407.472 41.5096 407.31 41.2561 407.199C40.9722 407.074 40.6755 406.981 40.3698 406.941C40.1546 406.912 40.1419 406.827 40.202 406.649C40.2705 406.446 40.3216 406.235 40.3576 406.024C40.382 405.881 40.4391 405.841 40.5802 405.857C40.9425 405.901 41.3061 405.934 41.6697 405.966C42.0355 405.999 42.3916 406.063 42.7233 406.232L42.7375 406.239C42.7885 406.265 42.8292 406.285 42.864 406.346C43.0818 406.724 43.3605 406.742 43.621 406.391C44.2896 405.493 45.1497 404.838 46.1594 404.366C46.4531 404.228 46.6737 404.162 46.9883 404.425C47.5271 404.875 48.1036 405.28 48.6797 405.685C48.8463 405.802 49.0131 405.92 49.1787 406.038C49.3352 406.149 49.3479 406.212 49.1952 406.341C49.0043 406.503 48.8252 406.678 48.6461 406.853C48.5911 406.907 48.536 406.961 48.4807 407.015C48.2533 407.234 48.2207 407.444 48.3805 407.626C48.5481 407.817 48.7787 407.81 49.0188 407.591C49.3089 407.326 49.5928 407.055 49.8746 406.781C49.9729 406.686 50.0471 406.65 50.1799 406.747C50.9235 407.29 51.6721 407.828 52.4206 408.365L52.8419 408.667C52.9634 408.754 53.0446 408.856 53.0269 409.017C52.9689 409.547 52.8569 410.05 52.3968 410.397C52.2574 410.503 52.2014 410.652 52.2562 410.821C52.314 410.999 52.4491 411.098 52.6365 411.098C52.8044 411.098 52.9773 411.098 53.1393 411.061C53.8451 410.897 54.4444 411.609 54.4393 412.2C54.4349 412.704 54.292 413.155 54.0438 413.584C53.7725 414.052 53.4258 414.463 53.0784 414.875L53.0526 414.905C52.8238 415.176 52.8433 415.488 53.1333 415.609C53.3998 415.72 53.3652 415.854 53.2868 416.057C53.1186 416.493 53.2182 416.685 53.6677 416.791C54.0456 416.881 54.2315 417.133 54.3014 417.492C54.3394 417.687 54.3278 417.886 54.2848 418.078C54.2135 418.396 54.1372 418.712 54.061 419.029C54.0192 419.202 53.9774 419.376 53.9364 419.549C53.8237 420.027 53.5706 420.399 53.1404 420.651C52.9414 420.768 52.8912 420.963 52.9911 421.161C53.0887 421.355 53.261 421.446 53.4842 421.353C53.5695 421.318 53.6568 421.279 53.7298 421.224C54.1506 420.906 54.4691 420.51 54.6308 420.003C54.8326 419.37 54.9951 418.723 55.0819 418.067C55.1867 417.274 54.9991 416.574 54.2308 416.155C54.1215 416.095 54.134 416.02 54.1482 415.934L54.1506 415.92C54.1862 415.7 54.1736 415.479 54.0317 415.304C53.9077 415.151 53.9545 415.059 54.0628 414.928C54.5228 414.369 54.9181 413.773 55.1228 413.065C55.5518 411.583 54.698 410.446 53.6587 410.279C53.527 410.258 53.5401 410.194 53.5799 410.106C53.6842 409.874 53.7492 409.63 53.7868 409.38C54.1591 406.909 53.0341 404.675 50.8286 403.495C49.7455 402.915 48.5999 402.914 47.4381 403.14C45.8147 403.457 44.4532 404.247 43.3404 405.468C43.3279 405.482 43.3169 405.499 43.3059 405.516C43.266 405.579 43.2249 405.642 43.1069 405.558C42.8272 405.357 42.4939 405.281 42.159 405.236C41.806 405.189 41.4514 405.152 41.0969 405.116L40.8483 405.09C39.3908 404.938 37.9512 404.995 36.5476 405.463C35.7463 405.73 34.9921 406.102 34.2513 406.502C34.0277 406.623 33.9604 406.845 34.0661 407.046C34.1736 407.252 34.3785 407.31 34.6192 407.2C34.6791 407.172 34.737 407.141 34.7949 407.109C34.8272 407.091 34.8596 407.073 34.8923 407.056C35.925 406.52 36.9804 406.048 38.1508 405.897L38.1578 405.896C38.3162 405.876 38.398 405.866 38.4277 405.9ZM25.5604 436.296C24.5479 436.358 23.8574 435.894 23.5508 434.925C23.6206 434.908 23.6315 434.942 23.6422 434.978C23.6468 434.993 23.6514 435.008 23.6609 435.02C23.6951 435.06 23.726 435.106 23.7569 435.153C23.8742 435.328 23.9915 435.504 24.2856 435.358C24.3321 435.334 24.3466 435.366 24.3618 435.399C24.3665 435.409 24.3713 435.419 24.377 435.428C24.7 435.922 25.1575 436.07 25.703 435.851C26.0059 435.73 26.241 435.538 26.2747 435.188C26.3085 434.839 26.1557 434.575 25.8643 434.385C25.8505 434.376 25.8355 434.368 25.8204 434.361C25.7789 434.34 25.7368 434.319 25.7204 434.268C25.9777 434.075 26.0366 433.885 25.9035 433.681C25.7782 433.488 25.4859 433.4 25.3132 433.503C25.1155 433.621 25.125 433.761 25.3677 434.183C25.3099 434.189 25.2518 434.189 25.1936 434.188C25.0826 434.188 24.9714 434.187 24.8623 434.233L24.8483 434.234C24.8551 434.231 24.8623 434.229 24.8698 434.227C24.8651 434.213 24.8599 434.201 24.8551 434.19C24.8451 434.166 24.8376 434.148 24.843 434.136C24.963 433.871 24.7983 433.731 24.6018 433.63C24.3773 433.514 24.2575 433.688 24.1584 433.845C23.9914 434.11 24.1203 434.354 24.4418 434.401C24.4549 434.403 24.4686 434.403 24.4823 434.404C24.5179 434.404 24.5537 434.404 24.5799 434.435C24.5733 434.448 24.5669 434.461 24.5606 434.474C24.4819 434.599 24.4207 434.711 24.3581 434.825C23.9544 434.415 23.8654 434.421 23.5561 434.865C23.5554 434.866 23.5537 434.867 23.5513 434.867C23.5486 434.867 23.5451 434.868 23.5415 434.869C23.5388 434.86 23.5358 434.85 23.5332 434.837C23.4321 433.897 24.0974 433.31 24.8759 433.228C25.0232 433.212 25.1692 433.169 25.3113 433.124C25.7189 432.996 25.8394 432.836 25.8362 432.408C25.8353 432.296 25.8315 432.183 25.8276 432.07C25.8187 431.809 25.8097 431.548 25.8382 431.288C25.9164 430.571 26.0736 429.886 26.6378 429.371C26.7103 429.305 26.7729 429.208 26.744 429.123C26.709 429.02 26.6933 428.914 26.6776 428.807C26.6493 428.615 26.6209 428.422 26.4788 428.244C25.9681 427.604 25.8184 426.894 26.272 426.14C26.3937 425.938 26.3853 425.729 26.2596 425.53L26.2465 425.509C26.1761 425.397 26.1048 425.284 26.0177 425.186C25.5467 424.656 25.698 424.076 25.8721 423.493C25.8954 423.415 25.9547 423.368 26.0148 423.32L26.0332 423.305C26.4309 422.983 26.4191 422.69 25.9985 422.385C25.5892 422.088 25.1907 421.777 24.8258 421.428C24.236 420.864 23.7463 420.235 23.6247 419.392C23.5506 418.879 23.694 418.412 23.9333 417.967C24.1091 417.64 24.3865 417.469 24.7508 417.391C24.984 417.34 25.0976 417.098 25.0105 416.881C24.6711 416.035 25.2102 415.341 26.035 415.446C26.0436 415.447 26.0524 415.447 26.0611 415.446L26.0631 415.446C26.5 415.416 26.6944 415.138 26.5621 414.718C26.4416 414.336 26.4394 413.953 26.6243 413.6C26.8327 413.202 26.7318 412.903 26.4447 412.593C25.9125 412.019 25.4834 411.383 25.2982 410.601C25.2223 410.28 25.3016 410.046 25.5089 409.813C26.1609 409.079 26.9184 408.465 27.6763 407.85C27.7899 407.758 27.9036 407.666 28.017 407.573C28.1311 407.48 28.1831 407.512 28.2525 407.62C28.3938 407.84 28.5393 408.059 28.6982 408.267C28.8447 408.458 29.067 408.489 29.2425 408.352C29.4205 408.213 29.4668 408.035 29.3509 407.832C29.3126 407.765 29.2683 407.702 29.224 407.638C29.2093 407.617 29.1947 407.596 29.1802 407.575C28.9812 407.284 28.8826 407.14 28.9062 407.021C28.9293 406.905 29.068 406.811 29.3417 406.627L29.3858 406.598C29.7729 406.337 30.1907 406.135 30.6083 405.933C30.9648 405.761 31.3212 405.589 31.6582 405.381C31.7681 405.312 31.8584 405.364 31.9456 405.415C32.408 405.682 32.8577 405.961 33.1421 406.442C33.2459 406.617 33.4237 406.689 33.6282 406.594C33.8387 406.497 33.903 406.321 33.8501 406.106C33.809 405.939 33.7004 405.805 33.5849 405.682C33.0906 405.156 32.5188 404.746 31.8277 404.515C30.8262 404.181 29.8178 404.279 28.8043 404.453C25.9532 404.943 24.069 407.93 24.4853 410.537C24.6388 411.498 25.1184 412.284 25.742 412.999C25.8638 413.139 25.9177 413.254 25.8355 413.441C25.6946 413.763 25.6517 414.11 25.7046 414.458C25.73 414.625 25.664 414.655 25.5241 414.688C24.5322 414.924 24.0712 415.549 24.1243 416.579C24.1297 416.683 24.1204 416.751 24.0169 416.806C23.3998 417.134 23.1037 417.702 22.9292 418.338C22.5815 419.605 23.0593 420.645 23.8717 421.58C24.2473 422.013 24.6832 422.381 25.1392 422.725C25.2577 422.815 25.2892 422.869 25.2203 423.034C24.8401 423.946 24.6966 424.855 25.4108 425.692C25.5059 425.804 25.4921 425.893 25.4394 426.017C25.2269 426.518 25.1265 427.036 25.2741 427.575C25.3911 428.003 25.5772 428.399 25.8525 428.749C25.9239 428.84 25.9623 428.899 25.8725 429.008C25.2058 429.818 25.0321 430.781 25.0281 431.793L25.0281 431.798C25.0258 432.388 25.0258 432.388 24.4411 432.504C23.6809 432.654 22.9492 433.352 22.8011 434.067C22.5369 435.342 23.0903 436.418 24.3135 436.88C25.5196 437.337 26.6839 437.074 27.8109 436.552C27.8399 436.539 27.8671 436.52 27.8944 436.502C27.96 436.457 28.0255 436.413 28.1148 436.44C28.4804 436.55 28.8551 436.618 29.2298 436.686C29.5818 436.749 29.9339 436.813 30.2785 436.912C31.1867 437.173 32.0969 437.43 33.0544 437.432C33.0989 437.432 33.151 437.442 33.1867 437.466C33.8167 437.89 34.5285 437.868 35.2312 437.847C35.2833 437.845 35.3354 437.844 35.3874 437.842C35.8804 437.829 36.3518 437.699 36.5572 437.099C36.6929 437.446 36.9327 437.562 37.2234 437.617C37.3287 437.638 37.4317 437.669 37.5348 437.701C37.6016 437.722 37.6685 437.743 37.736 437.76C38.2909 437.904 38.8505 438.009 39.4286 437.951C40.2371 437.869 40.6468 437.368 40.5673 436.56L40.5665 436.553C40.5476 436.361 40.5289 436.171 40.6 435.98C40.7793 435.497 40.8945 434.995 40.9988 434.492C41.0246 434.368 41.0428 434.241 41.0609 434.114C41.0905 433.907 41.1201 433.7 41.1832 433.503L41.1883 433.487C41.3283 433.051 41.3389 433.018 40.9853 432.761C41.1653 432.594 41.2623 432.399 41.1037 432.174C40.9419 431.944 40.7198 431.97 40.5047 432.088C40.364 432.165 40.2376 432.148 40.105 432.084C40.0582 432.062 40.0118 432.039 39.9654 432.015C39.8616 431.963 39.7576 431.91 39.649 431.871C39.3998 431.78 39.1303 431.866 39.063 432.102C38.8734 432.766 38.3306 432.95 37.7646 433.052C36.9668 433.197 36.2073 432.974 35.4676 432.687C35.3566 432.644 35.2956 432.564 35.2421 432.455C35.0751 432.118 34.8062 432.074 34.516 432.322C34.4592 432.371 34.4027 432.42 34.3525 432.476C34.1822 432.663 33.9715 432.716 33.7403 432.634C33.5049 432.551 33.3172 432.421 33.2782 432.133C33.2305 431.782 33.0283 431.665 32.6762 431.746C32.3556 431.819 32.0377 431.867 31.7067 431.78C30.364 431.426 29.5621 430.172 29.7952 428.802C29.9159 428.092 30.2778 427.624 31.0045 427.473C31.231 427.426 31.345 427.272 31.3197 427.047C31.2945 426.821 31.1463 426.697 30.9193 426.694C30.8091 426.692 30.6917 426.708 30.589 426.747C29.8994 427.005 29.3789 427.437 29.1388 428.161C28.5781 429.854 29.3398 431.605 30.9652 432.353C31.0162 432.376 31.0722 432.395 31.1284 432.414C31.3373 432.483 31.5494 432.554 31.5233 432.876C31.522 432.893 31.5399 432.911 31.5565 432.928C31.5615 432.934 31.5665 432.939 31.5707 432.944C31.7237 433.121 31.8147 433.331 31.906 433.542C31.9188 433.571 31.9315 433.601 31.9444 433.63C32.167 434.135 32.352 434.655 32.537 435.174C32.6526 435.499 32.7683 435.824 32.8931 436.145C32.9946 436.406 32.8141 436.638 32.5332 436.61L32.4901 436.605C32.3833 436.595 32.276 436.584 32.172 436.561C30.8976 436.268 29.6232 435.974 28.3505 435.674C28.0937 435.614 27.838 435.591 27.6183 435.743C26.9953 436.173 26.2833 436.252 25.5604 436.296ZM46.6496 435.331C46.4601 435.286 46.2758 435.221 46.2473 434.986C46.2261 434.811 46.2879 434.662 46.4838 434.584C46.5043 434.584 46.5205 434.584 46.5361 434.584C46.555 434.578 46.5778 434.576 46.6049 434.579C46.6038 434.582 46.6027 434.585 46.6015 434.588C46.9568 434.695 47.0114 434.825 46.8586 435.142C46.8531 435.153 46.8425 435.162 46.8318 435.171C46.8091 435.191 46.7862 435.21 46.8114 435.251C46.8441 435.305 46.8817 435.292 46.9199 435.278C46.9321 435.274 46.9443 435.27 46.9565 435.267L47.0032 435.259C47.0704 435.246 47.1378 435.234 47.2056 435.228C47.254 435.223 47.3029 435.224 47.3648 435.225H47.3659L47.4175 435.226L47.4445 435.226L47.4714 435.226C47.2896 435.012 47.1757 434.81 47.4602 434.641C47.7049 434.496 47.9832 434.541 48.1164 434.737C48.2655 434.956 48.1918 435.16 47.867 435.393C48.1284 435.552 48.2746 435.792 48.3543 436.074C48.4264 436.328 48.3587 436.55 48.1256 436.678C47.62 436.955 47.0895 436.99 46.5625 436.745C46.2811 436.615 46.1229 436.376 46.1085 436.02C45.8672 436.154 45.6599 436.079 45.4682 435.924C45.3661 436.325 45.4667 436.605 45.8022 436.819C46.4838 437.255 47.2319 437.281 47.9959 437.134C49.1883 436.905 50.2667 436.389 51.2918 435.761C53.6408 434.321 54.7628 432.191 54.9158 429.466C55.0077 427.828 54.445 426.386 53.8172 424.944C53.6231 424.499 53.4095 424.062 53.1959 423.625C53.1348 423.5 53.0735 423.374 53.0128 423.249C52.9438 423.106 52.8533 422.976 52.7491 422.854C52.5828 422.658 52.5963 422.43 52.7659 422.279C52.9389 422.125 53.1985 422.141 53.364 422.339C53.6534 422.687 53.8402 423.096 54.0265 423.505L54.027 423.506C54.1586 423.794 54.291 424.082 54.4254 424.374L54.6051 424.765C54.7094 424.712 54.7337 424.626 54.7567 424.545C54.7602 424.533 54.7636 424.521 54.7673 424.509C55.0369 423.637 55.1779 422.745 55.199 421.834L55.2014 421.723C55.21 421.321 55.2186 420.92 55.3108 420.524C55.6672 418.993 57.066 418.313 58.4972 418.979C59.7267 419.552 60.3892 420.834 60.2438 422.268C60.1466 423.226 59.7713 424.083 59.3949 424.943C59.345 425.057 59.295 425.171 59.2457 425.285C58.526 426.954 57.4543 428.386 56.2552 429.733C56.2125 429.781 56.1727 429.832 56.1329 429.883C56.0191 430.03 55.9045 430.178 55.7169 430.252C55.6477 430.28 55.6496 430.345 55.6515 430.408C55.6523 430.433 55.653 430.458 55.6493 430.48C55.2914 432.616 54.3627 434.462 52.6449 435.796C51.1955 436.922 49.5607 437.747 47.6937 437.967C46.7317 438.081 45.8265 437.914 45.0708 437.247C44.9989 437.184 44.9273 437.168 44.8404 437.185C44.8092 437.191 44.7772 437.195 44.7451 437.2C44.6737 437.209 44.6021 437.219 44.5402 437.249C43.6479 437.675 42.7124 437.663 41.7634 437.538C41.6815 437.527 41.5988 437.523 41.516 437.519C41.4491 437.516 41.3821 437.513 41.3157 437.506C41.0785 437.481 40.9241 437.318 40.9407 437.101C40.9584 436.871 41.096 436.731 41.3212 436.73C41.6386 436.729 41.9598 436.738 42.2729 436.785C42.951 436.888 43.5831 436.764 44.2226 436.534C44.5441 436.418 44.6732 436.308 44.6419 435.951C44.6054 435.533 44.7796 435.145 45 434.79C45.2727 434.351 45.6184 433.969 45.9739 433.598C46.0371 433.531 46.1175 433.476 46.1999 433.435C46.4245 433.324 46.6591 433.386 46.7595 433.585C46.8691 433.802 46.7965 433.97 46.6126 434.123C46.2074 434.459 45.8815 434.866 45.615 435.319C45.6037 435.338 45.5998 435.362 45.595 435.391L45.5908 435.416C45.5891 435.425 45.5873 435.434 45.585 435.444C45.8492 435.397 46.0683 435.437 46.1851 435.719C46.213 435.691 46.2397 435.663 46.2662 435.634C46.364 435.53 46.4596 435.428 46.6047 435.371C46.6251 435.362 46.6315 435.354 46.6428 435.339L46.6496 435.331ZM47.3567 414.388C46.7652 414.433 46.5835 414.727 46.8205 415.288C47.1737 415.717 47.5735 416.057 48.1045 416.18C49.2778 416.452 50.4118 416.333 51.4676 415.735C51.9663 415.453 52.2743 415.007 52.3174 414.423C52.3593 413.855 52.1653 413.37 51.6982 413.026C51.244 412.692 50.7603 412.721 50.2659 412.952C49.8991 413.123 49.5989 413.37 49.3799 413.705C49.1239 414.097 48.7545 414.268 48.308 414.341C48.1164 414.373 47.925 414.374 47.7339 414.376C47.608 414.377 47.4823 414.378 47.3567 414.388ZM30.7315 415.466C29.7993 415.852 28.9034 415.76 28.024 415.365C27.7487 415.242 27.5174 415.05 27.3304 414.81C27.0177 414.409 26.9944 414.055 27.2546 413.68C27.5312 413.282 28.0242 413.108 28.4612 413.25C28.7956 413.358 29.0394 413.583 29.253 413.849C29.2647 413.863 29.2759 413.878 29.285 413.895C29.5717 414.403 30.0014 414.565 30.5612 414.431C30.6774 414.404 30.803 414.394 30.9221 414.404C31.1124 414.419 31.2601 414.513 31.3203 414.705C31.376 414.883 31.3223 415.036 31.1922 415.164C31.0642 415.291 30.9121 415.381 30.7315 415.466ZM46.8861 417.89C47.065 418.178 47.2953 418.421 47.5462 418.673C47.83 418.93 48.1327 419.119 48.5043 419.126C49.0394 419.138 49.5675 419.074 50.0633 418.855C50.5211 418.652 50.7374 418.264 50.6344 417.855C50.5191 417.397 50.2017 417.191 49.6534 417.237C49.5873 417.242 49.5214 417.248 49.4555 417.255C49.1784 417.281 48.902 417.307 48.6215 417.28C48.4143 417.26 48.2067 417.245 47.999 417.23L47.998 417.229C47.7686 417.213 47.539 417.196 47.3102 417.172C47.0988 417.151 46.9449 417.214 46.8385 417.394C46.7345 417.57 46.7849 417.727 46.8861 417.89ZM29.3315 417.424C28.9368 417.887 28.4959 418.247 27.9354 418.457C27.2078 418.73 26.4347 418.308 26.213 417.797C25.8871 417.046 26.2536 416.74 26.9015 416.716C27.5454 416.692 28.1642 416.634 28.7614 416.387C28.9719 416.3 29.1887 416.299 29.366 416.464C29.5498 416.634 29.567 416.853 29.5044 417.085C29.4723 417.203 29.4233 417.313 29.3315 417.424ZM35.9123 416.97C35.8734 417.135 35.9794 417.228 36.1417 417.298C36.1648 417.397 36.181 417.495 36.1971 417.593C36.2322 417.807 36.2664 418.014 36.3706 418.205C36.5306 418.498 36.8417 418.538 37.0237 418.267L37.077 418.188C37.2883 417.875 37.5009 417.56 37.635 417.202C37.7026 417.022 37.775 416.945 37.977 417.088C38.5419 417.487 39.1563 417.43 39.7728 417.224C39.9321 417.17 39.9854 417.04 39.929 416.885C39.8777 416.745 39.7644 416.688 39.6143 416.726C39.5825 416.734 39.5512 416.744 39.5199 416.754C39.48 416.767 39.4402 416.78 39.3995 416.789C39.0701 416.858 38.7409 416.912 38.4079 416.724C38.4349 416.7 38.4609 416.679 38.4859 416.658C38.5378 416.615 38.5854 416.575 38.6298 416.532C38.8083 416.359 38.9088 416.158 38.8375 415.903C38.7623 415.635 38.5567 415.517 38.3043 415.47C38.1288 415.437 37.9506 415.445 37.778 415.504C37.4165 415.628 37.2621 415.94 37.3839 416.304C37.4845 416.605 37.4431 416.671 37.1231 416.742C36.9194 416.788 36.7157 416.775 36.5121 416.762C36.4272 416.756 36.342 416.751 36.2571 416.75C36.0904 416.747 35.9527 416.798 35.9123 416.97ZM45.9142 418.83C46.1589 418.726 46.3642 418.75 46.57 418.887C46.7471 419.004 46.9461 419.075 47.1452 419.146C47.2363 419.179 47.3274 419.211 47.4164 419.248C47.8738 419.438 48.0761 419.695 48.0268 420.012C47.9775 420.33 47.5855 420.608 47.1491 420.619C46.7159 420.631 46.3828 420.418 46.0992 420.114C45.9261 419.929 45.7939 419.714 45.6877 419.485C45.5453 419.177 45.5939 419.027 45.9142 418.83ZM28.9243 420.097C29.5557 420.078 29.9633 419.684 30.3691 419.244C30.3867 419.221 30.4056 419.2 30.4237 419.18C30.4643 419.134 30.5005 419.093 30.5078 419.048C30.5161 418.997 30.5287 418.945 30.5413 418.893C30.5897 418.692 30.639 418.488 30.4514 418.315C30.2648 418.143 30.0325 418.172 29.8574 418.314C29.5592 418.558 29.2135 418.692 28.8661 418.826C28.7887 418.856 28.7112 418.886 28.6342 418.917C28.2458 419.074 28.1221 419.428 28.3136 419.786C28.4441 420.029 28.661 420.104 28.9243 420.097ZM33.8151 413.835C34.1683 413.52 34.4724 413.507 34.6686 413.783C34.8902 414.095 34.8147 414.478 34.4916 414.681C34.2613 414.825 34.0049 414.801 33.8246 414.618C33.6255 414.416 33.6179 414.161 33.8151 413.835ZM42.3292 414.61C42.5796 414.783 42.8197 414.742 43.0563 414.532C43.2377 414.317 43.2734 414.089 43.1423 413.871C43.0281 413.68 42.8383 413.567 42.6023 413.591C42.3601 413.615 42.2199 413.778 42.148 413.991C42.0669 414.232 42.1058 414.457 42.3292 414.61ZM36.9101 417.467C36.8918 417.487 36.8792 417.51 36.8671 417.532C36.8421 417.576 36.8191 417.617 36.7526 417.632C36.7124 417.531 36.6919 417.423 36.7419 417.327C36.7723 417.269 36.8672 417.285 36.9232 417.309C36.9823 417.336 36.9604 417.374 36.9343 417.42C36.9258 417.435 36.9169 417.45 36.9101 417.467ZM55.5454 427.409C55.4572 427.11 55.3742 426.833 55.2765 426.507C55.3434 426.526 55.4075 426.544 55.4696 426.562L55.4707 426.562C55.6041 426.601 55.7285 426.637 55.8534 426.671C56.1381 426.749 56.4239 426.788 56.7026 426.652C57.1427 426.438 57.2178 425.953 56.8677 425.612C56.7024 425.451 56.494 425.37 56.2855 425.289L56.2578 425.278C56.2105 425.26 56.1624 425.243 56.1144 425.226C56.0123 425.19 55.9103 425.154 55.8161 425.104C55.5928 424.984 55.4898 424.841 55.5799 424.54C55.8348 423.689 55.984 422.814 55.9895 421.92C55.9899 421.859 55.9898 421.798 55.9897 421.734L55.9896 421.639C57.6651 422.318 58.1923 422.298 59.4233 421.518C59.4921 421.821 59.4574 422.119 59.4227 422.417L59.4168 422.467C59.4103 422.524 59.3954 422.57 59.3362 422.602C58.658 422.972 57.9467 423.154 57.1649 423.056C56.6005 422.984 56.2426 423.405 56.3526 423.97C56.4225 424.329 56.6359 424.597 56.9195 424.81C57.2655 425.071 57.6423 425.277 58.0674 425.376C58.257 425.42 58.2766 425.489 58.1902 425.658C57.8537 426.317 57.4612 426.94 57.0371 427.545C56.9503 427.669 56.8641 427.701 56.7111 427.671C56.6844 427.666 56.6577 427.66 56.6309 427.655C56.302 427.588 55.9637 427.519 55.6496 427.828C55.6115 427.675 55.581 427.553 55.5454 427.409ZM36.0261 433.681C35.9404 433.667 35.8532 433.652 35.7724 433.631L35.7383 433.621C35.4153 433.526 35.1109 433.436 34.8548 433.239C34.7913 433.19 34.7514 433.201 34.683 433.234C33.8424 433.635 33.169 433.467 32.6294 432.716C32.5486 432.603 32.4815 432.564 32.356 432.641C32.3832 432.697 32.4107 432.752 32.4383 432.808C32.4977 432.928 32.5569 433.047 32.6111 433.169C32.8609 433.73 33.0683 434.307 33.2757 434.885C33.4281 435.309 33.5805 435.733 33.7497 436.151C33.813 436.307 33.8189 436.48 33.7226 436.61C33.576 436.807 33.6924 436.87 33.8456 436.923C34.2324 437.059 34.6368 437.062 35.0381 437.064L35.1219 437.065C35.7625 437.07 35.8459 436.974 35.828 436.342C35.8122 435.786 35.9522 435.666 36.4777 435.768C36.4777 435.65 36.4773 435.532 36.4768 435.413C36.4757 435.132 36.4745 434.849 36.4798 434.566C36.4813 434.483 36.4969 434.391 36.5123 434.299C36.5421 434.123 36.5712 433.95 36.497 433.856C36.4102 433.745 36.222 433.714 36.0261 433.681ZM39.58 432.883C39.3132 433.279 38.9173 433.503 38.4679 433.687C38.149 433.815 37.8352 433.857 37.5174 433.882C37.5045 433.883 37.4911 433.883 37.4778 433.883C37.4137 433.883 37.3516 433.883 37.343 433.998C37.3365 434.084 37.3246 434.17 37.3128 434.255C37.2928 434.399 37.2728 434.543 37.2784 434.69C37.2995 435.25 37.3157 435.81 37.3231 436.37L37.3234 436.392C37.3289 436.815 37.3289 436.817 37.7511 436.938C38.2824 437.091 38.8162 437.231 39.3772 437.16C39.7145 437.118 39.7954 437.021 39.7801 436.683C39.7772 436.618 39.7712 436.553 39.7651 436.488C39.7467 436.29 39.7282 436.092 39.7979 435.904C40.0256 435.29 40.1511 434.653 40.2771 434.013C40.3482 433.652 40.4195 433.29 40.5093 432.932C40.268 432.963 40.0309 432.919 39.8087 432.814C39.7 432.763 39.6436 432.788 39.58 432.883ZM55.7211 429.109C55.9254 429.009 55.9661 428.889 55.7997 428.714C55.7738 428.69 55.7609 428.679 55.7461 428.673C55.7398 428.67 55.7222 428.676 55.7222 428.679C55.7211 428.806 55.7211 428.934 55.7211 429.069V429.109Z" fill="#B5B5B5"/>
<path d="M58.5816 425.9C58.5683 425.74 58.5616 425.58 58.5616 425.42C58.5616 425.26 58.5616 425.1 58.5616 424.94V418.58C58.5616 418.367 58.5616 418.153 58.5616 417.94C58.5616 417.727 58.5483 417.507 58.5216 417.28C58.5083 417.213 58.4883 417.12 58.4616 417C58.4483 416.88 58.4083 416.807 58.3416 416.78C58.275 416.74 58.195 416.727 58.1016 416.74C58.0216 416.74 57.9416 416.733 57.8616 416.72C57.7683 416.707 57.675 416.707 57.5816 416.72C57.5016 416.733 57.415 416.733 57.3216 416.72H56.3816C56.155 416.733 55.9283 416.733 55.7016 416.72C55.475 416.707 55.2483 416.707 55.0216 416.72C54.915 416.733 54.815 416.74 54.7216 416.74C54.6416 416.727 54.5483 416.72 54.4416 416.72C54.295 416.72 54.1416 416.713 53.9816 416.7C53.8216 416.687 53.675 416.633 53.5416 416.54C53.355 416.407 53.2283 416.24 53.1616 416.04C53.095 415.84 53.0616 415.633 53.0616 415.42C53.0483 415.167 53.1016 414.913 53.2216 414.66C53.2883 414.5 53.375 414.387 53.4816 414.32C53.5483 414.253 53.6416 414.2 53.7616 414.16C53.895 414.107 54.0083 414.067 54.1016 414.04C54.3816 413.973 54.675 413.94 54.9816 413.94C55.2883 413.927 55.5883 413.92 55.8816 413.92H59.3616C59.535 413.947 59.715 413.973 59.9016 414C60.1016 414.013 60.2816 414.053 60.4416 414.12C60.5483 414.16 60.6483 414.213 60.7416 414.28C60.8483 414.347 60.935 414.427 61.0016 414.52C61.1216 414.707 61.1883 414.893 61.2016 415.08C61.2283 415.267 61.255 415.473 61.2816 415.7C61.3083 416.073 61.3216 416.447 61.3216 416.82C61.3216 417.18 61.3216 417.547 61.3216 417.92V424.48C61.3216 424.493 61.3216 424.6 61.3216 424.8C61.335 424.987 61.3416 425.213 61.3416 425.48C61.3416 425.733 61.3416 426.007 61.3416 426.3C61.3416 426.58 61.335 426.827 61.3216 427.04C61.3083 427.173 61.2883 427.313 61.2616 427.46C61.235 427.607 61.1883 427.747 61.1216 427.88C61.0683 428.013 60.9883 428.133 60.8816 428.24C60.775 428.347 60.635 428.433 60.4616 428.5C60.235 428.593 60.0083 428.64 59.7816 428.64C59.6083 428.64 59.435 428.6 59.2616 428.52C59.0883 428.453 58.9683 428.347 58.9016 428.2C58.6883 427.773 58.5816 427.3 58.5816 426.78V425.9ZM67.0416 419.42C67.2283 419.433 67.4216 419.447 67.6216 419.46C67.8216 419.46 68.015 419.467 68.2016 419.48C68.2683 419.48 68.3416 419.487 68.4216 419.5C68.5016 419.513 68.5816 419.527 68.6616 419.54C68.9283 419.593 69.1416 419.707 69.3016 419.88C69.475 420.04 69.5616 420.26 69.5616 420.54C69.5616 420.727 69.5416 420.94 69.5016 421.18C69.475 421.42 69.375 421.607 69.2016 421.74C69.1216 421.807 69.0416 421.86 68.9616 421.9C68.8816 421.94 68.7883 421.973 68.6816 422C68.4683 422.027 68.2083 422.033 67.9016 422.02C67.595 422.007 67.335 422.007 67.1216 422.02C67.0683 422.02 67.0416 422.053 67.0416 422.12C67.0416 422.28 67.0416 422.473 67.0416 422.7C67.0416 422.913 67.0416 423.14 67.0416 423.38C67.0416 423.607 67.0416 423.833 67.0416 424.06C67.0416 424.273 67.0416 424.467 67.0416 424.64C67.0683 425.333 67.0683 426.013 67.0416 426.68V426.96C67.0416 427.133 67.035 427.32 67.0216 427.52C67.0216 427.733 67.0083 427.94 66.9816 428.14C66.955 428.34 66.9083 428.527 66.8416 428.7C66.775 428.887 66.6816 429.04 66.5616 429.16C66.4016 429.347 66.1883 429.44 65.9216 429.44C65.9216 429.44 65.9083 429.433 65.8816 429.42C65.5616 429.407 65.3016 429.313 65.1016 429.14C64.915 428.967 64.7683 428.753 64.6616 428.5C64.5683 428.247 64.5083 427.98 64.4816 427.7C64.455 427.433 64.4416 427.193 64.4416 426.98V415.1C64.4416 415.087 64.4416 415.027 64.4416 414.92C64.4416 414.8 64.455 414.667 64.4816 414.52C64.5083 414.36 64.5483 414.2 64.6016 414.04C64.6683 413.867 64.755 413.727 64.8616 413.62C64.955 413.527 65.0883 413.46 65.2616 413.42C65.4483 413.367 65.615 413.34 65.7616 413.34C66.055 413.34 66.3016 413.44 66.5016 413.64C66.6883 413.827 66.795 414.027 66.8216 414.24C66.8616 414.44 66.895 414.653 66.9216 414.88C66.935 414.933 66.9416 415.013 66.9416 415.12C66.9683 415.347 66.9816 415.58 66.9816 415.82C66.995 416.06 67.0083 416.3 67.0216 416.54C67.0216 416.647 67.0216 416.733 67.0216 416.8C67.0216 416.867 67.0216 416.973 67.0216 417.12C67.035 417.253 67.0416 417.46 67.0416 417.74C67.0416 418.02 67.0416 418.427 67.0416 418.96V419.42Z" fill="white"/>
<path d="M82.8232 421.2C83.0499 421.213 83.2765 421.247 83.5032 421.3C83.7432 421.353 83.9565 421.453 84.1432 421.6C84.3299 421.747 84.4232 421.953 84.4232 422.22C84.4232 422.353 84.3965 422.5 84.3432 422.66C84.3032 422.82 84.2432 422.933 84.1632 423C84.0565 423.107 83.9165 423.187 83.7432 423.24C83.5832 423.28 83.4232 423.313 83.2632 423.34C83.1032 423.353 82.9632 423.36 82.8432 423.36C82.7365 423.36 82.6765 423.36 82.6632 423.36L72.0032 423.38C71.6965 423.393 71.3765 423.393 71.0432 423.38C70.7232 423.367 70.4499 423.267 70.2232 423.08C69.9165 422.853 69.7632 422.593 69.7632 422.3C69.7632 422.113 69.8232 421.927 69.9432 421.74C70.0765 421.54 70.2499 421.407 70.4632 421.34C70.7432 421.247 71.0299 421.207 71.3232 421.22C71.6165 421.22 71.9165 421.213 72.2232 421.2C72.5432 421.187 72.8165 421.18 73.0432 421.18C73.2832 421.18 73.5099 421.18 73.7232 421.18C73.9499 421.18 74.1832 421.187 74.4232 421.2C74.6632 421.2 74.9499 421.2 75.2832 421.2V419.7C73.6165 419.607 72.3565 419.32 71.5032 418.84C70.6499 418.36 70.2232 417.6 70.2232 416.56C70.2232 415.467 70.7965 414.667 71.9432 414.16C73.0899 413.653 74.7832 413.393 77.0232 413.38C78.0365 413.38 78.9632 413.433 79.8032 413.54C80.6432 413.647 81.3632 413.827 81.9632 414.08C82.5632 414.32 83.0232 414.647 83.3432 415.06C83.6765 415.46 83.8432 415.96 83.8432 416.56C83.8432 417.667 83.3632 418.46 82.4032 418.94C81.4565 419.407 80.0165 419.673 78.0832 419.74C78.0965 419.98 78.1032 420.247 78.1032 420.54C78.1165 420.82 78.1232 421.04 78.1232 421.2C78.4965 421.2 78.8965 421.2 79.3232 421.2C79.7499 421.187 80.1765 421.18 80.6032 421.18C81.0299 421.18 81.4365 421.18 81.8232 421.18C82.2099 421.18 82.5432 421.187 82.8232 421.2ZM83.0032 426.94C83.0165 426.94 83.0632 426.953 83.1432 426.98C83.2232 427.007 83.3099 427.047 83.4032 427.1C83.5099 427.167 83.6032 427.247 83.6832 427.34C83.7765 427.447 83.8365 427.567 83.8632 427.7C83.9432 428.207 83.8632 428.6 83.6232 428.88C83.4765 429.067 83.3165 429.18 83.1432 429.22C82.9699 429.26 82.8765 429.28 82.8632 429.28H71.9432C71.4365 429.28 71.0365 429.193 70.7432 429.02C70.4499 428.86 70.3032 428.627 70.3032 428.32V426.54C70.2899 426.393 70.2832 426.213 70.2832 426C70.2832 425.773 70.2899 425.587 70.3032 425.44C70.3299 425.16 70.4365 424.933 70.6232 424.76C70.8099 424.587 71.0432 424.5 71.3232 424.5C71.3899 424.5 71.4765 424.507 71.5832 424.52C71.7032 424.52 71.7965 424.533 71.8632 424.56C72.0365 424.613 72.1699 424.707 72.2632 424.84C72.3565 424.96 72.4299 425.1 72.4832 425.26C72.5365 425.42 72.5699 425.593 72.5832 425.78C72.5965 425.953 72.6099 426.113 72.6232 426.26C72.6232 426.367 72.6299 426.48 72.6432 426.6C72.6565 426.707 72.6765 426.807 72.7032 426.9C72.7299 426.913 72.8499 426.933 73.0632 426.96C73.2899 426.973 73.6365 426.98 74.1032 426.98C74.5032 426.98 74.8565 426.973 75.1632 426.96C75.4832 426.947 75.6499 426.94 75.6632 426.94H83.0032ZM81.1032 416.56C81.1032 416.347 81.0032 416.16 80.8032 416C80.6032 415.84 80.3232 415.707 79.9632 415.6C79.6032 415.493 79.1699 415.413 78.6632 415.36C78.1699 415.307 77.6232 415.28 77.0232 415.28C74.3965 415.28 73.0832 415.707 73.0832 416.56C73.0832 416.933 73.4165 417.227 74.0832 417.44C74.7632 417.653 75.7299 417.753 76.9832 417.74C77.4632 417.74 77.9432 417.727 78.4232 417.7C78.9165 417.66 79.3632 417.6 79.7632 417.52C80.1632 417.427 80.4832 417.307 80.7232 417.16C80.9765 417 81.1032 416.8 81.1032 416.56Z" fill="white"/>
<path d="M101.252 426.78C101.252 427.113 101.239 427.38 101.212 427.58C101.199 427.78 101.139 428.033 101.032 428.34C100.965 428.54 100.852 428.707 100.692 428.84C100.532 428.973 100.305 429.04 100.012 429.04C99.9319 429.04 99.8319 429.027 99.7119 429C99.5919 428.987 99.4986 428.953 99.4319 428.9C99.2986 428.82 99.1919 428.687 99.1119 428.5C99.0453 428.327 98.9919 428.14 98.9519 427.94C98.9119 427.74 98.8853 427.547 98.8719 427.36C98.8719 427.173 98.8719 427.027 98.8719 426.92V421.78L96.7519 421.72C96.6319 421.72 96.5053 421.707 96.3719 421.68C96.2519 421.64 96.1319 421.587 96.0119 421.52C95.9053 421.44 95.8119 421.34 95.7319 421.22C95.6519 421.087 95.6053 420.92 95.5919 420.72C95.5653 420.48 95.5786 420.227 95.6319 419.96C95.6986 419.68 95.8853 419.467 96.1919 419.32C96.3119 419.253 96.4586 419.213 96.6319 419.2C96.8186 419.187 96.9786 419.187 97.1119 419.2H98.8719V415.28C98.8719 415.107 98.8719 414.933 98.8719 414.76C98.8719 414.573 98.8919 414.393 98.9319 414.22C98.9586 414.153 98.9786 414.093 98.9919 414.04C99.0186 413.987 99.0453 413.927 99.0719 413.86C99.1519 413.727 99.2319 413.627 99.3119 413.56C99.3919 413.48 99.5053 413.413 99.6519 413.36C99.7186 413.333 99.7853 413.32 99.8519 413.32C99.9319 413.307 100.005 413.3 100.072 413.3C100.512 413.3 100.845 413.5 101.072 413.9C101.125 413.98 101.159 414.093 101.172 414.24C101.199 414.387 101.219 414.54 101.232 414.7C101.245 414.847 101.252 414.98 101.252 415.1C101.252 415.207 101.252 415.273 101.252 415.3V426.78ZM104.772 428.48C104.692 428.653 104.565 428.8 104.392 428.92C104.245 429.013 104.085 429.067 103.912 429.08C103.739 429.107 103.565 429.1 103.392 429.06C103.192 429.02 103.025 428.933 102.892 428.8C102.772 428.68 102.679 428.54 102.612 428.38C102.545 428.22 102.499 428.047 102.472 427.86C102.445 427.673 102.432 427.493 102.432 427.32V415.56C102.432 415.413 102.432 415.247 102.432 415.06C102.432 414.86 102.445 414.673 102.472 414.5C102.499 414.313 102.532 414.14 102.572 413.98C102.625 413.82 102.699 413.693 102.792 413.6C102.939 413.467 103.092 413.387 103.252 413.36C103.412 413.32 103.585 413.3 103.772 413.3C103.999 413.3 104.205 413.367 104.392 413.5C104.579 413.62 104.712 413.787 104.792 414C104.912 414.28 104.979 414.567 104.992 414.86C105.005 415.153 105.019 415.453 105.032 415.76C105.045 416.12 105.052 416.473 105.052 416.82C105.052 417.167 105.052 417.553 105.052 417.98C105.052 418.393 105.052 418.86 105.052 419.38C105.052 419.9 105.045 420.507 105.032 421.2C105.032 421.88 105.032 422.66 105.032 423.54C105.032 424.42 105.032 425.433 105.032 426.58C105.032 426.927 105.019 427.26 104.992 427.58C104.979 427.9 104.905 428.2 104.772 428.48ZM94.1119 428.04C93.8453 428.04 93.5853 428.027 93.3319 428C93.0919 427.973 92.8386 427.953 92.5719 427.94C92.3719 427.927 92.1653 427.887 91.9519 427.82C91.7386 427.767 91.5586 427.667 91.4119 427.52C91.2653 427.373 91.1519 427.247 91.0719 427.14C91.0053 427.033 90.9519 426.887 90.9119 426.7C90.8319 426.273 90.7986 425.833 90.8119 425.38C90.8253 424.927 90.8319 424.48 90.8319 424.04V422.4C90.8319 422.4 90.8319 422.247 90.8319 421.94C90.8319 421.62 90.8319 421.227 90.8319 420.76C90.8319 420.28 90.8253 419.753 90.8119 419.18C90.8119 418.607 90.8119 418.06 90.8119 417.54C90.8119 417.007 90.8119 416.54 90.8119 416.14C90.8119 415.727 90.8186 415.447 90.8319 415.3C90.8453 415.033 90.9053 414.76 91.0119 414.48C91.1186 414.187 91.3453 413.967 91.6919 413.82C91.8386 413.767 91.9919 413.727 92.1519 413.7C92.3119 413.673 92.4719 413.68 92.6319 413.72C92.7919 413.76 92.9386 413.833 93.0719 413.94C93.2186 414.033 93.3253 414.167 93.3919 414.34C93.4719 414.527 93.5253 414.727 93.5519 414.94C93.5919 415.14 93.6119 415.353 93.6119 415.58C93.6119 415.727 93.6053 415.94 93.5919 416.22C93.5919 416.5 93.5919 416.713 93.5919 416.86C93.5919 417.287 93.5919 417.867 93.5919 418.6C93.5919 419.32 93.5853 420.073 93.5719 420.86C93.5719 421.647 93.5719 422.4 93.5719 423.12C93.5719 423.84 93.5853 424.413 93.6119 424.84C93.6119 424.933 93.6186 425.027 93.6319 425.12C93.6453 425.213 93.6853 425.293 93.7519 425.36C93.8319 425.427 93.9253 425.467 94.0319 425.48C94.1519 425.48 94.2653 425.48 94.3719 425.48C94.7453 425.507 95.0319 425.527 95.2319 425.54C95.4319 425.54 95.5853 425.54 95.6919 425.54C95.8119 425.54 95.9119 425.547 95.9919 425.56C96.0853 425.573 96.2119 425.587 96.3719 425.6C96.5986 425.627 96.8319 425.66 97.0719 425.7C97.3253 425.727 97.5519 425.807 97.7519 425.94C97.8586 426.007 97.9319 426.1 97.9719 426.22C98.0253 426.327 98.0586 426.44 98.0719 426.56C98.0853 426.627 98.0919 426.693 98.0919 426.76C98.0919 426.813 98.0919 426.873 98.0919 426.94C98.0786 427.087 98.0453 427.193 97.9919 427.26C97.9519 427.34 97.8786 427.433 97.7719 427.54C97.5853 427.74 97.3386 427.873 97.0319 427.94C96.8453 427.967 96.6586 427.993 96.4719 428.02C96.2986 428.047 96.1186 428.06 95.9319 428.06C95.8653 428.06 95.7453 428.053 95.5719 428.04C95.3986 428.04 95.2119 428.04 95.0119 428.04C94.8119 428.04 94.6253 428.04 94.4519 428.04C94.2786 428.04 94.1653 428.04 94.1119 428.04Z" fill="white"/>
<path d="M114.883 415.94C114.443 415.94 113.99 415.96 113.523 416C113.057 416.027 112.577 416.007 112.083 415.94C111.857 415.913 111.683 415.76 111.563 415.48C111.457 415.187 111.403 414.873 111.403 414.54C111.417 414.233 111.53 414.007 111.743 413.86C111.957 413.713 112.177 413.607 112.403 413.54C112.683 413.46 112.917 413.42 113.103 413.42C113.303 413.407 113.55 413.393 113.843 413.38C114.03 413.38 114.243 413.387 114.483 413.4C114.723 413.4 114.937 413.4 115.123 413.4H116.323C116.403 413.4 116.483 413.4 116.563 413.4C116.643 413.387 116.723 413.387 116.803 413.4H117.363C117.483 413.4 117.603 413.407 117.723 413.42C117.843 413.42 117.957 413.42 118.063 413.42C118.183 413.42 118.303 413.42 118.423 413.42C118.543 413.42 118.663 413.427 118.783 413.44C118.85 413.44 118.91 413.44 118.963 413.44C119.017 413.44 119.07 413.453 119.123 413.48C119.203 413.507 119.277 413.533 119.343 413.56C119.463 413.627 119.577 413.7 119.683 413.78C119.79 413.86 119.877 413.96 119.943 414.08C120.063 414.28 120.137 414.493 120.163 414.72C120.203 414.947 120.223 415.173 120.223 415.4L120.243 419.58C120.217 419.953 120.21 420.3 120.223 420.62C120.237 420.94 120.15 421.26 119.963 421.58C119.857 421.767 119.71 421.92 119.523 422.04C119.337 422.16 119.137 422.233 118.923 422.26C118.723 422.287 118.53 422.267 118.343 422.2C118.157 422.12 118.003 421.987 117.883 421.8C117.763 421.6 117.677 421.42 117.623 421.26C117.57 421.087 117.53 420.92 117.503 420.76C117.49 420.587 117.49 420.413 117.503 420.24C117.517 420.053 117.523 419.847 117.523 419.62H112.823C112.823 419.62 112.79 419.62 112.723 419.62C112.67 419.62 112.603 419.613 112.523 419.6C112.457 419.573 112.383 419.54 112.303 419.5C112.223 419.447 112.157 419.373 112.103 419.28C112.023 419.12 111.983 418.913 111.983 418.66C111.983 418.407 112.03 418.207 112.123 418.06C112.217 417.913 112.31 417.827 112.403 417.8C112.51 417.773 112.617 417.747 112.723 417.72C112.83 417.707 112.923 417.693 113.003 417.68C113.097 417.653 113.203 417.633 113.323 417.62C114.057 417.58 114.837 417.56 115.663 417.56C115.93 417.56 116.23 417.56 116.563 417.56C116.91 417.56 117.23 417.567 117.523 417.58C117.523 417.313 117.523 417.06 117.523 416.82C117.523 416.567 117.51 416.307 117.483 416.04C117.057 416.027 116.623 416.013 116.183 416C115.757 415.987 115.323 415.967 114.883 415.94ZM122.283 424.82C122.777 425.167 123.263 425.513 123.743 425.86C124.223 426.207 124.697 426.567 125.163 426.94C125.323 427.073 125.51 427.207 125.723 427.34C125.937 427.487 126.063 427.673 126.103 427.9C126.143 428.087 126.117 428.28 126.023 428.48C125.943 428.68 125.83 428.84 125.683 428.96C125.457 429.147 125.237 429.227 125.023 429.2C124.81 429.173 124.583 429.107 124.343 429C123.85 428.773 123.377 428.52 122.923 428.24C122.47 427.96 122.017 427.667 121.563 427.36C121.337 427.213 121.117 427.06 120.903 426.9C120.69 426.727 120.477 426.567 120.263 426.42C120.117 426.313 119.963 426.193 119.803 426.06C119.643 425.927 119.457 425.873 119.243 425.9C119.057 425.913 118.91 425.953 118.803 426.02C118.697 426.087 118.577 426.173 118.443 426.28C118.297 426.387 118.137 426.507 117.963 426.64C117.803 426.773 117.663 426.893 117.543 427C117.197 427.293 116.817 427.587 116.403 427.88C116.003 428.187 115.61 428.44 115.223 428.64C115.077 428.72 114.91 428.8 114.723 428.88C114.537 428.96 114.35 429.02 114.163 429.06C113.977 429.113 113.783 429.133 113.583 429.12C113.397 429.12 113.223 429.08 113.063 429C112.85 428.893 112.697 428.733 112.603 428.52C112.51 428.307 112.497 428.087 112.563 427.86C112.63 427.633 112.777 427.433 113.003 427.26C113.243 427.087 113.443 426.933 113.603 426.8C114.11 426.413 114.657 426.013 115.243 425.6C115.83 425.173 116.383 424.773 116.903 424.4C117.13 424.227 117.357 424.08 117.583 423.96C117.81 423.827 118.037 423.667 118.263 423.48C118.343 423.413 118.437 423.34 118.543 423.26C118.65 423.167 118.763 423.087 118.883 423.02C119.003 422.94 119.123 422.88 119.243 422.84C119.363 422.8 119.483 422.793 119.603 422.82C119.79 422.873 119.95 422.967 120.083 423.1C120.217 423.233 120.357 423.353 120.503 423.46L122.283 424.82ZM122.823 418.96C122.437 418.933 122.09 418.913 121.783 418.9C121.477 418.873 121.237 418.727 121.063 418.46C120.983 418.327 120.943 418.16 120.943 417.96C120.943 417.76 120.957 417.587 120.983 417.44C121.023 417.293 121.097 417.173 121.203 417.08C121.31 416.973 121.497 416.887 121.763 416.82C121.817 416.807 121.917 416.8 122.063 416.8C122.21 416.787 122.363 416.773 122.523 416.76C122.697 416.747 122.857 416.74 123.003 416.74C123.15 416.727 123.25 416.72 123.303 416.72V415C123.29 414.853 123.283 414.707 123.283 414.56C123.297 414.413 123.323 414.267 123.363 414.12C123.39 414.013 123.417 413.913 123.443 413.82C123.47 413.727 123.53 413.627 123.623 413.52C123.73 413.387 123.877 413.293 124.063 413.24C124.263 413.187 124.477 413.173 124.703 413.2C125.13 413.267 125.403 413.433 125.523 413.7C125.603 413.86 125.65 414.06 125.663 414.3C125.69 414.527 125.703 414.667 125.703 414.72V421.24H125.683C125.683 421.253 125.677 421.3 125.663 421.38C125.65 421.46 125.623 421.56 125.583 421.68C125.543 421.787 125.483 421.9 125.403 422.02C125.323 422.14 125.217 422.24 125.083 422.32C124.897 422.427 124.71 422.48 124.523 422.48C124.297 422.48 124.077 422.407 123.863 422.26C123.703 422.153 123.59 422.02 123.523 421.86C123.443 421.713 123.39 421.567 123.363 421.42C123.337 421.273 123.317 421.127 123.303 420.98V418.96H122.823Z" fill="white"/>
<path d="M58.5616 422.933V421.978C57.834 422.26 57.2229 422.139 55.9896 421.639L55.9897 421.734L55.9897 421.819L55.9896 421.901L55.9895 421.92C55.984 422.814 55.8348 423.689 55.5799 424.54C55.4898 424.841 55.5928 424.984 55.8161 425.104C55.9103 425.154 56.0123 425.19 56.1144 425.226C56.1624 425.243 56.2105 425.26 56.2578 425.278L56.2855 425.289C56.494 425.37 56.7024 425.451 56.8677 425.612C57.2178 425.953 57.1427 426.438 56.7026 426.652C56.4239 426.788 56.1381 426.749 55.8534 426.671C55.7783 426.651 55.7033 426.629 55.6265 426.607L55.4707 426.562L55.4696 426.562L55.3979 426.541L55.2765 426.507C55.3742 426.833 55.4572 427.11 55.5454 427.409C55.581 427.553 55.6115 427.675 55.6496 427.828C55.9637 427.519 56.302 427.588 56.6309 427.655C56.6577 427.66 56.6844 427.666 56.7111 427.671C56.8641 427.701 56.9503 427.669 57.0371 427.545C57.4612 426.94 57.8537 426.317 58.1902 425.658C58.2766 425.489 58.257 425.42 58.0674 425.376C57.6423 425.277 57.2655 425.071 56.9195 424.81C56.6359 424.597 56.4225 424.329 56.3526 423.97C56.2426 423.405 56.6005 422.984 57.1649 423.056C57.6552 423.118 58.1176 423.069 58.5616 422.933Z" fill="black"/>
<path d="M55.7997 428.714C55.9661 428.889 55.9254 429.009 55.7211 429.109V429.069C55.7211 428.934 55.7211 428.806 55.7222 428.679C55.7222 428.677 55.7279 428.675 55.7339 428.673C55.7385 428.672 55.7434 428.671 55.7461 428.673C55.7552 428.677 55.7636 428.682 55.7748 428.692C55.7818 428.698 55.7898 428.705 55.7997 428.714Z" fill="black"/>
<path d="M35.7724 433.631C35.8532 433.652 35.9404 433.667 36.0261 433.681C36.222 433.714 36.4102 433.745 36.497 433.856C36.5712 433.95 36.5421 434.123 36.5123 434.299C36.4969 434.391 36.4813 434.483 36.4798 434.566C36.4745 434.849 36.4757 435.132 36.4768 435.413L36.4775 435.606L36.4777 435.768C35.9522 435.666 35.8122 435.786 35.828 436.342C35.8459 436.974 35.7625 437.07 35.1219 437.065L35.0381 437.064C34.6368 437.062 34.2324 437.059 33.8456 436.923C33.6924 436.87 33.576 436.807 33.7226 436.61C33.8189 436.48 33.813 436.307 33.7497 436.151C33.5805 435.733 33.4281 435.309 33.2757 434.885C33.0683 434.307 32.8609 433.73 32.6111 433.169C32.5569 433.047 32.4977 432.928 32.4383 432.808C32.4107 432.752 32.3832 432.697 32.356 432.641C32.4815 432.564 32.5486 432.603 32.6294 432.716C33.169 433.467 33.8424 433.635 34.683 433.234C34.7514 433.201 34.7913 433.19 34.8548 433.239C35.1109 433.436 35.4153 433.526 35.7383 433.621L35.7724 433.631Z" fill="black"/>
<path d="M38.4679 433.687C38.9173 433.503 39.3132 433.279 39.58 432.883C39.6436 432.788 39.7 432.763 39.8087 432.814C40.0309 432.919 40.268 432.963 40.5093 432.932C40.4195 433.29 40.3482 433.652 40.2771 434.013C40.1511 434.653 40.0256 435.29 39.7979 435.904C39.7282 436.092 39.7467 436.29 39.7651 436.488L39.7708 436.551C39.7723 436.568 39.7738 436.585 39.7751 436.602C39.7771 436.629 39.7789 436.656 39.7801 436.683C39.7954 437.021 39.7145 437.118 39.3772 437.16C38.8162 437.231 38.2824 437.091 37.7511 436.938C37.3289 436.817 37.3289 436.815 37.3234 436.392L37.3231 436.37C37.3157 435.81 37.2995 435.25 37.2784 434.69C37.2728 434.543 37.2928 434.399 37.3128 434.255C37.3246 434.17 37.3365 434.084 37.343 433.998C37.3516 433.883 37.4137 433.883 37.4778 433.883C37.4911 433.883 37.5045 433.883 37.5174 433.882C37.8352 433.857 38.149 433.815 38.4679 433.687Z" fill="black"/>
<path d="M36.8671 417.532C36.8792 417.51 36.8918 417.487 36.9101 417.467C36.9169 417.45 36.9258 417.435 36.9343 417.42C36.9604 417.374 36.9823 417.336 36.9232 417.309C36.8672 417.285 36.7723 417.269 36.7419 417.327C36.6919 417.423 36.7124 417.531 36.7526 417.632C36.8191 417.617 36.8421 417.576 36.8671 417.532Z" fill="black"/>
<path d="M80.8032 416C81.0032 416.16 81.1032 416.347 81.1032 416.56C81.1032 416.8 80.9765 417 80.7232 417.16C80.4832 417.307 80.1632 417.427 79.7632 417.52C79.3632 417.6 78.9165 417.66 78.4232 417.7C77.9432 417.727 77.4632 417.74 76.9832 417.74C75.7299 417.753 74.7632 417.653 74.0832 417.44C73.4165 417.227 73.0832 416.933 73.0832 416.56C73.0832 415.707 74.3965 415.28 77.0232 415.28C77.6232 415.28 78.1699 415.307 78.6632 415.36C79.1699 415.413 79.6032 415.493 79.9632 415.6C80.3232 415.707 80.6032 415.84 80.8032 416Z" fill="black"/>
<path fill-rule="evenodd" clip-rule="evenodd" d="M150 0H0V450H150V0ZM10 14C10 11.7909 11.7909 10 14 10H136C138.209 10 140 11.7909 140 14V96.5C140 98.7091 138.209 100.5 136 100.5H14C11.7909 100.5 10 98.7091 10 96.5V14ZM10 111.5C10 109.291 11.7909 107.5 14 107.5H136C138.209 107.5 140 109.291 140 111.5V194C140 196.209 138.209 198 136 198H14C11.7909 198 10 196.209 10 194V111.5ZM14 205C11.7909 205 10 206.791 10 209V291.5C10 293.709 11.7909 295.5 14 295.5H136C138.209 295.5 140 293.709 140 291.5V209C140 206.791 138.209 205 136 205H14ZM10 306.5C10 304.291 11.7909 302.5 14 302.5H136C138.209 302.5 140 304.291 140 306.5V389C140 391.209 138.209 393 136 393H14C11.7909 393 10 391.209 10 389V306.5ZM38.3733 406.208C38.4313 406.025 38.4594 405.937 38.4277 405.9C38.398 405.866 38.3162 405.876 38.1578 405.896L38.1508 405.897C36.9804 406.048 35.925 406.52 34.8923 407.056C34.8596 407.073 34.8272 407.091 34.7949 407.109C34.737 407.141 34.6791 407.172 34.6192 407.2C34.3785 407.31 34.1736 407.252 34.0661 407.046C33.9604 406.845 34.0277 406.623 34.2513 406.502C34.9921 406.102 35.7463 405.73 36.5476 405.463C37.9512 404.995 39.3908 404.938 40.8483 405.09L41.0969 405.116L41.0981 405.116C41.452 405.152 41.8066 405.189 42.159 405.236C42.4939 405.281 42.8272 405.357 43.1069 405.558C43.2249 405.642 43.266 405.579 43.3059 405.516C43.3169 405.499 43.3279 405.482 43.3404 405.468C44.4532 404.247 45.8147 403.457 47.4381 403.14C48.5999 402.914 49.7455 402.915 50.8286 403.495C53.0341 404.675 54.1591 406.909 53.7868 409.38C53.7492 409.63 53.6842 409.874 53.5799 410.106C53.5401 410.194 53.527 410.258 53.6587 410.279C54.698 410.446 55.5518 411.583 55.1228 413.065C55.0321 413.379 54.9039 413.67 54.7493 413.947C54.8069 413.943 54.865 413.941 54.9236 413.94L54.9565 413.94L54.9816 413.94C55.2883 413.927 55.5883 413.92 55.8816 413.92H59.3616C59.535 413.947 59.715 413.973 59.9016 414C60.1016 414.013 60.2816 414.053 60.4416 414.12C60.5483 414.16 60.6483 414.213 60.7416 414.28C60.8483 414.347 60.935 414.427 61.0016 414.52C61.1216 414.707 61.1883 414.893 61.2016 415.08C61.2283 415.267 61.255 415.473 61.2816 415.7C61.3083 416.073 61.3216 416.447 61.3216 416.82V417.92V424.48V424.8C61.335 424.987 61.3416 425.213 61.3416 425.48V426.3C61.3416 426.58 61.335 426.827 61.3216 427.04C61.3083 427.173 61.2883 427.313 61.2616 427.46C61.235 427.607 61.1883 427.747 61.1216 427.88C61.0683 428.013 60.9883 428.133 60.8816 428.24C60.775 428.347 60.635 428.433 60.4616 428.5C60.235 428.593 60.0083 428.64 59.7816 428.64C59.6083 428.64 59.435 428.6 59.2616 428.52C59.0883 428.453 58.9683 428.347 58.9016 428.2C58.6883 427.773 58.5816 427.3 58.5816 426.78V426.603C57.931 427.73 57.1267 428.754 56.2552 429.733C56.2337 429.757 56.213 429.782 56.1926 429.807C56.1724 429.832 56.1527 429.858 56.1329 429.883C56.0191 430.03 55.9045 430.178 55.7169 430.252C55.6477 430.28 55.6496 430.345 55.6515 430.408C55.652 430.422 55.6524 430.436 55.652 430.45C55.6517 430.46 55.6509 430.47 55.6493 430.48C55.2914 432.616 54.3627 434.462 52.6449 435.796C51.1955 436.922 49.5607 437.747 47.6937 437.967C46.7317 438.081 45.8265 437.914 45.0708 437.247C44.9989 437.184 44.9273 437.168 44.8404 437.185C44.8092 437.191 44.7772 437.195 44.7451 437.2C44.6737 437.209 44.6021 437.219 44.5402 437.249C43.6479 437.675 42.7124 437.663 41.7634 437.538C41.6815 437.527 41.5988 437.523 41.516 437.519C41.4491 437.516 41.3821 437.513 41.3157 437.506C41.0785 437.481 40.9241 437.318 40.9407 437.101C40.9584 436.871 41.096 436.731 41.3212 436.73C41.6386 436.729 41.9598 436.738 42.2729 436.785C42.951 436.888 43.5831 436.764 44.2226 436.534C44.5441 436.418 44.6732 436.308 44.6419 435.951C44.6054 435.533 44.7796 435.145 45 434.79C45.2727 434.351 45.6184 433.969 45.9739 433.598C46.0371 433.531 46.1175 433.476 46.1999 433.435C46.4245 433.324 46.6591 433.386 46.7595 433.585C46.8691 433.802 46.7965 433.97 46.6126 434.123C46.2074 434.459 45.8815 434.866 45.615 435.319C45.611 435.326 45.6079 435.333 45.6053 435.341C45.6042 435.345 45.6032 435.349 45.6022 435.353L45.5995 435.365C45.5979 435.373 45.5965 435.382 45.595 435.391L45.5908 435.416C45.5891 435.425 45.5873 435.434 45.585 435.444C45.8492 435.397 46.0683 435.437 46.1851 435.719C46.195 435.709 46.2048 435.699 46.2144 435.689L46.2325 435.67L46.2662 435.634C46.364 435.53 46.4596 435.428 46.6047 435.371C46.6145 435.367 46.621 435.363 46.6264 435.358L46.6295 435.355L46.6337 435.35C46.6366 435.347 46.6395 435.343 46.6428 435.339L46.6496 435.331C46.4601 435.286 46.2758 435.221 46.2473 434.986C46.2261 434.811 46.2879 434.662 46.4838 434.584L46.5093 434.584L46.5361 434.584C46.555 434.578 46.5778 434.576 46.6049 434.579C46.6038 434.582 46.6027 434.585 46.6015 434.588C46.9568 434.695 47.0114 434.825 46.8586 435.142C46.8531 435.153 46.8425 435.162 46.8318 435.171C46.8091 435.191 46.7862 435.21 46.8114 435.251C46.8441 435.305 46.8817 435.292 46.9199 435.278C46.9321 435.274 46.9443 435.27 46.9565 435.267L47.0032 435.259C47.0704 435.246 47.1378 435.234 47.2056 435.228C47.254 435.223 47.3029 435.224 47.3648 435.225H47.3659L47.4175 435.226L47.4445 435.226L47.4714 435.226C47.2896 435.012 47.1757 434.81 47.4602 434.641C47.7049 434.496 47.9832 434.541 48.1164 434.737C48.2655 434.956 48.1918 435.16 47.867 435.393C48.1284 435.552 48.2746 435.792 48.3543 436.074C48.4264 436.328 48.3587 436.55 48.1256 436.678C47.62 436.955 47.0895 436.99 46.5625 436.745C46.2811 436.615 46.1229 436.376 46.1085 436.02C45.8672 436.154 45.6599 436.079 45.4682 435.924C45.3661 436.325 45.4667 436.605 45.8022 436.819C46.4838 437.255 47.2319 437.281 47.9959 437.134C49.1883 436.905 50.2667 436.389 51.2918 435.761C53.6408 434.321 54.7628 432.191 54.9158 429.466C55.0077 427.828 54.445 426.386 53.8172 424.944C53.6231 424.499 53.4095 424.062 53.1959 423.625L53.0949 423.418L53.0128 423.249C52.9438 423.106 52.8533 422.976 52.7491 422.854C52.5828 422.658 52.5963 422.43 52.7659 422.279C52.9389 422.125 53.1985 422.141 53.364 422.339C53.6534 422.687 53.8402 423.096 54.0265 423.505L54.027 423.506C54.1586 423.794 54.291 424.082 54.4254 424.374L54.6051 424.765C54.7094 424.712 54.7337 424.626 54.7567 424.545C54.7602 424.533 54.7636 424.521 54.7673 424.509C55.0369 423.637 55.1779 422.745 55.199 421.834L55.2014 421.723C55.21 421.321 55.2186 420.92 55.3108 420.524C55.6672 418.993 57.066 418.313 58.4972 418.979C58.5189 418.989 58.5403 419 58.5616 419.01V418.58V417.94C58.5616 417.727 58.5483 417.507 58.5216 417.28C58.5083 417.213 58.4883 417.12 58.4616 417C58.4483 416.88 58.4083 416.807 58.3416 416.78C58.275 416.74 58.195 416.727 58.1016 416.74C58.0216 416.74 57.9416 416.733 57.8616 416.72C57.7683 416.707 57.675 416.707 57.5816 416.72C57.5016 416.733 57.415 416.733 57.3216 416.72H56.3816C56.155 416.733 55.9283 416.733 55.7016 416.72C55.475 416.707 55.2483 416.707 55.0216 416.72C54.9679 416.727 54.9158 416.732 54.8654 416.735C55.0987 417.112 55.1474 417.572 55.0819 418.067C54.9951 418.723 54.8326 419.37 54.6308 420.003C54.4691 420.51 54.1506 420.906 53.7298 421.224C53.6568 421.279 53.5695 421.318 53.4842 421.353C53.261 421.446 53.0887 421.355 52.9911 421.161C52.8912 420.963 52.9414 420.768 53.1404 420.651C53.5706 420.399 53.8237 420.027 53.9364 419.549C53.977 419.377 54.0184 419.205 54.0598 419.033L54.061 419.029L54.0613 419.028C54.1374 418.711 54.2136 418.395 54.2848 418.078C54.3278 417.886 54.3394 417.687 54.3014 417.492C54.2315 417.133 54.0456 416.881 53.6677 416.791C53.2741 416.698 53.1487 416.54 53.2366 416.209C53.2064 416.156 53.1814 416.099 53.1616 416.04C53.1113 415.889 53.08 415.734 53.0677 415.576C52.8418 415.438 52.8425 415.154 53.0526 414.905L53.0784 414.875L53.1802 414.754C53.193 414.723 53.2068 414.691 53.2216 414.66C53.2883 414.5 53.375 414.387 53.4816 414.32C53.5165 414.285 53.5588 414.254 53.6083 414.226C53.7654 414.021 53.9133 413.809 54.0438 413.584C54.292 413.155 54.4349 412.704 54.4393 412.2C54.4444 411.609 53.8451 410.897 53.1393 411.061C52.9773 411.098 52.8044 411.098 52.6365 411.098C52.4491 411.098 52.314 410.999 52.2562 410.821C52.2014 410.652 52.2574 410.503 52.3968 410.397C52.8569 410.05 52.9689 409.547 53.0269 409.017C53.0446 408.856 52.9634 408.754 52.8419 408.667L52.4206 408.365C51.6721 407.828 50.9235 407.29 50.1799 406.747C50.0471 406.65 49.9729 406.686 49.8746 406.781C49.5928 407.055 49.3089 407.326 49.0188 407.591C48.7787 407.81 48.5481 407.817 48.3805 407.626C48.2207 407.444 48.2533 407.234 48.4807 407.015C48.536 406.961 48.5911 406.907 48.6461 406.853C48.8252 406.678 49.0043 406.503 49.1952 406.341C49.3479 406.212 49.3352 406.149 49.1787 406.038C49.0131 405.92 48.8463 405.802 48.6797 405.685C48.1036 405.28 47.5271 404.875 46.9883 404.425C46.6737 404.162 46.4531 404.228 46.1594 404.366C45.1497 404.838 44.2896 405.493 43.621 406.391C43.3605 406.742 43.0818 406.724 42.864 406.346C42.8292 406.285 42.7885 406.265 42.7375 406.239L42.7233 406.232C42.3916 406.063 42.0355 405.999 41.6697 405.966C41.3061 405.934 40.9425 405.901 40.5802 405.857C40.4391 405.841 40.382 405.881 40.3576 406.024C40.3216 406.235 40.2705 406.446 40.202 406.649C40.1419 406.827 40.1546 406.912 40.3698 406.941C40.6755 406.981 40.9722 407.074 41.2561 407.199C41.5096 407.31 41.7264 407.472 41.7048 407.777C41.6827 408.088 41.4353 408.203 41.1659 408.267C40.7991 408.353 40.4232 408.371 40.0501 408.367C39.8196 408.364 39.7407 408.445 39.6706 408.659C39.5815 408.932 39.5771 409.084 39.9107 409.126C40.0744 409.147 40.2322 409.228 40.3614 409.343C40.508 409.472 40.605 409.625 40.5675 409.833C40.5281 410.052 40.386 410.174 40.1837 410.235C39.9293 410.311 39.6651 410.316 39.4043 410.305C39.2232 410.298 39.1331 410.356 39.0885 410.532C39.0128 410.831 38.9059 411.12 38.7577 411.393C38.5731 411.731 38.2946 411.901 38.0228 411.846C37.7262 411.785 37.538 411.523 37.5252 411.12C37.5222 411.026 37.5331 410.926 37.5438 410.827C37.564 410.641 37.5839 410.458 37.5119 410.321C37.442 410.188 37.2772 410.174 37.1043 410.159C36.9911 410.149 36.8744 410.139 36.7785 410.096C36.5743 410.002 36.3897 409.898 36.3819 409.64C36.3737 409.372 36.5429 409.239 36.7664 409.148C37.0022 409.052 37.2476 408.985 37.4998 408.971C37.6837 408.961 37.7647 408.884 37.7822 408.71C37.7905 408.627 37.8117 408.544 37.8361 408.464C37.8921 408.281 37.8262 408.213 37.6369 408.202C37.461 408.192 37.2825 408.159 37.1138 408.108C36.8459 408.027 36.5891 407.898 36.5719 407.577C36.5551 407.262 36.7857 407.096 37.0366 406.969C37.3087 406.832 37.6108 406.769 37.9056 406.772C38.1994 406.776 38.2996 406.65 38.3245 406.395C38.3282 406.358 38.3394 406.321 38.3527 406.277C38.3589 406.257 38.3656 406.235 38.3722 406.211L38.3733 406.208ZM23.5508 434.925C23.8574 435.894 24.5479 436.358 25.5604 436.296C26.2833 436.252 26.9953 436.173 27.6183 435.743C27.838 435.591 28.0937 435.614 28.3505 435.674C29.6232 435.974 30.8976 436.268 32.172 436.561C32.276 436.584 32.3833 436.595 32.4901 436.605L32.5332 436.61C32.8141 436.638 32.9946 436.406 32.8931 436.145C32.7683 435.824 32.6526 435.499 32.537 435.174C32.352 434.655 32.167 434.135 31.9444 433.63L31.9224 433.58L31.9074 433.545L31.906 433.542C31.8147 433.331 31.7237 433.121 31.5707 432.944L31.5675 432.94L31.5609 432.933L31.5565 432.928C31.5512 432.923 31.5458 432.917 31.5409 432.912C31.537 432.907 31.5334 432.903 31.5305 432.898C31.5257 432.891 31.5228 432.883 31.5233 432.876C31.5494 432.554 31.3373 432.483 31.1284 432.414C31.0722 432.395 31.0162 432.376 30.9652 432.353C29.3398 431.605 28.5781 429.854 29.1388 428.161C29.3789 427.437 29.8994 427.005 30.589 426.747C30.6917 426.708 30.8091 426.692 30.9193 426.694C31.1463 426.697 31.2945 426.821 31.3197 427.047C31.345 427.272 31.231 427.426 31.0045 427.473C30.2778 427.624 29.9159 428.092 29.7952 428.802C29.5621 430.172 30.364 431.426 31.7067 431.78C32.0377 431.867 32.3556 431.819 32.6762 431.746C33.0283 431.665 33.2305 431.782 33.2782 432.133C33.3172 432.421 33.5049 432.551 33.7403 432.634C33.9715 432.716 34.1822 432.663 34.3525 432.476C34.4027 432.42 34.4592 432.371 34.516 432.322C34.8062 432.074 35.0751 432.118 35.2421 432.455C35.2956 432.564 35.3566 432.644 35.4676 432.687C36.2073 432.974 36.9668 433.197 37.7646 433.052C38.3306 432.95 38.8734 432.766 39.063 432.102C39.1303 431.866 39.3998 431.78 39.649 431.871C39.7576 431.91 39.8616 431.963 39.9654 432.015C40.0118 432.039 40.0582 432.062 40.105 432.084C40.2376 432.148 40.364 432.165 40.5047 432.088C40.7198 431.97 40.9419 431.944 41.1037 432.174C41.2623 432.399 41.1653 432.594 40.9853 432.761C41.3389 433.018 41.3283 433.051 41.1883 433.487L41.1832 433.503C41.1201 433.7 41.0905 433.907 41.0609 434.114C41.0428 434.241 41.0246 434.368 40.9988 434.492C40.8945 434.995 40.7793 435.497 40.6 435.98C40.5289 436.171 40.5476 436.361 40.5665 436.553L40.5673 436.56C40.6468 437.368 40.2371 437.869 39.4286 437.951C38.8505 438.009 38.2909 437.904 37.736 437.76C37.7114 437.754 37.6869 437.747 37.6624 437.74C37.6197 437.728 37.5772 437.715 37.5348 437.701C37.4317 437.669 37.3287 437.638 37.2234 437.617C36.9327 437.562 36.6929 437.446 36.5572 437.099C36.3518 437.699 35.8804 437.829 35.3874 437.842L35.3178 437.844L35.2312 437.847C34.5285 437.868 33.8167 437.89 33.1867 437.466C33.151 437.442 33.0989 437.432 33.0544 437.432C32.0969 437.43 31.1867 437.173 30.2785 436.912C29.9339 436.813 29.5818 436.749 29.2298 436.686L29.2285 436.685L29.2274 436.685C28.8535 436.617 28.4795 436.55 28.1148 436.44C28.0255 436.413 27.96 436.457 27.8944 436.502C27.8671 436.52 27.8399 436.539 27.8109 436.552C26.6839 437.074 25.5196 437.337 24.3135 436.88C23.0903 436.418 22.5369 435.342 22.8011 434.067C22.9492 433.352 23.6809 432.654 24.4411 432.504C25.0258 432.388 25.0258 432.388 25.0281 431.798L25.0281 431.793C25.0321 430.781 25.2058 429.818 25.8725 429.008C25.9623 428.899 25.9239 428.84 25.8525 428.749C25.5772 428.399 25.3911 428.003 25.2741 427.575C25.1265 427.036 25.2269 426.518 25.4394 426.017C25.4921 425.893 25.5059 425.804 25.4108 425.692C24.6966 424.855 24.8401 423.946 25.2203 423.034C25.2892 422.869 25.2577 422.815 25.1392 422.725C24.6832 422.381 24.2473 422.013 23.8717 421.58C23.0593 420.645 22.5815 419.605 22.9292 418.338C23.1037 417.702 23.3998 417.134 24.0169 416.806C24.1204 416.751 24.1297 416.683 24.1243 416.579C24.0712 415.549 24.5322 414.924 25.5241 414.688C25.664 414.655 25.73 414.625 25.7046 414.458C25.6517 414.11 25.6946 413.763 25.8355 413.441C25.9177 413.254 25.8638 413.139 25.742 412.999C25.1184 412.284 24.6388 411.498 24.4853 410.537C24.069 407.93 25.9532 404.943 28.8043 404.453C29.8178 404.279 30.8262 404.181 31.8277 404.515C32.5188 404.746 33.0906 405.156 33.5849 405.682C33.7004 405.805 33.809 405.939 33.8501 406.106C33.903 406.321 33.8387 406.497 33.6282 406.594C33.4237 406.689 33.2459 406.617 33.1421 406.442C32.8577 405.961 32.408 405.682 31.9456 405.415C31.8584 405.364 31.7681 405.312 31.6582 405.381C31.3215 405.589 30.9655 405.761 30.6094 405.933L30.6083 405.933C30.1907 406.135 29.7729 406.337 29.3858 406.598L29.3417 406.627C29.068 406.811 28.9293 406.905 28.9062 407.021C28.8826 407.14 28.9812 407.284 29.1802 407.575C29.1947 407.596 29.2093 407.617 29.224 407.638C29.2683 407.702 29.3126 407.765 29.3509 407.832C29.4668 408.035 29.4205 408.213 29.2425 408.352C29.067 408.489 28.8447 408.458 28.6982 408.267C28.5393 408.059 28.3938 407.84 28.2525 407.62C28.1831 407.512 28.1311 407.48 28.017 407.573L27.8843 407.681L27.6763 407.85C26.9184 408.465 26.1609 409.079 25.5089 409.813C25.3016 410.046 25.2223 410.28 25.2982 410.601C25.4834 411.383 25.9125 412.019 26.4447 412.593C26.7318 412.903 26.8327 413.202 26.6243 413.6C26.4394 413.953 26.4416 414.336 26.5621 414.718C26.6944 415.138 26.5 415.416 26.0631 415.446L26.0611 415.446C26.0524 415.447 26.0436 415.447 26.035 415.446C25.2102 415.341 24.6711 416.035 25.0105 416.881C25.0976 417.098 24.984 417.34 24.7508 417.391C24.3865 417.469 24.1091 417.64 23.9333 417.967C23.694 418.412 23.5506 418.879 23.6247 419.392C23.7463 420.235 24.236 420.864 24.8258 421.428C25.1907 421.777 25.5892 422.088 25.9985 422.385C26.4191 422.69 26.4309 422.983 26.0332 423.305L26.0148 423.32C25.9547 423.368 25.8954 423.415 25.8721 423.493C25.698 424.076 25.5467 424.656 26.0177 425.186C26.1048 425.284 26.1761 425.397 26.2465 425.509L26.2596 425.53C26.3853 425.729 26.3937 425.938 26.272 426.14C25.8184 426.894 25.9681 427.604 26.4788 428.244C26.6209 428.422 26.6493 428.615 26.6776 428.807C26.6933 428.914 26.709 429.02 26.744 429.123C26.7729 429.208 26.7103 429.305 26.6378 429.371C26.0736 429.886 25.9164 430.571 25.8382 431.288C25.8097 431.548 25.8187 431.809 25.8276 432.07C25.8315 432.183 25.8353 432.296 25.8362 432.408C25.8394 432.836 25.7189 432.996 25.3113 433.124C25.1692 433.169 25.0232 433.212 24.8759 433.228C24.0974 433.31 23.4321 433.897 23.5332 434.837C23.5358 434.85 23.5388 434.86 23.5415 434.869C23.5451 434.868 23.5486 434.867 23.5513 434.867C23.5537 434.867 23.5554 434.866 23.5561 434.865C23.8654 434.421 23.9544 434.415 24.3581 434.825C24.4207 434.711 24.4819 434.599 24.5606 434.474L24.5696 434.456L24.5799 434.435C24.5537 434.404 24.5179 434.404 24.4823 434.404L24.4755 434.403L24.4615 434.403C24.4548 434.403 24.4482 434.402 24.4418 434.401C24.1203 434.354 23.9914 434.11 24.1584 433.845C24.2575 433.688 24.3773 433.514 24.6018 433.63C24.7983 433.731 24.963 433.871 24.843 434.136C24.8376 434.148 24.8451 434.166 24.8551 434.19C24.8599 434.201 24.8651 434.213 24.8698 434.227L24.8661 434.228L24.8579 434.23C24.8546 434.232 24.8514 434.233 24.8483 434.234L24.8623 434.233C24.9714 434.187 25.0826 434.188 25.1936 434.188C25.2518 434.189 25.3099 434.189 25.3677 434.183C25.125 433.761 25.1155 433.621 25.3132 433.503C25.4859 433.4 25.7782 433.488 25.9035 433.681C26.0366 433.885 25.9777 434.075 25.7204 434.268C25.7368 434.319 25.7789 434.34 25.8204 434.361C25.8313 434.366 25.8428 434.372 25.8531 434.378C25.8569 434.38 25.8606 434.383 25.8643 434.385C26.1557 434.575 26.3085 434.839 26.2747 435.188C26.241 435.538 26.0059 435.73 25.703 435.851C25.1575 436.07 24.7 435.922 24.377 435.428C24.3713 435.419 24.3665 435.409 24.3618 435.399C24.3466 435.366 24.3321 435.334 24.2856 435.358C23.9915 435.504 23.8742 435.328 23.7569 435.153C23.7398 435.127 23.7226 435.101 23.7049 435.077C23.6982 435.067 23.6915 435.058 23.6846 435.049L23.6716 435.033L23.6609 435.02C23.6514 435.008 23.6468 434.993 23.6422 434.978C23.6315 434.942 23.6206 434.908 23.5508 434.925ZM46.8205 415.288C46.5835 414.727 46.7652 414.433 47.3567 414.388C47.4823 414.378 47.608 414.377 47.7339 414.376C47.925 414.374 48.1164 414.373 48.308 414.341C48.7545 414.268 49.1239 414.097 49.3799 413.705C49.5989 413.37 49.8991 413.123 50.2659 412.952C50.7603 412.721 51.244 412.692 51.6982 413.026C52.1653 413.37 52.3593 413.855 52.3174 414.423C52.2743 415.007 51.9663 415.453 51.4676 415.735C50.4118 416.333 49.2778 416.452 48.1045 416.18C47.5735 416.057 47.1737 415.717 46.8205 415.288ZM28.024 415.365C28.9034 415.76 29.7993 415.852 30.7315 415.466C30.9121 415.381 31.0642 415.291 31.1922 415.164C31.3223 415.036 31.376 414.883 31.3203 414.705C31.2601 414.513 31.1124 414.419 30.9221 414.404C30.803 414.394 30.6774 414.404 30.5612 414.431C30.0014 414.565 29.5717 414.403 29.285 413.895C29.2759 413.878 29.2647 413.863 29.253 413.849C29.0394 413.583 28.7956 413.358 28.4612 413.25C28.0242 413.108 27.5312 413.282 27.2546 413.68C26.9944 414.055 27.0177 414.409 27.3304 414.81C27.5174 415.05 27.7487 415.242 28.024 415.365ZM47.5462 418.673C47.2953 418.421 47.065 418.178 46.8861 417.89C46.7849 417.727 46.7345 417.57 46.8385 417.394C46.9449 417.214 47.0988 417.151 47.3102 417.172C47.539 417.196 47.7686 417.213 47.998 417.229L47.999 417.23C48.2067 417.245 48.4143 417.26 48.6215 417.28C48.902 417.307 49.1784 417.281 49.4555 417.255L49.5636 417.245C49.5935 417.242 49.6234 417.239 49.6534 417.237C50.2017 417.191 50.5191 417.397 50.6344 417.855C50.7374 418.264 50.5211 418.652 50.0633 418.855C49.5675 419.074 49.0394 419.138 48.5043 419.126C48.1327 419.119 47.83 418.93 47.5462 418.673ZM27.9354 418.457C28.4959 418.247 28.9368 417.887 29.3315 417.424C29.4233 417.313 29.4723 417.203 29.5044 417.085C29.567 416.853 29.5498 416.634 29.366 416.464C29.1887 416.299 28.9719 416.3 28.7614 416.387C28.1642 416.634 27.5454 416.692 26.9015 416.716C26.2536 416.74 25.8871 417.046 26.213 417.797C26.4347 418.308 27.2078 418.73 27.9354 418.457ZM36.1417 417.298C35.9794 417.228 35.8734 417.135 35.9123 416.97C35.9527 416.798 36.0904 416.747 36.2571 416.75C36.342 416.751 36.4272 416.756 36.5121 416.762C36.7157 416.775 36.9194 416.788 37.1231 416.742C37.4431 416.671 37.4845 416.605 37.3839 416.304C37.2621 415.94 37.4165 415.628 37.778 415.504C37.9506 415.445 38.1288 415.437 38.3043 415.47C38.5567 415.517 38.7623 415.635 38.8375 415.903C38.9088 416.158 38.8083 416.359 38.6298 416.532C38.5854 416.575 38.5378 416.615 38.4859 416.658L38.484 416.66L38.443 416.694L38.4079 416.724C38.7409 416.912 39.0701 416.858 39.3995 416.789L39.4164 416.785L39.4305 416.781L39.4509 416.776C39.474 416.769 39.497 416.762 39.5199 416.754C39.5512 416.744 39.5825 416.734 39.6143 416.726C39.7644 416.688 39.8777 416.745 39.929 416.885C39.9854 417.04 39.9321 417.17 39.7728 417.224C39.1563 417.43 38.5419 417.487 37.977 417.088C37.775 416.945 37.7026 417.022 37.635 417.202C37.5009 417.56 37.2883 417.875 37.077 418.188L37.0237 418.267C36.8417 418.538 36.5306 418.498 36.3706 418.205C36.2664 418.014 36.2322 417.807 36.1971 417.593C36.181 417.495 36.1648 417.397 36.1417 417.298ZM46.57 418.887C46.3642 418.75 46.1589 418.726 45.9142 418.83C45.5939 419.027 45.5453 419.177 45.6877 419.485C45.7939 419.714 45.9261 419.929 46.0992 420.114C46.3828 420.418 46.7159 420.631 47.1491 420.619C47.5855 420.608 47.9775 420.33 48.0268 420.012C48.0761 419.695 47.8738 419.438 47.4164 419.248C47.3809 419.233 47.345 419.219 47.3089 419.206C47.255 419.185 47.2006 419.166 47.1462 419.146L47.1452 419.146C46.9461 419.075 46.7471 419.004 46.57 418.887ZM30.3691 419.244C29.9633 419.684 29.5557 420.078 28.9243 420.097C28.661 420.104 28.4441 420.029 28.3136 419.786C28.1221 419.428 28.2458 419.074 28.6342 418.917C28.7112 418.886 28.7887 418.856 28.8661 418.826C29.2135 418.692 29.5592 418.558 29.8574 418.314C30.0325 418.172 30.2648 418.143 30.4514 418.315C30.639 418.488 30.5897 418.692 30.5413 418.893C30.5287 418.945 30.5161 418.997 30.5078 419.048C30.5005 419.093 30.4643 419.134 30.4237 419.18C30.4056 419.2 30.3867 419.221 30.3691 419.244ZM34.6686 413.783C34.4724 413.507 34.1683 413.52 33.8151 413.835C33.6179 414.161 33.6255 414.416 33.8246 414.618C34.0049 414.801 34.2613 414.825 34.4916 414.681C34.8147 414.478 34.8902 414.095 34.6686 413.783ZM43.0563 414.532C42.8197 414.742 42.5796 414.783 42.3292 414.61C42.1058 414.457 42.0669 414.232 42.148 413.991C42.2199 413.778 42.3601 413.615 42.6023 413.591C42.8383 413.567 43.0281 413.68 43.1423 413.871C43.2734 414.089 43.2377 414.317 43.0563 414.532ZM67.0416 419.42C67.2283 419.433 67.4216 419.447 67.6216 419.46C67.8216 419.46 68.015 419.467 68.2016 419.48C68.2683 419.48 68.3416 419.487 68.4216 419.5L68.6616 419.54C68.9283 419.593 69.1416 419.707 69.3016 419.88C69.475 420.04 69.5616 420.26 69.5616 420.54C69.5616 420.727 69.5416 420.94 69.5016 421.18C69.475 421.42 69.375 421.607 69.2016 421.74C69.1216 421.807 69.0416 421.86 68.9616 421.9C68.8816 421.94 68.7883 421.973 68.6816 422C68.4683 422.027 68.2083 422.033 67.9016 422.02C67.595 422.007 67.335 422.007 67.1216 422.02C67.0683 422.02 67.0416 422.053 67.0416 422.12V422.7V423.38V424.06V424.64C67.0683 425.333 67.0683 426.013 67.0416 426.68V426.96C67.0416 427.133 67.035 427.32 67.0216 427.52C67.0216 427.733 67.0083 427.94 66.9816 428.14C66.955 428.34 66.9083 428.527 66.8416 428.7C66.775 428.887 66.6816 429.04 66.5616 429.16C66.4016 429.347 66.1883 429.44 65.9216 429.44L65.8816 429.42C65.5616 429.407 65.3016 429.313 65.1016 429.14C64.915 428.967 64.7683 428.753 64.6616 428.5C64.5683 428.247 64.5083 427.98 64.4816 427.7C64.455 427.433 64.4416 427.193 64.4416 426.98V415.1V414.92C64.4416 414.8 64.455 414.667 64.4816 414.52C64.5083 414.36 64.5483 414.2 64.6016 414.04C64.6683 413.867 64.755 413.727 64.8616 413.62C64.955 413.527 65.0883 413.46 65.2616 413.42C65.4483 413.367 65.615 413.34 65.7616 413.34C66.055 413.34 66.3016 413.44 66.5016 413.64C66.6883 413.827 66.795 414.027 66.8216 414.24C66.8616 414.44 66.895 414.653 66.9216 414.88C66.935 414.933 66.9416 415.013 66.9416 415.12C66.9683 415.347 66.9816 415.58 66.9816 415.82L67.0216 416.54V416.8V417.12C67.035 417.253 67.0416 417.46 67.0416 417.74V418.96V419.42ZM83.5032 421.3C83.2765 421.247 83.0499 421.213 82.8232 421.2C82.5432 421.187 82.2099 421.18 81.8232 421.18H80.6032C80.1765 421.18 79.7499 421.187 79.3232 421.2H78.1232C78.1232 421.04 78.1165 420.82 78.1032 420.54C78.1032 420.247 78.0965 419.98 78.0832 419.74C80.0165 419.673 81.4565 419.407 82.4032 418.94C83.3632 418.46 83.8432 417.667 83.8432 416.56C83.8432 415.96 83.6765 415.46 83.3432 415.06C83.0232 414.647 82.5632 414.32 81.9632 414.08C81.3632 413.827 80.6432 413.647 79.8032 413.54C78.9632 413.433 78.0365 413.38 77.0232 413.38C74.7832 413.393 73.0899 413.653 71.9432 414.16C70.7965 414.667 70.2232 415.467 70.2232 416.56C70.2232 417.6 70.6499 418.36 71.5032 418.84C72.3565 419.32 73.6165 419.607 75.2832 419.7V421.2H74.4232C74.1832 421.187 73.9499 421.18 73.7232 421.18H73.0432C72.8165 421.18 72.5432 421.187 72.2232 421.2C71.9165 421.213 71.6165 421.22 71.3232 421.22C71.0299 421.207 70.7432 421.247 70.4632 421.34C70.2499 421.407 70.0765 421.54 69.9432 421.74C69.8232 421.927 69.7632 422.113 69.7632 422.3C69.7632 422.593 69.9165 422.853 70.2232 423.08C70.4499 423.267 70.7232 423.367 71.0432 423.38C71.3765 423.393 71.6965 423.393 72.0032 423.38L82.6632 423.36H82.8432C82.9632 423.36 83.1032 423.353 83.2632 423.34C83.4232 423.313 83.5832 423.28 83.7432 423.24C83.9165 423.187 84.0565 423.107 84.1632 423C84.2432 422.933 84.3032 422.82 84.3432 422.66C84.3965 422.5 84.4232 422.353 84.4232 422.22C84.4232 421.953 84.3299 421.747 84.1432 421.6C83.9565 421.453 83.7432 421.353 83.5032 421.3ZM83.1432 426.98C83.0632 426.953 83.0165 426.94 83.0032 426.94H75.6632C75.6556 426.94 75.5985 426.942 75.4918 426.946L75.1632 426.96C74.8565 426.973 74.5032 426.98 74.1032 426.98C73.6365 426.98 73.2899 426.973 73.0632 426.96C72.8499 426.933 72.7299 426.913 72.7032 426.9C72.6765 426.807 72.6565 426.707 72.6432 426.6C72.6299 426.48 72.6232 426.367 72.6232 426.26C72.6099 426.113 72.5965 425.953 72.5832 425.78C72.5699 425.593 72.5365 425.42 72.4832 425.26C72.4299 425.1 72.3565 424.96 72.2632 424.84C72.1699 424.707 72.0365 424.613 71.8632 424.56C71.7965 424.533 71.7032 424.52 71.5832 424.52C71.4765 424.507 71.3899 424.5 71.3232 424.5C71.0432 424.5 70.8099 424.587 70.6232 424.76C70.4365 424.933 70.3299 425.16 70.3032 425.44C70.2899 425.587 70.2832 425.773 70.2832 426C70.2832 426.213 70.2899 426.393 70.3032 426.54V428.32C70.3032 428.627 70.4499 428.86 70.7432 429.02C71.0365 429.193 71.4365 429.28 71.9432 429.28H82.8632C82.8765 429.28 82.9699 429.26 83.1432 429.22C83.3165 429.18 83.4765 429.067 83.6232 428.88C83.8632 428.6 83.9432 428.207 83.8632 427.7C83.8365 427.567 83.7765 427.447 83.6832 427.34C83.6032 427.247 83.5099 427.167 83.4032 427.1C83.3099 427.047 83.2232 427.007 83.1432 426.98ZM101.252 426.78C101.252 427.113 101.239 427.38 101.212 427.58C101.199 427.78 101.139 428.033 101.032 428.34C100.965 428.54 100.852 428.707 100.692 428.84C100.532 428.973 100.305 429.04 100.012 429.04C99.9319 429.04 99.8319 429.027 99.7119 429C99.5919 428.987 99.4986 428.953 99.4319 428.9C99.2986 428.82 99.1919 428.687 99.1119 428.5C99.0453 428.327 98.9919 428.14 98.9519 427.94C98.9119 427.74 98.8853 427.547 98.8719 427.36V426.92V421.78L96.7519 421.72C96.6319 421.72 96.5053 421.707 96.3719 421.68C96.2519 421.64 96.1319 421.587 96.0119 421.52C95.9053 421.44 95.8119 421.34 95.7319 421.22C95.6519 421.087 95.6053 420.92 95.5919 420.72C95.5653 420.48 95.5786 420.227 95.6319 419.96C95.6986 419.68 95.8853 419.467 96.1919 419.32C96.3119 419.253 96.4586 419.213 96.6319 419.2C96.8186 419.187 96.9786 419.187 97.1119 419.2H98.8719V415.28V414.76C98.8719 414.573 98.8919 414.393 98.9319 414.22C98.9586 414.153 98.9786 414.093 98.9919 414.04C99.0186 413.987 99.0453 413.927 99.0719 413.86C99.1519 413.727 99.2319 413.627 99.3119 413.56C99.3919 413.48 99.5053 413.413 99.6519 413.36C99.7186 413.333 99.7853 413.32 99.8519 413.32C99.8681 413.317 99.884 413.315 99.8997 413.313C99.9244 413.309 99.9484 413.307 99.9717 413.305C100.007 413.302 100.04 413.3 100.072 413.3C100.512 413.3 100.845 413.5 101.072 413.9C101.125 413.98 101.159 414.093 101.172 414.24C101.199 414.387 101.219 414.54 101.232 414.7C101.245 414.847 101.252 414.98 101.252 415.1V415.3V426.78ZM104.772 428.48C104.692 428.653 104.565 428.8 104.392 428.92C104.245 429.013 104.085 429.067 103.912 429.08C103.739 429.107 103.565 429.1 103.392 429.06C103.192 429.02 103.025 428.933 102.892 428.8C102.772 428.68 102.679 428.54 102.612 428.38C102.545 428.22 102.499 428.047 102.472 427.86C102.445 427.673 102.432 427.493 102.432 427.32V415.56V415.06C102.432 414.86 102.445 414.673 102.472 414.5C102.499 414.313 102.532 414.14 102.572 413.98C102.625 413.82 102.699 413.693 102.792 413.6C102.939 413.467 103.092 413.387 103.252 413.36C103.412 413.32 103.585 413.3 103.772 413.3C103.999 413.3 104.205 413.367 104.392 413.5C104.579 413.62 104.712 413.787 104.792 414C104.912 414.28 104.979 414.567 104.992 414.86C105.005 415.153 105.019 415.453 105.032 415.76C105.045 416.12 105.052 416.473 105.052 416.82V417.98V419.38C105.052 419.9 105.045 420.507 105.032 421.2V423.54V426.58C105.032 426.927 105.019 427.26 104.992 427.58C104.979 427.9 104.905 428.2 104.772 428.48ZM94.1119 428.04C93.8453 428.04 93.5853 428.027 93.3319 428C93.0919 427.973 92.8386 427.953 92.5719 427.94C92.3719 427.927 92.1653 427.887 91.9519 427.82C91.7386 427.767 91.5586 427.667 91.4119 427.52C91.2653 427.373 91.1519 427.247 91.0719 427.14C91.0053 427.033 90.9519 426.887 90.9119 426.7C90.8319 426.273 90.7986 425.833 90.8119 425.38C90.8253 424.927 90.8319 424.48 90.8319 424.04V422.4V421.94V420.76C90.8319 420.28 90.8253 419.753 90.8119 419.18V417.54V416.14C90.8119 415.727 90.8186 415.447 90.8319 415.3C90.8453 415.033 90.9053 414.76 91.0119 414.48C91.1186 414.187 91.3453 413.967 91.6919 413.82C91.8386 413.767 91.9919 413.727 92.1519 413.7C92.3119 413.673 92.4719 413.68 92.6319 413.72C92.7919 413.76 92.9386 413.833 93.0719 413.94C93.2186 414.033 93.3253 414.167 93.3919 414.34C93.4719 414.527 93.5253 414.727 93.5519 414.94C93.5919 415.14 93.6119 415.353 93.6119 415.58C93.6119 415.727 93.6053 415.94 93.5919 416.22V416.86V418.6C93.5919 419.32 93.5853 420.073 93.5719 420.86V423.12C93.5719 423.84 93.5853 424.413 93.6119 424.84C93.6119 424.933 93.6186 425.027 93.6319 425.12C93.6453 425.213 93.6853 425.293 93.7519 425.36C93.8319 425.427 93.9253 425.467 94.0319 425.48H94.3719L94.7756 425.509C94.9592 425.521 95.1113 425.532 95.2319 425.54H95.6919C95.8119 425.54 95.9119 425.547 95.9919 425.56C96.0853 425.573 96.2119 425.587 96.3719 425.6C96.5986 425.627 96.8319 425.66 97.0719 425.7C97.3253 425.727 97.5519 425.807 97.7519 425.94C97.8586 426.007 97.9319 426.1 97.9719 426.22C98.0253 426.327 98.0586 426.44 98.0719 426.56C98.0853 426.627 98.0919 426.693 98.0919 426.76V426.94C98.0786 427.087 98.0453 427.193 97.9919 427.26C97.9519 427.34 97.8786 427.433 97.7719 427.54C97.5853 427.74 97.3386 427.873 97.0319 427.94L96.4719 428.02C96.2986 428.047 96.1186 428.06 95.9319 428.06C95.8653 428.06 95.7453 428.053 95.5719 428.04H95.0119H94.4519H94.1119ZM113.523 416C113.99 415.96 114.443 415.94 114.883 415.94C115.323 415.967 115.757 415.987 116.183 416C116.623 416.013 117.057 416.027 117.483 416.04C117.51 416.307 117.523 416.567 117.523 416.82V417.58C117.23 417.567 116.91 417.56 116.563 417.56H115.663C114.837 417.56 114.057 417.58 113.323 417.62C113.203 417.633 113.097 417.653 113.003 417.68C112.923 417.693 112.83 417.707 112.723 417.72L112.403 417.8C112.31 417.827 112.217 417.913 112.123 418.06C112.03 418.207 111.983 418.407 111.983 418.66C111.983 418.913 112.023 419.12 112.103 419.28C112.157 419.373 112.223 419.447 112.303 419.5C112.383 419.54 112.457 419.573 112.523 419.6C112.603 419.613 112.67 419.62 112.723 419.62H112.823H117.523C117.523 419.847 117.517 420.053 117.503 420.24C117.49 420.413 117.49 420.587 117.503 420.76C117.53 420.92 117.57 421.087 117.623 421.26C117.677 421.42 117.763 421.6 117.883 421.8C118.003 421.987 118.157 422.12 118.343 422.2C118.53 422.267 118.723 422.287 118.923 422.26C119.137 422.233 119.337 422.16 119.523 422.04C119.71 421.92 119.857 421.767 119.963 421.58C120.15 421.26 120.237 420.94 120.223 420.62C120.21 420.3 120.217 419.953 120.243 419.58L120.223 415.4C120.223 415.173 120.203 414.947 120.163 414.72C120.137 414.493 120.063 414.28 119.943 414.08C119.877 413.96 119.79 413.86 119.683 413.78C119.577 413.7 119.463 413.627 119.343 413.56C119.277 413.533 119.203 413.507 119.123 413.48C119.07 413.453 119.017 413.44 118.963 413.44H118.783C118.663 413.427 118.543 413.42 118.423 413.42H118.063H117.723C117.603 413.407 117.483 413.4 117.363 413.4H116.803C116.723 413.387 116.643 413.387 116.563 413.4H116.323H115.123H114.483C114.243 413.387 114.03 413.38 113.843 413.38C113.55 413.393 113.303 413.407 113.103 413.42C112.917 413.42 112.683 413.46 112.403 413.54C112.177 413.607 111.957 413.713 111.743 413.86C111.53 414.007 111.417 414.233 111.403 414.54C111.403 414.873 111.457 415.187 111.563 415.48C111.683 415.76 111.857 415.913 112.083 415.94C112.577 416.007 113.057 416.027 113.523 416ZM123.743 425.86C123.263 425.513 122.777 425.167 122.283 424.82L120.503 423.46C120.357 423.353 120.217 423.233 120.083 423.1C119.95 422.967 119.79 422.873 119.603 422.82C119.483 422.793 119.363 422.8 119.243 422.84C119.123 422.88 119.003 422.94 118.883 423.02C118.763 423.087 118.65 423.167 118.543 423.26C118.437 423.34 118.343 423.413 118.263 423.48C118.037 423.667 117.81 423.827 117.583 423.96C117.357 424.08 117.13 424.227 116.903 424.4C116.383 424.773 115.83 425.173 115.243 425.6C114.657 426.013 114.11 426.413 113.603 426.8C113.443 426.933 113.243 427.087 113.003 427.26C112.777 427.433 112.63 427.633 112.563 427.86C112.497 428.087 112.51 428.307 112.603 428.52C112.697 428.733 112.85 428.893 113.063 429C113.223 429.08 113.397 429.12 113.583 429.12C113.783 429.133 113.977 429.113 114.163 429.06C114.35 429.02 114.537 428.96 114.723 428.88C114.91 428.8 115.077 428.72 115.223 428.64C115.61 428.44 116.003 428.187 116.403 427.88C116.817 427.587 117.197 427.293 117.543 427C117.663 426.893 117.803 426.773 117.963 426.64C118.137 426.507 118.297 426.387 118.443 426.28C118.577 426.173 118.697 426.087 118.803 426.02C118.91 425.953 119.057 425.913 119.243 425.9C119.457 425.873 119.643 425.927 119.803 426.06C119.963 426.193 120.117 426.313 120.263 426.42C120.477 426.567 120.69 426.727 120.903 426.9C121.117 427.06 121.337 427.213 121.563 427.36C122.017 427.667 122.47 427.96 122.923 428.24C123.377 428.52 123.85 428.773 124.343 429C124.583 429.107 124.81 429.173 125.023 429.2C125.237 429.227 125.457 429.147 125.683 428.96C125.83 428.84 125.943 428.68 126.023 428.48C126.117 428.28 126.143 428.087 126.103 427.9C126.063 427.673 125.937 427.487 125.723 427.34C125.51 427.207 125.323 427.073 125.163 426.94C124.697 426.567 124.223 426.207 123.743 425.86ZM121.783 418.9C122.09 418.913 122.437 418.933 122.823 418.96H123.303V420.98C123.317 421.127 123.337 421.273 123.363 421.42C123.39 421.567 123.443 421.713 123.523 421.86C123.59 422.02 123.703 422.153 123.863 422.26C124.077 422.407 124.297 422.48 124.523 422.48C124.71 422.48 124.897 422.427 125.083 422.32C125.217 422.24 125.323 422.14 125.403 422.02C125.483 421.9 125.543 421.787 125.583 421.68C125.623 421.56 125.65 421.46 125.663 421.38C125.677 421.3 125.683 421.253 125.683 421.24H125.703V414.72C125.703 414.667 125.69 414.527 125.663 414.3C125.65 414.06 125.603 413.86 125.523 413.7C125.403 413.433 125.13 413.267 124.703 413.2C124.477 413.173 124.263 413.187 124.063 413.24C123.877 413.293 123.73 413.387 123.623 413.52C123.53 413.627 123.47 413.727 123.443 413.82C123.417 413.913 123.39 414.013 123.363 414.12C123.323 414.267 123.297 414.413 123.283 414.56C123.283 414.707 123.29 414.853 123.303 415V416.72C123.25 416.72 123.15 416.727 123.003 416.74C122.857 416.74 122.697 416.747 122.523 416.76C122.363 416.773 122.21 416.787 122.063 416.8C121.917 416.8 121.817 416.807 121.763 416.82C121.497 416.887 121.31 416.973 121.203 417.08C121.097 417.173 121.023 417.293 120.983 417.44C120.957 417.587 120.943 417.76 120.943 417.96C120.943 418.16 120.983 418.327 121.063 418.46C121.237 418.727 121.477 418.873 121.783 418.9Z" fill="black"/>
</svg>
