<svg width="300" height="450" viewBox="0 0 300 450" fill="none" xmlns="http://www.w3.org/2000/svg">
<path fill-rule="evenodd" clip-rule="evenodd" d="M113.428 405.9C113.459 405.937 113.431 406.025 113.373 406.208L113.372 406.211C113.366 406.235 113.359 406.257 113.353 406.277C113.339 406.321 113.328 406.358 113.325 406.395C113.3 406.65 113.199 406.776 112.906 406.772C112.611 406.769 112.309 406.832 112.037 406.969C111.786 407.096 111.555 407.262 111.572 407.577C111.589 407.898 111.846 408.027 112.114 408.108C112.283 408.159 112.461 408.192 112.637 408.202C112.826 408.213 112.892 408.281 112.836 408.464C112.812 408.544 112.79 408.627 112.782 408.71C112.765 408.884 112.684 408.961 112.5 408.971C112.248 408.985 112.002 409.052 111.766 409.148C111.543 409.239 111.374 409.372 111.382 409.64C111.39 409.898 111.574 410.002 111.778 410.096C111.874 410.139 111.991 410.149 112.104 410.159C112.277 410.174 112.442 410.188 112.512 410.321C112.584 410.458 112.564 410.641 112.544 410.827C112.533 410.926 112.522 411.026 112.525 411.12C112.538 411.523 112.726 411.785 113.023 411.846C113.295 411.901 113.573 411.731 113.758 411.393C113.906 411.12 114.013 410.831 114.089 410.532C114.133 410.356 114.223 410.298 114.404 410.305C114.665 410.316 114.929 410.311 115.184 410.235C115.386 410.174 115.528 410.052 115.567 409.833C115.605 409.625 115.508 409.472 115.361 409.343C115.232 409.228 115.074 409.147 114.911 409.126C114.577 409.084 114.581 408.932 114.671 408.659C114.741 408.445 114.82 408.364 115.05 408.367C115.423 408.371 115.799 408.353 116.166 408.267C116.435 408.203 116.683 408.088 116.705 407.777C116.726 407.472 116.51 407.31 116.256 407.199C115.972 407.074 115.676 406.981 115.37 406.941C115.155 406.912 115.142 406.827 115.202 406.649C115.27 406.446 115.322 406.235 115.358 406.024C115.382 405.881 115.439 405.841 115.58 405.857C115.943 405.901 116.306 405.934 116.67 405.966C117.035 405.999 117.392 406.063 117.723 406.232L117.737 406.239C117.789 406.265 117.829 406.285 117.864 406.346C118.082 406.724 118.36 406.742 118.621 406.391C119.29 405.493 120.15 404.838 121.159 404.366C121.453 404.228 121.674 404.162 121.988 404.425C122.527 404.875 123.104 405.28 123.68 405.685C123.846 405.802 124.013 405.92 124.179 406.038C124.335 406.149 124.348 406.212 124.195 406.341C124.004 406.503 123.825 406.678 123.646 406.853C123.591 406.907 123.536 406.961 123.481 407.015C123.253 407.234 123.221 407.444 123.38 407.626C123.548 407.817 123.779 407.81 124.019 407.591C124.309 407.326 124.593 407.055 124.875 406.781C124.973 406.686 125.047 406.65 125.18 406.747C125.924 407.29 126.672 407.828 127.421 408.365L127.842 408.667C127.963 408.754 128.045 408.856 128.027 409.017C127.969 409.547 127.857 410.05 127.397 410.397C127.257 410.503 127.201 410.652 127.256 410.821C127.314 410.999 127.449 411.098 127.636 411.098C127.804 411.098 127.977 411.098 128.139 411.061C128.845 410.897 129.444 411.609 129.439 412.2C129.435 412.704 129.292 413.155 129.044 413.584C128.773 414.052 128.426 414.463 128.078 414.875L128.053 414.905C127.824 415.176 127.843 415.488 128.133 415.609C128.4 415.72 128.365 415.854 128.287 416.057C128.119 416.493 128.218 416.685 128.668 416.791C129.046 416.881 129.232 417.133 129.301 417.492C129.339 417.687 129.328 417.886 129.285 418.078C129.214 418.396 129.137 418.712 129.061 419.029C129.019 419.202 128.977 419.376 128.936 419.549C128.824 420.027 128.571 420.399 128.14 420.651C127.941 420.768 127.891 420.963 127.991 421.161C128.089 421.355 128.261 421.446 128.484 421.353C128.569 421.318 128.657 421.279 128.73 421.224C129.151 420.906 129.469 420.51 129.631 420.003C129.833 419.37 129.995 418.723 130.082 418.067C130.187 417.274 129.999 416.574 129.231 416.155C129.122 416.095 129.134 416.02 129.148 415.934L129.151 415.92C129.186 415.7 129.174 415.479 129.032 415.304C128.908 415.151 128.955 415.059 129.063 414.928C129.523 414.369 129.918 413.773 130.123 413.065C130.552 411.583 129.698 410.446 128.659 410.279C128.527 410.258 128.54 410.194 128.58 410.106C128.684 409.874 128.749 409.63 128.787 409.38C129.159 406.909 128.034 404.675 125.829 403.495C124.745 402.915 123.6 402.914 122.438 403.14C120.815 403.457 119.453 404.247 118.34 405.468C118.328 405.482 118.317 405.499 118.306 405.516C118.266 405.579 118.225 405.642 118.107 405.558C117.827 405.357 117.494 405.281 117.159 405.236C116.806 405.189 116.451 405.152 116.097 405.116L115.848 405.09C114.391 404.938 112.951 404.995 111.548 405.463C110.746 405.73 109.992 406.102 109.251 406.502C109.028 406.623 108.96 406.845 109.066 407.046C109.174 407.252 109.378 407.31 109.619 407.2C109.679 407.172 109.737 407.141 109.795 407.109C109.827 407.091 109.86 407.073 109.892 407.056C110.925 406.52 111.98 406.048 113.151 405.897L113.158 405.896C113.316 405.876 113.398 405.866 113.428 405.9ZM100.56 436.296C99.5479 436.358 98.8574 435.894 98.5508 434.925C98.6206 434.908 98.6315 434.942 98.6422 434.978C98.6468 434.993 98.6514 435.008 98.6609 435.02C98.6951 435.06 98.726 435.106 98.7569 435.153C98.8742 435.328 98.9915 435.504 99.2856 435.358C99.3321 435.334 99.3467 435.366 99.3618 435.399C99.3665 435.409 99.3713 435.419 99.377 435.428C99.7 435.922 100.157 436.07 100.703 435.851C101.006 435.73 101.241 435.538 101.275 435.188C101.308 434.839 101.156 434.575 100.864 434.385C100.851 434.376 100.836 434.368 100.82 434.361C100.779 434.34 100.737 434.319 100.72 434.268C100.978 434.075 101.037 433.885 100.903 433.681C100.778 433.488 100.486 433.4 100.313 433.503C100.116 433.621 100.125 433.761 100.368 434.183C100.31 434.189 100.252 434.189 100.194 434.188C100.083 434.188 99.9714 434.187 99.8623 434.233L99.8483 434.234C99.8551 434.231 99.8623 434.229 99.8698 434.227C99.8651 434.213 99.8599 434.201 99.8551 434.19C99.8451 434.166 99.8376 434.148 99.843 434.136C99.963 433.871 99.7984 433.731 99.6018 433.63C99.3773 433.514 99.2575 433.688 99.1584 433.845C98.9914 434.11 99.1203 434.354 99.4418 434.401C99.4549 434.403 99.4686 434.403 99.4823 434.404C99.5179 434.404 99.5537 434.404 99.5799 434.435C99.5733 434.448 99.5669 434.461 99.5606 434.474C99.4819 434.599 99.4207 434.711 99.3581 434.825C98.9544 434.415 98.8654 434.421 98.5561 434.865C98.5561 434.865 98.5537 434.867 98.5513 434.867C98.5486 434.867 98.5451 434.868 98.5415 434.869C98.5388 434.86 98.5358 434.85 98.5332 434.837C98.4321 433.897 99.0974 433.31 99.8759 433.228C100.023 433.212 100.169 433.169 100.311 433.124C100.719 432.996 100.839 432.836 100.836 432.408C100.835 432.296 100.831 432.183 100.828 432.07C100.819 431.809 100.81 431.548 100.838 431.288C100.916 430.571 101.074 429.886 101.638 429.371C101.71 429.305 101.773 429.208 101.744 429.123C101.709 429.02 101.693 428.914 101.678 428.807C101.649 428.615 101.621 428.422 101.479 428.244C100.968 427.604 100.818 426.894 101.272 426.14C101.394 425.938 101.385 425.729 101.26 425.53L101.247 425.509C101.176 425.397 101.105 425.284 101.018 425.186C100.547 424.656 100.698 424.076 100.872 423.493C100.895 423.415 100.955 423.368 101.015 423.32L101.033 423.305C101.431 422.983 101.419 422.69 100.999 422.385C100.589 422.088 100.191 421.777 99.8258 421.428C99.236 420.864 98.7463 420.235 98.6247 419.392C98.5506 418.879 98.694 418.412 98.9333 417.967C99.1091 417.64 99.3865 417.469 99.7508 417.391C99.9841 417.34 100.098 417.098 100.011 416.881C99.6711 416.035 100.21 415.341 101.035 415.446C101.044 415.447 101.052 415.447 101.061 415.446L101.063 415.446C101.5 415.416 101.694 415.138 101.562 414.718C101.442 414.336 101.439 413.953 101.624 413.6C101.833 413.202 101.732 412.903 101.445 412.593C100.913 412.019 100.483 411.383 100.298 410.601C100.222 410.28 100.302 410.046 100.509 409.813C101.161 409.079 101.918 408.465 102.676 407.85C102.79 407.758 102.904 407.666 103.017 407.573C103.131 407.48 103.183 407.512 103.252 407.62C103.394 407.84 103.539 408.059 103.698 408.267C103.845 408.458 104.067 408.489 104.242 408.352C104.42 408.213 104.467 408.035 104.351 407.832C104.313 407.765 104.268 407.702 104.224 407.638C104.209 407.617 104.195 407.596 104.18 407.575C103.981 407.284 103.883 407.14 103.906 407.021C103.929 406.905 104.068 406.811 104.342 406.627L104.386 406.598C104.773 406.337 105.191 406.135 105.608 405.933C105.965 405.761 106.321 405.589 106.658 405.381C106.768 405.312 106.858 405.364 106.946 405.415C107.408 405.682 107.858 405.961 108.142 406.442C108.246 406.617 108.424 406.689 108.628 406.594C108.839 406.497 108.903 406.321 108.85 406.106C108.809 405.939 108.7 405.805 108.585 405.682C108.091 405.156 107.519 404.746 106.828 404.515C105.826 404.181 104.818 404.279 103.804 404.453C100.953 404.943 99.069 407.93 99.4853 410.537C99.6388 411.498 100.118 412.284 100.742 412.999C100.864 413.139 100.918 413.254 100.835 413.441C100.695 413.763 100.652 414.11 100.705 414.458C100.73 414.625 100.664 414.655 100.524 414.688C99.5322 414.924 99.0712 415.549 99.1243 416.579C99.1297 416.683 99.1204 416.751 99.017 416.806C98.3998 417.134 98.1037 417.702 97.9292 418.338C97.5815 419.605 98.0593 420.645 98.8717 421.58C99.2473 422.013 99.6832 422.381 100.139 422.725C100.258 422.815 100.289 422.869 100.22 423.034C99.8401 423.946 99.6966 424.855 100.411 425.692C100.506 425.804 100.492 425.893 100.439 426.017C100.227 426.518 100.127 427.036 100.274 427.575C100.391 428.003 100.577 428.399 100.852 428.749C100.924 428.84 100.962 428.899 100.872 429.008C100.206 429.818 100.032 430.781 100.028 431.793L100.028 431.798C100.026 432.388 100.026 432.388 99.4411 432.504C98.6809 432.654 97.9492 433.352 97.8011 434.067C97.5369 435.342 98.0903 436.418 99.3135 436.88C100.52 437.337 101.684 437.074 102.811 436.552C102.84 436.539 102.867 436.52 102.894 436.502C102.96 436.457 103.026 436.413 103.115 436.44C103.48 436.55 103.855 436.618 104.23 436.686C104.582 436.749 104.934 436.813 105.279 436.912C106.187 437.173 107.097 437.43 108.054 437.432C108.099 437.432 108.151 437.442 108.187 437.466C108.817 437.89 109.528 437.868 110.231 437.847C110.283 437.845 110.335 437.844 110.387 437.842C110.88 437.829 111.352 437.699 111.557 437.099C111.693 437.446 111.933 437.562 112.223 437.617C112.329 437.638 112.432 437.669 112.535 437.701C112.602 437.722 112.668 437.743 112.736 437.76C113.291 437.904 113.851 438.009 114.429 437.951C115.237 437.869 115.647 437.368 115.567 436.56L115.567 436.553C115.548 436.361 115.529 436.171 115.6 435.98C115.779 435.497 115.895 434.995 115.999 434.492C116.025 434.368 116.043 434.241 116.061 434.114C116.091 433.907 116.12 433.7 116.183 433.503L116.188 433.487C116.328 433.051 116.339 433.018 115.985 432.761C116.165 432.594 116.262 432.399 116.104 432.174C115.942 431.944 115.72 431.97 115.505 432.088C115.364 432.165 115.238 432.148 115.105 432.084C115.058 432.062 115.012 432.039 114.965 432.015C114.862 431.963 114.758 431.91 114.649 431.871C114.4 431.78 114.13 431.866 114.063 432.102C113.873 432.766 113.331 432.95 112.765 433.052C111.967 433.197 111.207 432.974 110.468 432.687C110.357 432.644 110.296 432.564 110.242 432.455C110.075 432.118 109.806 432.074 109.516 432.322C109.459 432.371 109.403 432.42 109.352 432.476C109.182 432.663 108.972 432.716 108.74 432.634C108.505 432.551 108.317 432.421 108.278 432.133C108.23 431.782 108.028 431.665 107.676 431.746C107.356 431.819 107.038 431.867 106.707 431.78C105.364 431.426 104.562 430.172 104.795 428.802C104.916 428.092 105.278 427.624 106.005 427.473C106.231 427.426 106.345 427.272 106.32 427.047C106.294 426.821 106.146 426.697 105.919 426.694C105.809 426.692 105.692 426.708 105.589 426.747C104.899 427.005 104.379 427.437 104.139 428.161C103.578 429.854 104.34 431.605 105.965 432.353C106.016 432.376 106.072 432.395 106.128 432.414C106.337 432.483 106.549 432.554 106.523 432.876C106.522 432.893 106.54 432.911 106.556 432.928C106.562 432.934 106.566 432.939 106.571 432.944C106.724 433.121 106.815 433.331 106.906 433.542C106.919 433.571 106.932 433.601 106.944 433.63C107.167 434.135 107.352 434.655 107.537 435.174C107.653 435.499 107.768 435.824 107.893 436.145C107.995 436.406 107.814 436.638 107.533 436.61L107.49 436.605C107.383 436.595 107.276 436.584 107.172 436.561C105.898 436.268 104.623 435.974 103.35 435.674C103.094 435.614 102.838 435.591 102.618 435.743C101.995 436.173 101.283 436.252 100.56 436.296ZM121.65 435.331C121.46 435.286 121.276 435.221 121.247 434.986C121.226 434.811 121.288 434.662 121.484 434.584C121.504 434.584 121.52 434.584 121.536 434.584C121.555 434.578 121.578 434.576 121.605 434.579C121.604 434.582 121.603 434.585 121.602 434.588C121.957 434.695 122.011 434.825 121.859 435.142C121.853 435.153 121.842 435.162 121.832 435.171C121.809 435.191 121.786 435.21 121.811 435.251C121.844 435.305 121.882 435.292 121.92 435.278C121.932 435.274 121.944 435.27 121.957 435.267L122.003 435.259C122.07 435.246 122.138 435.234 122.206 435.228C122.254 435.223 122.303 435.224 122.365 435.225H122.366L122.417 435.226L122.444 435.226L122.471 435.226C122.29 435.012 122.176 434.81 122.46 434.641C122.705 434.496 122.983 434.541 123.116 434.737C123.266 434.956 123.192 435.16 122.867 435.393C123.128 435.552 123.275 435.792 123.354 436.074C123.426 436.328 123.359 436.55 123.126 436.678C122.62 436.955 122.09 436.99 121.563 436.745C121.281 436.615 121.123 436.376 121.109 436.02C120.867 436.154 120.66 436.079 120.468 435.924C120.366 436.325 120.467 436.605 120.802 436.819C121.484 437.255 122.232 437.281 122.996 437.134C124.188 436.905 125.267 436.389 126.292 435.761C128.641 434.321 129.763 432.191 129.916 429.466C130.008 427.828 129.445 426.386 128.817 424.944C128.623 424.499 128.41 424.062 128.196 423.625C128.135 423.5 128.073 423.374 128.013 423.249C127.944 423.106 127.853 422.976 127.749 422.854C127.583 422.658 127.596 422.43 127.766 422.279C127.939 422.125 128.198 422.141 128.364 422.339C128.653 422.687 128.84 423.096 129.027 423.505L129.027 423.506C129.159 423.794 129.291 424.082 129.425 424.374L129.605 424.765C129.709 424.712 129.734 424.626 129.757 424.545C129.76 424.533 129.764 424.521 129.767 424.509C130.037 423.637 130.178 422.745 130.199 421.834L130.201 421.723C130.21 421.321 130.219 420.92 130.311 420.524C130.667 418.993 132.066 418.313 133.497 418.979C134.727 419.552 135.389 420.834 135.244 422.268C135.147 423.226 134.771 424.083 134.395 424.943C134.345 425.057 134.295 425.171 134.246 425.285C133.526 426.954 132.454 428.386 131.255 429.733C131.212 429.781 131.173 429.832 131.133 429.883C131.019 430.03 130.905 430.178 130.717 430.252C130.648 430.28 130.65 430.345 130.652 430.408C130.652 430.433 130.653 430.458 130.649 430.48C130.291 432.616 129.363 434.462 127.645 435.796C126.195 436.922 124.561 437.747 122.694 437.967C121.732 438.081 120.827 437.914 120.071 437.247C119.999 437.184 119.927 437.168 119.84 437.185C119.809 437.191 119.777 437.195 119.745 437.2C119.674 437.209 119.602 437.219 119.54 437.249C118.648 437.675 117.712 437.663 116.763 437.538C116.682 437.527 116.599 437.523 116.516 437.519C116.449 437.516 116.382 437.513 116.316 437.506C116.079 437.481 115.924 437.318 115.941 437.101C115.958 436.871 116.096 436.731 116.321 436.73C116.639 436.729 116.96 436.738 117.273 436.785C117.951 436.888 118.583 436.764 119.223 436.534C119.544 436.418 119.673 436.308 119.642 435.951C119.605 435.533 119.78 435.145 120 434.79C120.273 434.351 120.618 433.969 120.974 433.598C121.037 433.531 121.118 433.476 121.2 433.435C121.425 433.324 121.659 433.386 121.759 433.585C121.869 433.802 121.796 433.97 121.613 434.123C121.207 434.459 120.881 434.866 120.615 435.319C120.604 435.338 120.6 435.362 120.595 435.391L120.591 435.416C120.589 435.425 120.587 435.434 120.585 435.444C120.849 435.397 121.068 435.437 121.185 435.719C121.213 435.691 121.24 435.663 121.266 435.634C121.364 435.53 121.46 435.428 121.605 435.371C121.625 435.362 121.632 435.354 121.643 435.339L121.65 435.331ZM122.357 414.388C121.765 414.433 121.583 414.727 121.82 415.288C122.174 415.717 122.573 416.057 123.105 416.18C124.278 416.452 125.412 416.333 126.468 415.735C126.966 415.453 127.274 415.007 127.317 414.423C127.359 413.855 127.165 413.37 126.698 413.026C126.244 412.692 125.76 412.721 125.266 412.952C124.899 413.123 124.599 413.37 124.38 413.705C124.124 414.097 123.755 414.268 123.308 414.341C123.116 414.373 122.925 414.374 122.734 414.376C122.608 414.377 122.482 414.378 122.357 414.388ZM105.732 415.466C104.799 415.852 103.903 415.76 103.024 415.365C102.749 415.242 102.517 415.05 102.33 414.81C102.018 414.409 101.994 414.055 102.255 413.68C102.531 413.282 103.024 413.108 103.461 413.25C103.796 413.358 104.039 413.583 104.253 413.849C104.265 413.863 104.276 413.878 104.285 413.895C104.572 414.403 105.001 414.565 105.561 414.431C105.677 414.404 105.803 414.394 105.922 414.404C106.112 414.419 106.26 414.513 106.32 414.705C106.376 414.883 106.322 415.036 106.192 415.164C106.064 415.291 105.912 415.381 105.732 415.466ZM121.886 417.89C122.065 418.178 122.295 418.421 122.546 418.673C122.83 418.93 123.133 419.119 123.504 419.126C124.039 419.138 124.568 419.074 125.063 418.855C125.521 418.652 125.737 418.264 125.634 417.855C125.519 417.397 125.202 417.191 124.653 417.237C124.587 417.242 124.521 417.248 124.456 417.255C124.178 417.281 123.902 417.307 123.621 417.28C123.414 417.26 123.207 417.245 122.999 417.23L122.998 417.229C122.769 417.213 122.539 417.196 122.31 417.172C122.099 417.151 121.945 417.214 121.839 417.394C121.734 417.57 121.785 417.727 121.886 417.89ZM104.332 417.424C103.937 417.887 103.496 418.247 102.935 418.457C102.208 418.73 101.435 418.308 101.213 417.797C100.887 417.046 101.254 416.74 101.901 416.716C102.545 416.692 103.164 416.634 103.761 416.387C103.972 416.3 104.189 416.299 104.366 416.464C104.55 416.634 104.567 416.853 104.504 417.085C104.472 417.203 104.423 417.313 104.332 417.424ZM110.912 416.97C110.873 417.135 110.979 417.228 111.142 417.298C111.165 417.397 111.181 417.495 111.197 417.593C111.232 417.807 111.266 418.014 111.371 418.205C111.531 418.498 111.842 418.538 112.024 418.267L112.077 418.188C112.288 417.875 112.501 417.56 112.635 417.202C112.703 417.022 112.775 416.945 112.977 417.088C113.542 417.487 114.156 417.43 114.773 417.224C114.932 417.17 114.985 417.04 114.929 416.885C114.878 416.745 114.764 416.688 114.614 416.726C114.583 416.734 114.551 416.744 114.52 416.754C114.48 416.767 114.44 416.78 114.399 416.789C114.07 416.858 113.741 416.912 113.408 416.724C113.435 416.7 113.461 416.679 113.486 416.658C113.538 416.615 113.585 416.575 113.63 416.532C113.808 416.359 113.909 416.158 113.837 415.903C113.762 415.635 113.557 415.517 113.304 415.47C113.129 415.437 112.951 415.445 112.778 415.504C112.417 415.628 112.262 415.94 112.384 416.304C112.485 416.605 112.443 416.671 112.123 416.742C111.919 416.788 111.716 416.775 111.512 416.762C111.427 416.756 111.342 416.751 111.257 416.75C111.09 416.747 110.953 416.798 110.912 416.97ZM120.914 418.83C121.159 418.726 121.364 418.75 121.57 418.887C121.747 419.004 121.946 419.075 122.145 419.146C122.236 419.179 122.327 419.211 122.416 419.248C122.874 419.438 123.076 419.695 123.027 420.012C122.978 420.33 122.586 420.608 122.149 420.619C121.716 420.631 121.383 420.418 121.099 420.114C120.926 419.929 120.794 419.714 120.688 419.485C120.545 419.177 120.594 419.027 120.914 418.83ZM103.924 420.097C104.556 420.078 104.963 419.684 105.369 419.244C105.387 419.221 105.406 419.2 105.424 419.18C105.464 419.134 105.5 419.093 105.508 419.048C105.516 418.997 105.529 418.945 105.541 418.893C105.59 418.692 105.639 418.488 105.451 418.315C105.265 418.143 105.033 418.172 104.857 418.314C104.559 418.558 104.213 418.692 103.866 418.826C103.789 418.856 103.711 418.886 103.634 418.917C103.246 419.074 103.122 419.428 103.314 419.786C103.444 420.029 103.661 420.104 103.924 420.097ZM108.815 413.835C109.168 413.52 109.472 413.507 109.669 413.783C109.89 414.095 109.815 414.478 109.492 414.681C109.261 414.825 109.005 414.801 108.825 414.618C108.625 414.416 108.618 414.161 108.815 413.835ZM117.329 414.61C117.58 414.783 117.82 414.742 118.056 414.532C118.238 414.317 118.273 414.089 118.142 413.871C118.028 413.68 117.838 413.567 117.602 413.591C117.36 413.615 117.22 413.778 117.148 413.991C117.067 414.232 117.106 414.457 117.329 414.61ZM111.91 417.467C111.892 417.487 111.879 417.51 111.867 417.532C111.842 417.576 111.819 417.617 111.753 417.632C111.712 417.531 111.692 417.423 111.742 417.327C111.772 417.269 111.867 417.285 111.923 417.309C111.982 417.336 111.96 417.374 111.934 417.42C111.926 417.435 111.917 417.45 111.91 417.467ZM130.545 427.409C130.457 427.11 130.374 426.833 130.276 426.507C130.343 426.526 130.408 426.544 130.47 426.562L130.471 426.562C130.604 426.601 130.729 426.637 130.853 426.671C131.138 426.749 131.424 426.788 131.703 426.652C132.143 426.438 132.218 425.953 131.868 425.612C131.702 425.451 131.494 425.37 131.285 425.289L131.258 425.278C131.211 425.26 131.162 425.243 131.114 425.226C131.012 425.19 130.91 425.154 130.816 425.104C130.593 424.984 130.49 424.841 130.58 424.54C130.835 423.689 130.984 422.814 130.99 421.92C130.99 421.859 130.99 421.798 130.99 421.734L130.99 421.639C132.665 422.318 133.192 422.298 134.423 421.518C134.492 421.821 134.457 422.119 134.423 422.417L134.417 422.467C134.41 422.524 134.395 422.57 134.336 422.602C133.658 422.972 132.947 423.154 132.165 423.056C131.601 422.984 131.243 423.405 131.353 423.97C131.422 424.329 131.636 424.597 131.92 424.81C132.265 425.071 132.642 425.277 133.067 425.376C133.257 425.42 133.277 425.489 133.19 425.658C132.854 426.317 132.461 426.94 132.037 427.545C131.95 427.669 131.864 427.701 131.711 427.671C131.684 427.666 131.658 427.66 131.631 427.655C131.302 427.588 130.964 427.519 130.65 427.828C130.611 427.675 130.581 427.553 130.545 427.409ZM111.026 433.681C110.94 433.667 110.853 433.652 110.772 433.631L110.738 433.621C110.415 433.526 110.111 433.436 109.855 433.239C109.791 433.19 109.751 433.201 109.683 433.234C108.842 433.635 108.169 433.467 107.629 432.716C107.549 432.603 107.482 432.564 107.356 432.641C107.383 432.697 107.411 432.752 107.438 432.808C107.498 432.928 107.557 433.047 107.611 433.169C107.861 433.73 108.068 434.307 108.276 434.885C108.428 435.309 108.581 435.733 108.75 436.151C108.813 436.307 108.819 436.48 108.723 436.61C108.576 436.807 108.692 436.87 108.846 436.923C109.232 437.059 109.637 437.062 110.038 437.064L110.122 437.065C110.762 437.07 110.846 436.974 110.828 436.342C110.812 435.786 110.952 435.666 111.478 435.768C111.478 435.65 111.477 435.532 111.477 435.413C111.476 435.132 111.475 434.849 111.48 434.566C111.481 434.483 111.497 434.391 111.512 434.299C111.542 434.123 111.571 433.95 111.497 433.856C111.41 433.745 111.222 433.714 111.026 433.681ZM114.58 432.883C114.313 433.279 113.917 433.503 113.468 433.687C113.149 433.815 112.835 433.857 112.517 433.882C112.504 433.883 112.491 433.883 112.478 433.883C112.414 433.883 112.352 433.883 112.343 433.998C112.336 434.084 112.325 434.17 112.313 434.255C112.293 434.399 112.273 434.543 112.278 434.69C112.3 435.25 112.316 435.81 112.323 436.37L112.323 436.392C112.329 436.815 112.329 436.817 112.751 436.938C113.282 437.091 113.816 437.231 114.377 437.16C114.715 437.118 114.795 437.021 114.78 436.683C114.777 436.618 114.771 436.553 114.765 436.488C114.747 436.29 114.728 436.092 114.798 435.904C115.026 435.29 115.151 434.653 115.277 434.013C115.348 433.652 115.419 433.29 115.509 432.932C115.268 432.963 115.031 432.919 114.809 432.814C114.7 432.763 114.644 432.788 114.58 432.883ZM130.721 429.109C130.925 429.009 130.966 428.889 130.8 428.714C130.774 428.69 130.761 428.679 130.746 428.673C130.74 428.67 130.722 428.676 130.722 428.679C130.721 428.806 130.721 428.934 130.721 429.069V429.109Z" fill="#7E7EFF"/>
<path d="M133.582 425.9C133.568 425.74 133.562 425.58 133.562 425.42C133.562 425.26 133.562 425.1 133.562 424.94V418.58C133.562 418.367 133.562 418.153 133.562 417.94C133.562 417.727 133.548 417.507 133.522 417.28C133.508 417.213 133.488 417.12 133.462 417C133.448 416.88 133.408 416.807 133.342 416.78C133.275 416.74 133.195 416.727 133.102 416.74C133.022 416.74 132.942 416.733 132.862 416.72C132.768 416.707 132.675 416.707 132.582 416.72C132.502 416.733 132.415 416.733 132.322 416.72H131.382C131.155 416.733 130.928 416.733 130.702 416.72C130.475 416.707 130.248 416.707 130.022 416.72C129.915 416.733 129.815 416.74 129.722 416.74C129.642 416.727 129.548 416.72 129.442 416.72C129.295 416.72 129.142 416.713 128.982 416.7C128.822 416.687 128.675 416.633 128.542 416.54C128.355 416.407 128.228 416.24 128.162 416.04C128.095 415.84 128.062 415.633 128.062 415.42C128.048 415.167 128.102 414.913 128.222 414.66C128.288 414.5 128.375 414.387 128.482 414.32C128.548 414.253 128.642 414.2 128.762 414.16C128.895 414.107 129.008 414.067 129.102 414.04C129.382 413.973 129.675 413.94 129.982 413.94C130.288 413.927 130.588 413.92 130.882 413.92H134.362C134.535 413.947 134.715 413.973 134.902 414C135.102 414.013 135.282 414.053 135.442 414.12C135.548 414.16 135.648 414.213 135.742 414.28C135.848 414.347 135.935 414.427 136.002 414.52C136.122 414.707 136.188 414.893 136.202 415.08C136.228 415.267 136.255 415.473 136.282 415.7C136.308 416.073 136.322 416.447 136.322 416.82C136.322 417.18 136.322 417.547 136.322 417.92V424.48C136.322 424.493 136.322 424.6 136.322 424.8C136.335 424.987 136.342 425.213 136.342 425.48C136.342 425.733 136.342 426.007 136.342 426.3C136.342 426.58 136.335 426.827 136.322 427.04C136.308 427.173 136.288 427.313 136.262 427.46C136.235 427.607 136.188 427.747 136.122 427.88C136.068 428.013 135.988 428.133 135.882 428.24C135.775 428.347 135.635 428.433 135.462 428.5C135.235 428.593 135.008 428.64 134.782 428.64C134.608 428.64 134.435 428.6 134.262 428.52C134.088 428.453 133.968 428.347 133.902 428.2C133.688 427.773 133.582 427.3 133.582 426.78V425.9ZM142.042 419.42C142.228 419.433 142.422 419.447 142.622 419.46C142.822 419.46 143.015 419.467 143.202 419.48C143.268 419.48 143.342 419.487 143.422 419.5C143.502 419.513 143.582 419.527 143.662 419.54C143.928 419.593 144.142 419.707 144.302 419.88C144.475 420.04 144.562 420.26 144.562 420.54C144.562 420.727 144.542 420.94 144.502 421.18C144.475 421.42 144.375 421.607 144.202 421.74C144.122 421.807 144.042 421.86 143.962 421.9C143.882 421.94 143.788 421.973 143.682 422C143.468 422.027 143.208 422.033 142.902 422.02C142.595 422.007 142.335 422.007 142.122 422.02C142.068 422.02 142.042 422.053 142.042 422.12C142.042 422.28 142.042 422.473 142.042 422.7C142.042 422.913 142.042 423.14 142.042 423.38C142.042 423.607 142.042 423.833 142.042 424.06C142.042 424.273 142.042 424.467 142.042 424.64C142.068 425.333 142.068 426.013 142.042 426.68V426.96C142.042 427.133 142.035 427.32 142.022 427.52C142.022 427.733 142.008 427.94 141.982 428.14C141.955 428.34 141.908 428.527 141.842 428.7C141.775 428.887 141.682 429.04 141.562 429.16C141.402 429.347 141.188 429.44 140.922 429.44C140.922 429.44 140.908 429.433 140.882 429.42C140.562 429.407 140.302 429.313 140.102 429.14C139.915 428.967 139.768 428.753 139.662 428.5C139.568 428.247 139.508 427.98 139.482 427.7C139.455 427.433 139.442 427.193 139.442 426.98V415.1C139.442 415.087 139.442 415.027 139.442 414.92C139.442 414.8 139.455 414.667 139.482 414.52C139.508 414.36 139.548 414.2 139.602 414.04C139.668 413.867 139.755 413.727 139.862 413.62C139.955 413.527 140.088 413.46 140.262 413.42C140.448 413.367 140.615 413.34 140.762 413.34C141.055 413.34 141.302 413.44 141.502 413.64C141.688 413.827 141.795 414.027 141.822 414.24C141.862 414.44 141.895 414.653 141.922 414.88C141.935 414.933 141.942 415.013 141.942 415.12C141.968 415.347 141.982 415.58 141.982 415.82C141.995 416.06 142.008 416.3 142.022 416.54C142.022 416.647 142.022 416.733 142.022 416.8C142.022 416.867 142.022 416.973 142.022 417.12C142.035 417.253 142.042 417.46 142.042 417.74C142.042 418.02 142.042 418.427 142.042 418.96V419.42Z" fill="#3E3CA5"/>
<path d="M157.823 421.2C158.05 421.213 158.277 421.247 158.503 421.3C158.743 421.353 158.957 421.453 159.143 421.6C159.33 421.747 159.423 421.953 159.423 422.22C159.423 422.353 159.397 422.5 159.343 422.66C159.303 422.82 159.243 422.933 159.163 423C159.057 423.107 158.917 423.187 158.743 423.24C158.583 423.28 158.423 423.313 158.263 423.34C158.103 423.353 157.963 423.36 157.843 423.36C157.737 423.36 157.677 423.36 157.663 423.36L147.003 423.38C146.697 423.393 146.377 423.393 146.043 423.38C145.723 423.367 145.45 423.267 145.223 423.08C144.917 422.853 144.763 422.593 144.763 422.3C144.763 422.113 144.823 421.927 144.943 421.74C145.077 421.54 145.25 421.407 145.463 421.34C145.743 421.247 146.03 421.207 146.323 421.22C146.617 421.22 146.917 421.213 147.223 421.2C147.543 421.187 147.817 421.18 148.043 421.18C148.283 421.18 148.51 421.18 148.723 421.18C148.95 421.18 149.183 421.187 149.423 421.2C149.663 421.2 149.95 421.2 150.283 421.2V419.7C148.617 419.607 147.357 419.32 146.503 418.84C145.65 418.36 145.223 417.6 145.223 416.56C145.223 415.467 145.797 414.667 146.943 414.16C148.09 413.653 149.783 413.393 152.023 413.38C153.037 413.38 153.963 413.433 154.803 413.54C155.643 413.647 156.363 413.827 156.963 414.08C157.563 414.32 158.023 414.647 158.343 415.06C158.677 415.46 158.843 415.96 158.843 416.56C158.843 417.667 158.363 418.46 157.403 418.94C156.457 419.407 155.017 419.673 153.083 419.74C153.097 419.98 153.103 420.247 153.103 420.54C153.117 420.82 153.123 421.04 153.123 421.2C153.497 421.2 153.897 421.2 154.323 421.2C154.75 421.187 155.177 421.18 155.603 421.18C156.03 421.18 156.437 421.18 156.823 421.18C157.21 421.18 157.543 421.187 157.823 421.2ZM158.003 426.94C158.017 426.94 158.063 426.953 158.143 426.98C158.223 427.007 158.31 427.047 158.403 427.1C158.51 427.167 158.603 427.247 158.683 427.34C158.777 427.447 158.837 427.567 158.863 427.7C158.943 428.207 158.863 428.6 158.623 428.88C158.477 429.067 158.317 429.18 158.143 429.22C157.97 429.26 157.877 429.28 157.863 429.28H146.943C146.437 429.28 146.037 429.193 145.743 429.02C145.45 428.86 145.303 428.627 145.303 428.32V426.54C145.29 426.393 145.283 426.213 145.283 426C145.283 425.773 145.29 425.587 145.303 425.44C145.33 425.16 145.437 424.933 145.623 424.76C145.81 424.587 146.043 424.5 146.323 424.5C146.39 424.5 146.477 424.507 146.583 424.52C146.703 424.52 146.797 424.533 146.863 424.56C147.037 424.613 147.17 424.707 147.263 424.84C147.357 424.96 147.43 425.1 147.483 425.26C147.537 425.42 147.57 425.593 147.583 425.78C147.597 425.953 147.61 426.113 147.623 426.26C147.623 426.367 147.63 426.48 147.643 426.6C147.657 426.707 147.677 426.807 147.703 426.9C147.73 426.913 147.85 426.933 148.063 426.96C148.29 426.973 148.637 426.98 149.103 426.98C149.503 426.98 149.857 426.973 150.163 426.96C150.483 426.947 150.65 426.94 150.663 426.94H158.003ZM156.103 416.56C156.103 416.347 156.003 416.16 155.803 416C155.603 415.84 155.323 415.707 154.963 415.6C154.603 415.493 154.17 415.413 153.663 415.36C153.17 415.307 152.623 415.28 152.023 415.28C149.397 415.28 148.083 415.707 148.083 416.56C148.083 416.933 148.417 417.227 149.083 417.44C149.763 417.653 150.73 417.753 151.983 417.74C152.463 417.74 152.943 417.727 153.423 417.7C153.917 417.66 154.363 417.6 154.763 417.52C155.163 417.427 155.483 417.307 155.723 417.16C155.977 417 156.103 416.8 156.103 416.56Z" fill="#3E3CA5"/>
<path d="M176.252 426.78C176.252 427.113 176.239 427.38 176.212 427.58C176.199 427.78 176.139 428.033 176.032 428.34C175.965 428.54 175.852 428.707 175.692 428.84C175.532 428.973 175.305 429.04 175.012 429.04C174.932 429.04 174.832 429.027 174.712 429C174.592 428.987 174.499 428.953 174.432 428.9C174.299 428.82 174.192 428.687 174.112 428.5C174.045 428.327 173.992 428.14 173.952 427.94C173.912 427.74 173.885 427.547 173.872 427.36C173.872 427.173 173.872 427.027 173.872 426.92V421.78L171.752 421.72C171.632 421.72 171.505 421.707 171.372 421.68C171.252 421.64 171.132 421.587 171.012 421.52C170.905 421.44 170.812 421.34 170.732 421.22C170.652 421.087 170.605 420.92 170.592 420.72C170.565 420.48 170.579 420.227 170.632 419.96C170.699 419.68 170.885 419.467 171.192 419.32C171.312 419.253 171.459 419.213 171.632 419.2C171.819 419.187 171.979 419.187 172.112 419.2H173.872V415.28C173.872 415.107 173.872 414.933 173.872 414.76C173.872 414.573 173.892 414.393 173.932 414.22C173.959 414.153 173.979 414.093 173.992 414.04C174.019 413.987 174.045 413.927 174.072 413.86C174.152 413.727 174.232 413.627 174.312 413.56C174.392 413.48 174.505 413.413 174.652 413.36C174.719 413.333 174.785 413.32 174.852 413.32C174.932 413.307 175.005 413.3 175.072 413.3C175.512 413.3 175.845 413.5 176.072 413.9C176.125 413.98 176.159 414.093 176.172 414.24C176.199 414.387 176.219 414.54 176.232 414.7C176.245 414.847 176.252 414.98 176.252 415.1C176.252 415.207 176.252 415.273 176.252 415.3V426.78ZM179.772 428.48C179.692 428.653 179.565 428.8 179.392 428.92C179.245 429.013 179.085 429.067 178.912 429.08C178.739 429.107 178.565 429.1 178.392 429.06C178.192 429.02 178.025 428.933 177.892 428.8C177.772 428.68 177.679 428.54 177.612 428.38C177.545 428.22 177.499 428.047 177.472 427.86C177.445 427.673 177.432 427.493 177.432 427.32V415.56C177.432 415.413 177.432 415.247 177.432 415.06C177.432 414.86 177.445 414.673 177.472 414.5C177.499 414.313 177.532 414.14 177.572 413.98C177.625 413.82 177.699 413.693 177.792 413.6C177.939 413.467 178.092 413.387 178.252 413.36C178.412 413.32 178.585 413.3 178.772 413.3C178.999 413.3 179.205 413.367 179.392 413.5C179.579 413.62 179.712 413.787 179.792 414C179.912 414.28 179.979 414.567 179.992 414.86C180.005 415.153 180.019 415.453 180.032 415.76C180.045 416.12 180.052 416.473 180.052 416.82C180.052 417.167 180.052 417.553 180.052 417.98C180.052 418.393 180.052 418.86 180.052 419.38C180.052 419.9 180.045 420.507 180.032 421.2C180.032 421.88 180.032 422.66 180.032 423.54C180.032 424.42 180.032 425.433 180.032 426.58C180.032 426.927 180.019 427.26 179.992 427.58C179.979 427.9 179.905 428.2 179.772 428.48ZM169.112 428.04C168.845 428.04 168.585 428.027 168.332 428C168.092 427.973 167.839 427.953 167.572 427.94C167.372 427.927 167.165 427.887 166.952 427.82C166.739 427.767 166.559 427.667 166.412 427.52C166.265 427.373 166.152 427.247 166.072 427.14C166.005 427.033 165.952 426.887 165.912 426.7C165.832 426.273 165.799 425.833 165.812 425.38C165.825 424.927 165.832 424.48 165.832 424.04V422.4C165.832 422.4 165.832 422.247 165.832 421.94C165.832 421.62 165.832 421.227 165.832 420.76C165.832 420.28 165.825 419.753 165.812 419.18C165.812 418.607 165.812 418.06 165.812 417.54C165.812 417.007 165.812 416.54 165.812 416.14C165.812 415.727 165.819 415.447 165.832 415.3C165.845 415.033 165.905 414.76 166.012 414.48C166.119 414.187 166.345 413.967 166.692 413.82C166.839 413.767 166.992 413.727 167.152 413.7C167.312 413.673 167.472 413.68 167.632 413.72C167.792 413.76 167.939 413.833 168.072 413.94C168.219 414.033 168.325 414.167 168.392 414.34C168.472 414.527 168.525 414.727 168.552 414.94C168.592 415.14 168.612 415.353 168.612 415.58C168.612 415.727 168.605 415.94 168.592 416.22C168.592 416.5 168.592 416.713 168.592 416.86C168.592 417.287 168.592 417.867 168.592 418.6C168.592 419.32 168.585 420.073 168.572 420.86C168.572 421.647 168.572 422.4 168.572 423.12C168.572 423.84 168.585 424.413 168.612 424.84C168.612 424.933 168.619 425.027 168.632 425.12C168.645 425.213 168.685 425.293 168.752 425.36C168.832 425.427 168.925 425.467 169.032 425.48C169.152 425.48 169.265 425.48 169.372 425.48C169.745 425.507 170.032 425.527 170.232 425.54C170.432 425.54 170.585 425.54 170.692 425.54C170.812 425.54 170.912 425.547 170.992 425.56C171.085 425.573 171.212 425.587 171.372 425.6C171.599 425.627 171.832 425.66 172.072 425.7C172.325 425.727 172.552 425.807 172.752 425.94C172.859 426.007 172.932 426.1 172.972 426.22C173.025 426.327 173.059 426.44 173.072 426.56C173.085 426.627 173.092 426.693 173.092 426.76C173.092 426.813 173.092 426.873 173.092 426.94C173.079 427.087 173.045 427.193 172.992 427.26C172.952 427.34 172.879 427.433 172.772 427.54C172.585 427.74 172.339 427.873 172.032 427.94C171.845 427.967 171.659 427.993 171.472 428.02C171.299 428.047 171.119 428.06 170.932 428.06C170.865 428.06 170.745 428.053 170.572 428.04C170.399 428.04 170.212 428.04 170.012 428.04C169.812 428.04 169.625 428.04 169.452 428.04C169.279 428.04 169.165 428.04 169.112 428.04Z" fill="#3E3CA5"/>
<path d="M189.883 415.94C189.443 415.94 188.99 415.96 188.523 416C188.057 416.027 187.577 416.007 187.083 415.94C186.857 415.913 186.683 415.76 186.563 415.48C186.457 415.187 186.403 414.873 186.403 414.54C186.417 414.233 186.53 414.007 186.743 413.86C186.957 413.713 187.177 413.607 187.403 413.54C187.683 413.46 187.917 413.42 188.103 413.42C188.303 413.407 188.55 413.393 188.843 413.38C189.03 413.38 189.243 413.387 189.483 413.4C189.723 413.4 189.937 413.4 190.123 413.4H191.323C191.403 413.4 191.483 413.4 191.563 413.4C191.643 413.387 191.723 413.387 191.803 413.4H192.363C192.483 413.4 192.603 413.407 192.723 413.42C192.843 413.42 192.957 413.42 193.063 413.42C193.183 413.42 193.303 413.42 193.423 413.42C193.543 413.42 193.663 413.427 193.783 413.44C193.85 413.44 193.91 413.44 193.963 413.44C194.017 413.44 194.07 413.453 194.123 413.48C194.203 413.507 194.277 413.533 194.343 413.56C194.463 413.627 194.577 413.7 194.683 413.78C194.79 413.86 194.877 413.96 194.943 414.08C195.063 414.28 195.137 414.493 195.163 414.72C195.203 414.947 195.223 415.173 195.223 415.4L195.243 419.58C195.217 419.953 195.21 420.3 195.223 420.62C195.237 420.94 195.15 421.26 194.963 421.58C194.857 421.767 194.71 421.92 194.523 422.04C194.337 422.16 194.137 422.233 193.923 422.26C193.723 422.287 193.53 422.267 193.343 422.2C193.157 422.12 193.003 421.987 192.883 421.8C192.763 421.6 192.677 421.42 192.623 421.26C192.57 421.087 192.53 420.92 192.503 420.76C192.49 420.587 192.49 420.413 192.503 420.24C192.517 420.053 192.523 419.847 192.523 419.62H187.823C187.823 419.62 187.79 419.62 187.723 419.62C187.67 419.62 187.603 419.613 187.523 419.6C187.457 419.573 187.383 419.54 187.303 419.5C187.223 419.447 187.157 419.373 187.103 419.28C187.023 419.12 186.983 418.913 186.983 418.66C186.983 418.407 187.03 418.207 187.123 418.06C187.217 417.913 187.31 417.827 187.403 417.8C187.51 417.773 187.617 417.747 187.723 417.72C187.83 417.707 187.923 417.693 188.003 417.68C188.097 417.653 188.203 417.633 188.323 417.62C189.057 417.58 189.837 417.56 190.663 417.56C190.93 417.56 191.23 417.56 191.563 417.56C191.91 417.56 192.23 417.567 192.523 417.58C192.523 417.313 192.523 417.06 192.523 416.82C192.523 416.567 192.51 416.307 192.483 416.04C192.057 416.027 191.623 416.013 191.183 416C190.757 415.987 190.323 415.967 189.883 415.94ZM197.283 424.82C197.777 425.167 198.263 425.513 198.743 425.86C199.223 426.207 199.697 426.567 200.163 426.94C200.323 427.073 200.51 427.207 200.723 427.34C200.937 427.487 201.063 427.673 201.103 427.9C201.143 428.087 201.117 428.28 201.023 428.48C200.943 428.68 200.83 428.84 200.683 428.96C200.457 429.147 200.237 429.227 200.023 429.2C199.81 429.173 199.583 429.107 199.343 429C198.85 428.773 198.377 428.52 197.923 428.24C197.47 427.96 197.017 427.667 196.563 427.36C196.337 427.213 196.117 427.06 195.903 426.9C195.69 426.727 195.477 426.567 195.263 426.42C195.117 426.313 194.963 426.193 194.803 426.06C194.643 425.927 194.457 425.873 194.243 425.9C194.057 425.913 193.91 425.953 193.803 426.02C193.697 426.087 193.577 426.173 193.443 426.28C193.297 426.387 193.137 426.507 192.963 426.64C192.803 426.773 192.663 426.893 192.543 427C192.197 427.293 191.817 427.587 191.403 427.88C191.003 428.187 190.61 428.44 190.223 428.64C190.077 428.72 189.91 428.8 189.723 428.88C189.537 428.96 189.35 429.02 189.163 429.06C188.977 429.113 188.783 429.133 188.583 429.12C188.397 429.12 188.223 429.08 188.063 429C187.85 428.893 187.697 428.733 187.603 428.52C187.51 428.307 187.497 428.087 187.563 427.86C187.63 427.633 187.777 427.433 188.003 427.26C188.243 427.087 188.443 426.933 188.603 426.8C189.11 426.413 189.657 426.013 190.243 425.6C190.83 425.173 191.383 424.773 191.903 424.4C192.13 424.227 192.357 424.08 192.583 423.96C192.81 423.827 193.037 423.667 193.263 423.48C193.343 423.413 193.437 423.34 193.543 423.26C193.65 423.167 193.763 423.087 193.883 423.02C194.003 422.94 194.123 422.88 194.243 422.84C194.363 422.8 194.483 422.793 194.603 422.82C194.79 422.873 194.95 422.967 195.083 423.1C195.217 423.233 195.357 423.353 195.503 423.46L197.283 424.82ZM197.823 418.96C197.437 418.933 197.09 418.913 196.783 418.9C196.477 418.873 196.237 418.727 196.063 418.46C195.983 418.327 195.943 418.16 195.943 417.96C195.943 417.76 195.957 417.587 195.983 417.44C196.023 417.293 196.097 417.173 196.203 417.08C196.31 416.973 196.497 416.887 196.763 416.82C196.817 416.807 196.917 416.8 197.063 416.8C197.21 416.787 197.363 416.773 197.523 416.76C197.697 416.747 197.857 416.74 198.003 416.74C198.15 416.727 198.25 416.72 198.303 416.72V415C198.29 414.853 198.283 414.707 198.283 414.56C198.297 414.413 198.323 414.267 198.363 414.12C198.39 414.013 198.417 413.913 198.443 413.82C198.47 413.727 198.53 413.627 198.623 413.52C198.73 413.387 198.877 413.293 199.063 413.24C199.263 413.187 199.477 413.173 199.703 413.2C200.13 413.267 200.403 413.433 200.523 413.7C200.603 413.86 200.65 414.06 200.663 414.3C200.69 414.527 200.703 414.667 200.703 414.72V421.24H200.683C200.683 421.253 200.677 421.3 200.663 421.38C200.65 421.46 200.623 421.56 200.583 421.68C200.543 421.787 200.483 421.9 200.403 422.02C200.323 422.14 200.217 422.24 200.083 422.32C199.897 422.427 199.71 422.48 199.523 422.48C199.297 422.48 199.077 422.407 198.863 422.26C198.703 422.153 198.59 422.02 198.523 421.86C198.443 421.713 198.39 421.567 198.363 421.42C198.337 421.273 198.317 421.127 198.303 420.98V418.96H197.823Z" fill="#3E3CA5"/>
<path fill-rule="evenodd" clip-rule="evenodd" d="M300 0H0V450H300V0ZM10 14C10 11.7909 11.7909 10 14 10H142.5C144.709 10 146.5 11.7909 146.5 14V194C146.5 196.209 144.709 198 142.5 198H14C11.7909 198 10 196.209 10 194V14ZM10 209C10 206.791 11.7909 205 14 205H142.5C144.709 205 146.5 206.791 146.5 209V389C146.5 391.209 144.709 393 142.5 393H14C11.7909 393 10 391.209 10 389V209ZM157.5 10C155.291 10 153.5 11.7909 153.5 14V194C153.5 196.209 155.291 198 157.5 198H286C288.209 198 290 196.209 290 194V14C290 11.7909 288.209 10 286 10H157.5ZM153.5 209C153.5 206.791 155.291 205 157.5 205H286C288.209 205 290 206.791 290 209V389C290 391.209 288.209 393 286 393H157.5C155.291 393 153.5 391.209 153.5 389V209ZM113.373 406.208C113.431 406.025 113.459 405.937 113.428 405.9C113.398 405.866 113.316 405.876 113.158 405.896L113.151 405.897C111.98 406.048 110.925 406.52 109.892 407.056C109.875 407.065 109.858 407.075 109.841 407.084L109.795 407.109C109.737 407.141 109.679 407.172 109.619 407.2C109.378 407.31 109.174 407.252 109.066 407.046C108.96 406.845 109.028 406.623 109.251 406.502C109.992 406.102 110.746 405.73 111.548 405.463C112.951 404.995 114.391 404.938 115.848 405.09L116.097 405.116C116.451 405.152 116.806 405.189 117.159 405.236C117.494 405.281 117.827 405.357 118.107 405.558C118.225 405.642 118.266 405.579 118.306 405.516C118.317 405.499 118.328 405.482 118.34 405.468C119.453 404.247 120.815 403.457 122.438 403.14C123.6 402.914 124.745 402.915 125.829 403.495C128.034 404.675 129.159 406.909 128.787 409.38C128.749 409.63 128.684 409.874 128.58 410.106C128.54 410.194 128.527 410.258 128.659 410.279C129.698 410.446 130.552 411.583 130.123 413.065C130.032 413.379 129.904 413.67 129.749 413.947C129.826 413.942 129.903 413.94 129.982 413.94C130.288 413.927 130.588 413.92 130.882 413.92H134.362C134.535 413.947 134.715 413.973 134.902 414C135.102 414.013 135.282 414.053 135.442 414.12C135.548 414.16 135.648 414.213 135.742 414.28C135.848 414.347 135.935 414.427 136.002 414.52C136.122 414.707 136.188 414.893 136.202 415.08C136.228 415.267 136.255 415.473 136.282 415.7C136.308 416.073 136.322 416.447 136.322 416.82V417.92V424.48V424.8C136.335 424.987 136.342 425.213 136.342 425.48V426.3C136.342 426.58 136.335 426.827 136.322 427.04C136.308 427.173 136.288 427.313 136.262 427.46C136.235 427.607 136.188 427.747 136.122 427.88C136.068 428.013 135.988 428.133 135.882 428.24C135.775 428.347 135.635 428.433 135.462 428.5C135.235 428.593 135.008 428.64 134.782 428.64C134.608 428.64 134.435 428.6 134.262 428.52C134.088 428.453 133.968 428.347 133.902 428.2C133.688 427.773 133.582 427.3 133.582 426.78V426.603C132.931 427.73 132.127 428.754 131.255 429.733C131.212 429.781 131.173 429.832 131.133 429.883C131.019 430.03 130.905 430.178 130.717 430.252C130.648 430.28 130.65 430.345 130.652 430.408C130.652 430.433 130.653 430.458 130.649 430.48C130.291 432.616 129.363 434.462 127.645 435.796C126.195 436.922 124.561 437.747 122.694 437.967C121.732 438.081 120.827 437.914 120.071 437.247C119.999 437.184 119.927 437.168 119.84 437.185L119.823 437.188L119.807 437.191L119.788 437.194L119.769 437.196L119.745 437.2C119.674 437.209 119.602 437.219 119.54 437.249C118.648 437.675 117.712 437.663 116.763 437.538C116.682 437.527 116.599 437.523 116.516 437.519C116.449 437.516 116.382 437.513 116.316 437.506C116.079 437.481 115.924 437.318 115.941 437.101C115.958 436.871 116.096 436.731 116.321 436.73C116.639 436.729 116.96 436.738 117.273 436.785C117.951 436.888 118.583 436.764 119.223 436.534C119.544 436.418 119.673 436.308 119.642 435.951C119.605 435.533 119.78 435.145 120 434.79C120.273 434.351 120.618 433.969 120.974 433.598C121.037 433.531 121.118 433.476 121.2 433.435C121.425 433.324 121.659 433.386 121.759 433.585C121.869 433.802 121.796 433.97 121.613 434.123C121.207 434.459 120.881 434.866 120.615 435.319C120.604 435.338 120.6 435.362 120.595 435.391L120.591 435.416L120.587 435.434L120.585 435.444C120.849 435.397 121.068 435.437 121.185 435.719C121.213 435.691 121.24 435.663 121.266 435.634C121.364 435.53 121.46 435.428 121.605 435.371C121.625 435.362 121.632 435.354 121.643 435.339L121.65 435.331C121.46 435.286 121.276 435.221 121.247 434.986C121.226 434.811 121.288 434.662 121.484 434.584C121.504 434.584 121.52 434.584 121.536 434.584C121.555 434.578 121.578 434.576 121.605 434.579L121.603 434.583L121.602 434.588C121.957 434.695 122.011 434.825 121.859 435.142C121.853 435.153 121.842 435.162 121.832 435.171C121.809 435.191 121.786 435.21 121.811 435.251C121.844 435.305 121.882 435.292 121.92 435.278C121.932 435.274 121.944 435.27 121.957 435.267L122.003 435.259C122.07 435.246 122.138 435.234 122.206 435.228C122.254 435.223 122.303 435.224 122.365 435.225H122.366L122.417 435.226L122.444 435.226L122.471 435.226C122.29 435.012 122.176 434.81 122.46 434.641C122.705 434.496 122.983 434.541 123.116 434.737C123.266 434.956 123.192 435.16 122.867 435.393C123.128 435.552 123.275 435.792 123.354 436.074C123.426 436.328 123.359 436.55 123.126 436.678C122.62 436.955 122.09 436.99 121.563 436.745C121.281 436.615 121.123 436.376 121.109 436.02C120.867 436.154 120.66 436.079 120.468 435.924C120.366 436.325 120.467 436.605 120.802 436.819C121.484 437.255 122.232 437.281 122.996 437.134C124.188 436.905 125.267 436.389 126.292 435.761C128.641 434.321 129.763 432.191 129.916 429.466C130.008 427.828 129.445 426.386 128.817 424.944C128.623 424.499 128.41 424.062 128.196 423.625L128.141 423.513C128.098 423.425 128.055 423.337 128.013 423.249C127.944 423.106 127.853 422.976 127.749 422.854C127.583 422.658 127.596 422.43 127.766 422.279C127.939 422.125 128.198 422.141 128.364 422.339C128.653 422.687 128.84 423.096 129.027 423.505L129.027 423.506C129.087 423.636 129.146 423.767 129.207 423.898L129.425 424.374L129.605 424.765C129.709 424.712 129.734 424.626 129.757 424.545C129.76 424.533 129.764 424.521 129.767 424.509C130.037 423.637 130.178 422.745 130.199 421.834L130.201 421.723C130.21 421.321 130.219 420.92 130.311 420.524C130.667 418.993 132.066 418.313 133.497 418.979L133.522 418.991C133.535 418.997 133.549 419.004 133.562 419.01L133.562 418.58V417.94C133.562 417.727 133.548 417.507 133.522 417.28C133.508 417.213 133.488 417.12 133.462 417C133.448 416.88 133.408 416.807 133.342 416.78C133.275 416.74 133.195 416.727 133.102 416.74C133.022 416.74 132.942 416.733 132.862 416.72C132.768 416.707 132.675 416.707 132.582 416.72C132.502 416.733 132.415 416.733 132.322 416.72H131.382C131.155 416.733 130.928 416.733 130.702 416.72C130.475 416.707 130.248 416.707 130.022 416.72C129.968 416.727 129.916 416.732 129.865 416.735C130.099 417.112 130.147 417.572 130.082 418.067C129.995 418.723 129.833 419.37 129.631 420.003C129.469 420.51 129.151 420.906 128.73 421.224C128.657 421.279 128.569 421.318 128.484 421.353C128.261 421.446 128.089 421.355 127.991 421.161C127.891 420.963 127.941 420.768 128.14 420.651C128.571 420.399 128.824 420.027 128.936 419.549C128.977 419.376 129.019 419.202 129.061 419.029L129.062 419.025L129.062 419.023C129.092 418.902 129.121 418.78 129.15 418.658C129.163 418.603 129.176 418.548 129.189 418.493C129.207 418.418 129.224 418.343 129.241 418.268C129.256 418.205 129.271 418.141 129.285 418.078C129.328 417.886 129.339 417.687 129.301 417.492C129.232 417.133 129.046 416.881 128.668 416.791C128.274 416.698 128.149 416.54 128.237 416.209C128.206 416.156 128.181 416.099 128.162 416.04C128.111 415.889 128.08 415.734 128.068 415.576C127.842 415.438 127.842 415.154 128.053 414.905L128.078 414.875L128.18 414.754C128.193 414.723 128.207 414.691 128.222 414.66C128.288 414.5 128.375 414.387 128.482 414.32C128.499 414.302 128.519 414.286 128.54 414.27C128.561 414.254 128.584 414.24 128.608 414.226C128.765 414.021 128.913 413.809 129.044 413.584C129.292 413.155 129.435 412.704 129.439 412.2C129.444 411.609 128.845 410.897 128.139 411.061C127.977 411.098 127.804 411.098 127.636 411.098C127.449 411.098 127.314 410.999 127.256 410.821C127.201 410.652 127.257 410.503 127.397 410.397C127.857 410.05 127.969 409.547 128.027 409.017C128.045 408.856 127.963 408.754 127.842 408.667L127.421 408.365C126.672 407.828 125.924 407.29 125.18 406.747C125.047 406.65 124.973 406.686 124.875 406.781C124.593 407.055 124.309 407.326 124.019 407.591C123.779 407.81 123.548 407.817 123.38 407.626C123.221 407.444 123.253 407.234 123.481 407.015C123.535 406.962 123.589 406.909 123.643 406.857L123.646 406.853L123.647 406.853C123.826 406.678 124.005 406.502 124.195 406.341C124.348 406.212 124.335 406.149 124.179 406.038C124.013 405.92 123.846 405.802 123.68 405.685C123.104 405.28 122.527 404.875 121.988 404.425C121.674 404.162 121.453 404.228 121.159 404.366C120.15 404.838 119.29 405.493 118.621 406.391C118.36 406.742 118.082 406.724 117.864 406.346C117.829 406.285 117.789 406.265 117.737 406.239L117.723 406.232C117.392 406.063 117.035 405.999 116.67 405.966C116.306 405.934 115.943 405.901 115.58 405.857C115.439 405.841 115.382 405.881 115.358 406.024C115.322 406.235 115.27 406.446 115.202 406.649C115.142 406.827 115.155 406.912 115.37 406.941C115.676 406.981 115.972 407.074 116.256 407.199C116.51 407.31 116.726 407.472 116.705 407.777C116.683 408.088 116.435 408.203 116.166 408.267C115.799 408.353 115.423 408.371 115.05 408.367C114.82 408.364 114.741 408.445 114.671 408.659C114.581 408.932 114.577 409.084 114.911 409.126C115.074 409.147 115.232 409.228 115.361 409.343C115.508 409.472 115.605 409.625 115.567 409.833C115.528 410.052 115.386 410.174 115.184 410.235C114.929 410.311 114.665 410.316 114.404 410.305C114.223 410.298 114.133 410.356 114.089 410.532C114.013 410.831 113.906 411.12 113.758 411.393C113.573 411.731 113.295 411.901 113.023 411.846C112.726 411.785 112.538 411.523 112.525 411.12C112.522 411.026 112.533 410.926 112.544 410.827C112.564 410.641 112.584 410.458 112.512 410.321C112.442 410.188 112.277 410.174 112.104 410.159C111.991 410.149 111.874 410.139 111.778 410.096C111.574 410.002 111.39 409.898 111.382 409.64C111.374 409.372 111.543 409.239 111.766 409.148C112.002 409.052 112.248 408.985 112.5 408.971C112.684 408.961 112.765 408.884 112.782 408.71C112.79 408.627 112.812 408.544 112.836 408.464C112.892 408.281 112.826 408.213 112.637 408.202C112.461 408.192 112.283 408.159 112.114 408.108C111.846 408.027 111.589 407.898 111.572 407.577C111.555 407.262 111.786 407.096 112.037 406.969C112.309 406.832 112.611 406.769 112.906 406.772C113.199 406.776 113.3 406.65 113.325 406.395C113.328 406.358 113.339 406.321 113.353 406.277C113.359 406.257 113.366 406.235 113.372 406.211L113.373 406.208ZM133.562 422.933V421.978C132.834 422.26 132.223 422.139 130.99 421.639L130.99 421.734V421.736C130.99 421.799 130.99 421.86 130.99 421.92C130.984 422.814 130.835 423.689 130.58 424.54C130.49 424.841 130.593 424.984 130.816 425.104C130.91 425.154 131.012 425.19 131.114 425.226L131.116 425.227L131.118 425.227L131.139 425.235C131.155 425.24 131.171 425.246 131.187 425.252C131.211 425.26 131.234 425.269 131.258 425.278L131.285 425.289C131.494 425.37 131.702 425.451 131.868 425.612C132.218 425.953 132.143 426.438 131.703 426.652C131.424 426.788 131.138 426.749 130.853 426.671C130.729 426.637 130.604 426.601 130.471 426.562L130.47 426.562L130.389 426.539L130.276 426.507L130.447 427.077C130.48 427.187 130.512 427.296 130.545 427.409C130.581 427.553 130.611 427.675 130.65 427.828C130.964 427.519 131.302 427.588 131.631 427.655L131.634 427.655L131.673 427.663L131.711 427.671C131.864 427.701 131.95 427.669 132.037 427.545C132.461 426.94 132.854 426.317 133.19 425.658C133.277 425.489 133.257 425.42 133.067 425.376C132.642 425.277 132.265 425.071 131.92 424.81C131.636 424.597 131.422 424.329 131.353 423.97C131.243 423.405 131.601 422.984 132.165 423.056C132.655 423.118 133.118 423.069 133.562 422.933ZM98.5508 434.925C98.8574 435.894 99.5479 436.358 100.56 436.296C101.283 436.252 101.995 436.173 102.618 435.743C102.838 435.591 103.094 435.614 103.35 435.674C104.623 435.974 105.898 436.268 107.172 436.561C107.276 436.584 107.383 436.595 107.49 436.605L107.533 436.61C107.814 436.638 107.995 436.406 107.893 436.145C107.768 435.824 107.653 435.499 107.537 435.174C107.352 434.655 107.167 434.135 106.944 433.63C106.932 433.602 106.92 433.575 106.908 433.547L106.906 433.542C106.815 433.331 106.724 433.121 106.571 432.944C106.566 432.939 106.562 432.934 106.556 432.928C106.54 432.911 106.522 432.893 106.523 432.876C106.549 432.554 106.337 432.483 106.128 432.414C106.072 432.395 106.016 432.376 105.965 432.353C104.34 431.605 103.578 429.854 104.139 428.161C104.379 427.437 104.899 427.005 105.589 426.747C105.692 426.708 105.809 426.692 105.919 426.694C106.146 426.697 106.294 426.821 106.32 427.047C106.345 427.272 106.231 427.426 106.005 427.473C105.278 427.624 104.916 428.092 104.795 428.802C104.562 430.172 105.364 431.426 106.707 431.78C107.038 431.867 107.356 431.819 107.676 431.746C108.028 431.665 108.23 431.782 108.278 432.133C108.317 432.421 108.505 432.551 108.74 432.634C108.972 432.716 109.182 432.663 109.352 432.476C109.403 432.42 109.459 432.371 109.516 432.322C109.806 432.074 110.075 432.118 110.242 432.455C110.296 432.564 110.357 432.644 110.468 432.687C111.207 432.974 111.967 433.197 112.765 433.052C113.331 432.95 113.873 432.766 114.063 432.102C114.13 431.866 114.4 431.78 114.649 431.871C114.758 431.91 114.862 431.963 114.965 432.015C115.012 432.039 115.058 432.062 115.105 432.084C115.238 432.148 115.364 432.165 115.505 432.088C115.72 431.97 115.942 431.944 116.104 432.174C116.262 432.399 116.165 432.594 115.985 432.761C116.339 433.018 116.328 433.051 116.188 433.487L116.183 433.503C116.12 433.7 116.091 433.907 116.061 434.114L116.054 434.161C116.049 434.2 116.043 434.239 116.037 434.277C116.026 434.349 116.014 434.421 115.999 434.492C115.895 434.995 115.779 435.497 115.6 435.98C115.529 436.171 115.548 436.361 115.567 436.553L115.567 436.56C115.647 437.368 115.237 437.869 114.429 437.951C113.851 438.009 113.291 437.904 112.736 437.76C112.668 437.743 112.602 437.722 112.535 437.701L112.464 437.68C112.429 437.669 112.393 437.658 112.357 437.649C112.313 437.637 112.268 437.626 112.223 437.617C111.933 437.562 111.693 437.446 111.557 437.099C111.352 437.699 110.88 437.829 110.387 437.842L110.252 437.846L110.231 437.847C109.528 437.868 108.817 437.89 108.187 437.466C108.151 437.442 108.099 437.432 108.054 437.432C107.097 437.43 106.187 437.173 105.279 436.912C104.934 436.813 104.582 436.749 104.23 436.686C103.855 436.618 103.48 436.55 103.115 436.44C103.026 436.413 102.96 436.457 102.894 436.502C102.867 436.52 102.84 436.539 102.811 436.552C101.684 437.074 100.52 437.337 99.3135 436.88C98.0903 436.418 97.5369 435.342 97.8011 434.067C97.9492 433.352 98.6809 432.654 99.4411 432.504C100.026 432.388 100.026 432.388 100.028 431.798L100.028 431.793C100.032 430.781 100.206 429.818 100.872 429.008C100.962 428.899 100.924 428.84 100.852 428.749C100.577 428.399 100.391 428.003 100.274 427.575C100.127 427.036 100.227 426.518 100.439 426.017C100.492 425.893 100.506 425.804 100.411 425.692C99.6966 424.855 99.8401 423.946 100.22 423.034C100.289 422.869 100.258 422.815 100.139 422.725C99.6832 422.381 99.2473 422.013 98.8717 421.58C98.0593 420.645 97.5815 419.605 97.9292 418.338C98.1037 417.702 98.3998 417.134 99.017 416.806C99.1204 416.751 99.1297 416.683 99.1243 416.579C99.0712 415.549 99.5322 414.924 100.524 414.688C100.664 414.655 100.73 414.625 100.705 414.458C100.652 414.11 100.695 413.763 100.835 413.441C100.918 413.254 100.864 413.139 100.742 412.999C100.118 412.284 99.6388 411.498 99.4853 410.537C99.069 407.93 100.953 404.943 103.804 404.453C104.818 404.279 105.826 404.181 106.828 404.515C107.519 404.746 108.091 405.156 108.585 405.682C108.7 405.805 108.809 405.939 108.85 406.106C108.903 406.321 108.839 406.497 108.628 406.594C108.424 406.689 108.246 406.617 108.142 406.442C107.858 405.961 107.408 405.682 106.946 405.415C106.858 405.364 106.768 405.312 106.658 405.381C106.322 405.589 105.966 405.761 105.609 405.933L105.608 405.933C105.191 406.135 104.773 406.337 104.386 406.598L104.342 406.627C104.068 406.811 103.929 406.905 103.906 407.021C103.883 407.14 103.981 407.284 104.18 407.575C104.195 407.596 104.209 407.617 104.224 407.638C104.268 407.702 104.313 407.765 104.351 407.832C104.467 408.035 104.42 408.213 104.242 408.352C104.067 408.489 103.845 408.458 103.698 408.267C103.539 408.059 103.394 407.84 103.252 407.62C103.183 407.512 103.131 407.48 103.017 407.573C102.904 407.666 102.79 407.758 102.676 407.85C101.918 408.465 101.161 409.079 100.509 409.813C100.302 410.046 100.222 410.28 100.298 410.601C100.483 411.383 100.913 412.019 101.445 412.593C101.732 412.903 101.833 413.202 101.624 413.6C101.439 413.953 101.442 414.336 101.562 414.718C101.694 415.138 101.5 415.416 101.063 415.446L101.061 415.446C101.056 415.446 101.052 415.447 101.047 415.447L101.04 415.447L101.035 415.446C100.21 415.341 99.6711 416.035 100.011 416.881C100.098 417.098 99.9841 417.34 99.7508 417.391C99.3865 417.469 99.1091 417.64 98.9333 417.967C98.694 418.412 98.5506 418.879 98.6247 419.392C98.7463 420.235 99.236 420.864 99.8258 421.428C100.191 421.777 100.589 422.088 100.999 422.385C101.419 422.69 101.431 422.983 101.033 423.305L101.015 423.32C100.955 423.368 100.895 423.415 100.872 423.493C100.698 424.076 100.547 424.656 101.018 425.186C101.105 425.284 101.176 425.397 101.247 425.509L101.26 425.53C101.385 425.729 101.394 425.938 101.272 426.14C100.818 426.894 100.968 427.604 101.479 428.244C101.621 428.422 101.649 428.615 101.678 428.807C101.693 428.914 101.709 429.02 101.744 429.123C101.773 429.208 101.71 429.305 101.638 429.371C101.074 429.886 100.916 430.571 100.838 431.288C100.81 431.548 100.819 431.809 100.828 432.07C100.831 432.183 100.835 432.296 100.836 432.408C100.839 432.836 100.719 432.996 100.311 433.124C100.169 433.169 100.023 433.212 99.8759 433.228C99.0974 433.31 98.4321 433.897 98.5332 434.837C98.5358 434.85 98.5388 434.86 98.5415 434.869L98.5467 434.868L98.5513 434.867C98.5537 434.867 98.5561 434.865 98.5561 434.865C98.8654 434.421 98.9544 434.415 99.3581 434.825C99.4207 434.711 99.4819 434.599 99.5606 434.474C99.5669 434.461 99.5733 434.448 99.5799 434.435C99.5763 434.431 99.5725 434.427 99.5686 434.424L99.5651 434.422C99.5632 434.42 99.5613 434.419 99.5594 434.418C99.5538 434.414 99.548 434.412 99.542 434.41C99.5233 434.404 99.5028 434.404 99.4823 434.404H99.48C99.4739 434.403 99.4678 434.403 99.4617 434.403C99.455 434.403 99.4483 434.402 99.4418 434.401C99.1203 434.354 98.9914 434.11 99.1584 433.845C99.2575 433.688 99.3773 433.514 99.6018 433.63C99.7984 433.731 99.963 433.871 99.843 434.136C99.8376 434.148 99.8451 434.166 99.8551 434.19C99.8599 434.201 99.8651 434.213 99.8698 434.227C99.8662 434.228 99.8626 434.229 99.8591 434.23C99.8554 434.231 99.8518 434.233 99.8483 434.234L99.8623 434.233C99.9714 434.187 100.083 434.188 100.194 434.188C100.252 434.189 100.31 434.189 100.368 434.183C100.125 433.761 100.116 433.621 100.313 433.503C100.486 433.4 100.778 433.488 100.903 433.681C101.037 433.885 100.978 434.075 100.72 434.268C100.737 434.319 100.779 434.34 100.82 434.361C100.836 434.368 100.851 434.376 100.864 434.385C101.156 434.575 101.308 434.839 101.275 435.188C101.241 435.538 101.006 435.73 100.703 435.851C100.157 436.07 99.7 435.922 99.377 435.428C99.3713 435.419 99.3665 435.409 99.3618 435.399C99.3467 435.366 99.3321 435.334 99.2856 435.358C98.9915 435.504 98.8742 435.328 98.7569 435.153C98.742 435.13 98.7271 435.108 98.7118 435.086C98.7006 435.07 98.6892 435.055 98.6776 435.04L98.6676 435.028L98.6609 435.02C98.6514 435.008 98.6468 434.993 98.6422 434.978C98.6315 434.942 98.6206 434.908 98.5508 434.925ZM121.82 415.288C121.583 414.727 121.765 414.433 122.357 414.388C122.482 414.378 122.608 414.377 122.734 414.376C122.925 414.374 123.116 414.373 123.308 414.341C123.755 414.268 124.124 414.097 124.38 413.705C124.599 413.37 124.899 413.123 125.266 412.952C125.76 412.721 126.244 412.692 126.698 413.026C127.165 413.37 127.359 413.855 127.317 414.423C127.274 415.007 126.966 415.453 126.468 415.735C125.412 416.333 124.278 416.452 123.105 416.18C122.573 416.057 122.174 415.717 121.82 415.288ZM103.024 415.365C103.903 415.76 104.799 415.852 105.732 415.466C105.912 415.381 106.064 415.291 106.192 415.164C106.322 415.036 106.376 414.883 106.32 414.705C106.26 414.513 106.112 414.419 105.922 414.404C105.803 414.394 105.677 414.404 105.561 414.431C105.001 414.565 104.572 414.403 104.285 413.895C104.276 413.878 104.265 413.863 104.253 413.849C104.039 413.583 103.796 413.358 103.461 413.25C103.024 413.108 102.531 413.282 102.255 413.68C101.994 414.055 102.018 414.409 102.33 414.81C102.517 415.05 102.749 415.242 103.024 415.365ZM122.546 418.673C122.295 418.421 122.065 418.178 121.886 417.89C121.785 417.727 121.734 417.57 121.839 417.394C121.945 417.214 122.099 417.151 122.31 417.172C122.539 417.196 122.769 417.213 122.998 417.229L122.999 417.23C123.207 417.245 123.414 417.26 123.621 417.28C123.902 417.307 124.178 417.281 124.456 417.255C124.521 417.248 124.587 417.242 124.653 417.237C125.202 417.191 125.519 417.397 125.634 417.855C125.737 418.264 125.521 418.652 125.063 418.855C124.568 419.074 124.039 419.138 123.504 419.126C123.133 419.119 122.83 418.93 122.546 418.673ZM102.935 418.457C103.496 418.247 103.937 417.887 104.332 417.424C104.423 417.313 104.472 417.203 104.504 417.085C104.567 416.853 104.55 416.634 104.366 416.464C104.189 416.299 103.972 416.3 103.761 416.387C103.164 416.634 102.545 416.692 101.901 416.716C101.254 416.74 100.887 417.046 101.213 417.797C101.435 418.308 102.208 418.73 102.935 418.457ZM111.142 417.298C110.979 417.228 110.873 417.135 110.912 416.97C110.953 416.798 111.09 416.747 111.257 416.75C111.287 416.75 111.316 416.751 111.345 416.752C111.401 416.755 111.457 416.758 111.512 416.762C111.716 416.775 111.919 416.788 112.123 416.742C112.443 416.671 112.485 416.605 112.384 416.304C112.262 415.94 112.417 415.628 112.778 415.504C112.951 415.445 113.129 415.437 113.304 415.47C113.557 415.517 113.762 415.635 113.837 415.903C113.909 416.158 113.808 416.359 113.63 416.532C113.585 416.575 113.538 416.615 113.486 416.658C113.461 416.679 113.435 416.7 113.408 416.724C113.741 416.912 114.07 416.858 114.399 416.789C114.44 416.78 114.48 416.767 114.52 416.754C114.534 416.75 114.548 416.745 114.562 416.741L114.571 416.738L114.583 416.735C114.594 416.732 114.604 416.729 114.614 416.726C114.764 416.688 114.878 416.745 114.929 416.885C114.985 417.04 114.932 417.17 114.773 417.224C114.156 417.43 113.542 417.487 112.977 417.088C112.775 416.945 112.703 417.022 112.635 417.202C112.501 417.56 112.288 417.875 112.077 418.188L112.024 418.267C111.842 418.538 111.531 418.498 111.371 418.205C111.266 418.014 111.232 417.807 111.197 417.593C111.181 417.495 111.165 417.397 111.142 417.298ZM121.57 418.887C121.364 418.75 121.159 418.726 120.914 418.83C120.594 419.027 120.545 419.177 120.688 419.485C120.794 419.714 120.926 419.929 121.099 420.114C121.383 420.418 121.716 420.631 122.149 420.619C122.586 420.608 122.978 420.33 123.027 420.012C123.076 419.695 122.874 419.438 122.416 419.248C122.328 419.211 122.237 419.179 122.147 419.147L122.145 419.146C121.946 419.075 121.747 419.004 121.57 418.887ZM105.369 419.244C104.963 419.684 104.556 420.078 103.924 420.097C103.661 420.104 103.444 420.029 103.314 419.786C103.122 419.428 103.246 419.074 103.634 418.917C103.71 418.886 103.786 418.857 103.862 418.827L103.866 418.826C104.213 418.692 104.559 418.558 104.857 418.314C105.033 418.172 105.265 418.143 105.451 418.315C105.639 418.488 105.59 418.692 105.541 418.893C105.529 418.945 105.516 418.997 105.508 419.048C105.505 419.067 105.497 419.085 105.486 419.103C105.481 419.109 105.477 419.116 105.472 419.122C105.467 419.128 105.463 419.134 105.458 419.14C105.452 419.147 105.446 419.154 105.44 419.161L105.424 419.18C105.406 419.2 105.387 419.221 105.369 419.244ZM109.669 413.783C109.472 413.507 109.168 413.52 108.815 413.835C108.618 414.161 108.625 414.416 108.825 414.618C109.005 414.801 109.261 414.825 109.492 414.681C109.815 414.478 109.89 414.095 109.669 413.783ZM118.056 414.532C117.82 414.742 117.58 414.783 117.329 414.61C117.106 414.457 117.067 414.232 117.148 413.991C117.22 413.778 117.36 413.615 117.602 413.591C117.838 413.567 118.028 413.68 118.142 413.871C118.273 414.089 118.238 414.317 118.056 414.532ZM111.883 417.505C111.891 417.492 111.899 417.479 111.91 417.467C111.917 417.45 111.926 417.435 111.934 417.42C111.96 417.374 111.982 417.336 111.923 417.309C111.867 417.285 111.772 417.269 111.742 417.327C111.692 417.423 111.712 417.531 111.753 417.632C111.819 417.617 111.842 417.576 111.867 417.532L111.872 417.523L111.879 417.511L111.883 417.505ZM110.978 433.673L111.026 433.681C111.222 433.714 111.41 433.745 111.497 433.856C111.571 433.95 111.542 434.123 111.512 434.299C111.497 434.391 111.481 434.483 111.48 434.566C111.475 434.849 111.476 435.132 111.477 435.413C111.477 435.532 111.478 435.65 111.478 435.768C110.952 435.666 110.812 435.786 110.828 436.342C110.846 436.974 110.762 437.07 110.122 437.065L110.038 437.064C109.637 437.062 109.232 437.059 108.846 436.923C108.692 436.87 108.576 436.807 108.723 436.61C108.819 436.48 108.813 436.307 108.75 436.151C108.581 435.733 108.428 435.309 108.276 434.885C108.068 434.307 107.861 433.73 107.611 433.169C107.557 433.047 107.498 432.928 107.438 432.808C107.411 432.752 107.383 432.697 107.356 432.641C107.482 432.564 107.549 432.603 107.629 432.716C108.169 433.467 108.842 433.635 109.683 433.234C109.751 433.201 109.791 433.19 109.855 433.239C110.111 433.436 110.415 433.526 110.738 433.621L110.772 433.631C110.792 433.636 110.812 433.641 110.832 433.645C110.853 433.65 110.874 433.654 110.896 433.658C110.923 433.664 110.95 433.668 110.978 433.673ZM113.468 433.687C113.917 433.503 114.313 433.279 114.58 432.883C114.644 432.788 114.7 432.763 114.809 432.814C115.031 432.919 115.268 432.963 115.509 432.932C115.419 433.29 115.348 433.652 115.277 434.013C115.151 434.653 115.026 435.29 114.798 435.904C114.728 436.092 114.747 436.29 114.765 436.488C114.771 436.553 114.777 436.618 114.78 436.683C114.795 437.021 114.715 437.118 114.377 437.16C113.816 437.231 113.282 437.091 112.751 436.938C112.329 436.817 112.329 436.815 112.323 436.392L112.323 436.37C112.316 435.81 112.3 435.25 112.278 434.69C112.273 434.543 112.293 434.399 112.313 434.255C112.325 434.17 112.336 434.084 112.343 433.998C112.352 433.883 112.414 433.883 112.478 433.883C112.491 433.883 112.504 433.883 112.517 433.882C112.835 433.857 113.149 433.815 113.468 433.687ZM130.8 428.714C130.966 428.889 130.925 429.009 130.721 429.109V429.069C130.721 428.934 130.721 428.806 130.722 428.679C130.722 428.679 130.726 428.676 130.73 428.674C130.734 428.673 130.738 428.672 130.742 428.672L130.746 428.673C130.752 428.675 130.757 428.678 130.763 428.683C130.773 428.689 130.784 428.699 130.8 428.714ZM142.042 419.42C142.228 419.433 142.422 419.447 142.622 419.46C142.822 419.46 143.015 419.467 143.202 419.48C143.268 419.48 143.342 419.487 143.422 419.5L143.662 419.54C143.928 419.593 144.142 419.707 144.302 419.88C144.475 420.04 144.562 420.26 144.562 420.54C144.562 420.727 144.542 420.94 144.502 421.18C144.475 421.42 144.375 421.607 144.202 421.74C144.122 421.807 144.042 421.86 143.962 421.9C143.882 421.94 143.788 421.973 143.682 422C143.468 422.027 143.208 422.033 142.902 422.02C142.595 422.007 142.335 422.007 142.122 422.02C142.068 422.02 142.042 422.053 142.042 422.12V422.7V423.38V424.06V424.64C142.068 425.333 142.068 426.013 142.042 426.68V426.96C142.042 427.133 142.035 427.32 142.022 427.52C142.022 427.733 142.008 427.94 141.982 428.14C141.955 428.34 141.908 428.527 141.842 428.7C141.775 428.887 141.682 429.04 141.562 429.16C141.402 429.347 141.188 429.44 140.922 429.44L140.882 429.42C140.562 429.407 140.302 429.313 140.102 429.14C139.915 428.967 139.768 428.753 139.662 428.5C139.568 428.247 139.508 427.98 139.482 427.7C139.455 427.433 139.442 427.193 139.442 426.98V415.1V414.92C139.442 414.8 139.455 414.667 139.482 414.52C139.508 414.36 139.548 414.2 139.602 414.04C139.668 413.867 139.755 413.727 139.862 413.62C139.955 413.527 140.088 413.46 140.262 413.42C140.448 413.367 140.615 413.34 140.762 413.34C141.055 413.34 141.302 413.44 141.502 413.64C141.688 413.827 141.795 414.027 141.822 414.24C141.862 414.44 141.895 414.653 141.922 414.88C141.935 414.933 141.942 415.013 141.942 415.12C141.968 415.347 141.982 415.58 141.982 415.82L142.022 416.54V416.8V417.12C142.035 417.253 142.042 417.46 142.042 417.74V418.96V419.42ZM158.503 421.3C158.277 421.247 158.05 421.213 157.823 421.2C157.543 421.187 157.21 421.18 156.823 421.18H155.603C155.177 421.18 154.75 421.187 154.323 421.2H153.123C153.123 421.04 153.117 420.82 153.103 420.54C153.103 420.247 153.097 419.98 153.083 419.74C155.017 419.673 156.457 419.407 157.403 418.94C158.363 418.46 158.843 417.667 158.843 416.56C158.843 415.96 158.677 415.46 158.343 415.06C158.023 414.647 157.563 414.32 156.963 414.08C156.363 413.827 155.643 413.647 154.803 413.54C153.963 413.433 153.037 413.38 152.023 413.38C149.783 413.393 148.09 413.653 146.943 414.16C145.797 414.667 145.223 415.467 145.223 416.56C145.223 417.6 145.65 418.36 146.503 418.84C147.357 419.32 148.617 419.607 150.283 419.7V421.2H149.423C149.183 421.187 148.95 421.18 148.723 421.18H148.043C147.817 421.18 147.543 421.187 147.223 421.2C146.917 421.213 146.617 421.22 146.323 421.22C146.03 421.207 145.743 421.247 145.463 421.34C145.25 421.407 145.077 421.54 144.943 421.74C144.823 421.927 144.763 422.113 144.763 422.3C144.763 422.593 144.917 422.853 145.223 423.08C145.45 423.267 145.723 423.367 146.043 423.38C146.377 423.393 146.697 423.393 147.003 423.38L157.663 423.36H157.843C157.963 423.36 158.103 423.353 158.263 423.34C158.362 423.323 158.461 423.304 158.56 423.283C158.621 423.27 158.682 423.255 158.743 423.24C158.917 423.187 159.057 423.107 159.163 423C159.243 422.933 159.303 422.82 159.343 422.66C159.397 422.5 159.423 422.353 159.423 422.22C159.423 421.953 159.33 421.747 159.143 421.6C158.957 421.453 158.743 421.353 158.503 421.3ZM158.089 426.962L158.06 426.954C158.03 426.945 158.011 426.94 158.003 426.94H150.663C150.65 426.94 150.483 426.947 150.163 426.96C149.857 426.973 149.503 426.98 149.103 426.98C148.637 426.98 148.29 426.973 148.063 426.96C147.85 426.933 147.73 426.913 147.703 426.9C147.677 426.807 147.657 426.707 147.643 426.6C147.63 426.48 147.623 426.367 147.623 426.26C147.61 426.113 147.597 425.953 147.583 425.78C147.57 425.593 147.537 425.42 147.483 425.26C147.43 425.1 147.357 424.96 147.263 424.84C147.17 424.707 147.037 424.613 146.863 424.56C146.797 424.533 146.703 424.52 146.583 424.52C146.477 424.507 146.39 424.5 146.323 424.5C146.043 424.5 145.81 424.587 145.623 424.76C145.437 424.933 145.33 425.16 145.303 425.44C145.29 425.587 145.283 425.773 145.283 426C145.283 426.213 145.29 426.393 145.303 426.54V428.32C145.303 428.627 145.45 428.86 145.743 429.02C146.037 429.193 146.437 429.28 146.943 429.28H157.863C157.877 429.28 157.97 429.26 158.143 429.22C158.317 429.18 158.477 429.067 158.623 428.88C158.863 428.6 158.943 428.207 158.863 427.7C158.837 427.567 158.777 427.447 158.683 427.34C158.603 427.247 158.51 427.167 158.403 427.1C158.31 427.047 158.223 427.007 158.143 426.98C158.123 426.973 158.105 426.967 158.089 426.962ZM155.803 416C156.003 416.16 156.103 416.347 156.103 416.56C156.103 416.8 155.977 417 155.723 417.16C155.483 417.307 155.163 417.427 154.763 417.52C154.363 417.6 153.917 417.66 153.423 417.7C152.943 417.727 152.463 417.74 151.983 417.74C150.73 417.753 149.763 417.653 149.083 417.44C148.417 417.227 148.083 416.933 148.083 416.56C148.083 415.707 149.397 415.28 152.023 415.28C152.623 415.28 153.17 415.307 153.663 415.36C154.17 415.413 154.603 415.493 154.963 415.6C155.323 415.707 155.603 415.84 155.803 416ZM176.252 426.78C176.252 427.113 176.239 427.38 176.212 427.58C176.199 427.78 176.139 428.033 176.032 428.34C175.965 428.54 175.852 428.707 175.692 428.84C175.532 428.973 175.305 429.04 175.012 429.04C174.964 429.04 174.909 429.035 174.847 429.026C174.805 429.019 174.76 429.011 174.712 429C174.592 428.987 174.499 428.953 174.432 428.9C174.299 428.82 174.192 428.687 174.112 428.5C174.045 428.327 173.992 428.14 173.952 427.94C173.912 427.74 173.885 427.547 173.872 427.36V426.92V421.78L171.752 421.72C171.632 421.72 171.505 421.707 171.372 421.68C171.252 421.64 171.132 421.587 171.012 421.52C170.905 421.44 170.812 421.34 170.732 421.22C170.652 421.087 170.605 420.92 170.592 420.72C170.565 420.48 170.579 420.227 170.632 419.96C170.699 419.68 170.885 419.467 171.192 419.32C171.312 419.253 171.459 419.213 171.632 419.2C171.819 419.187 171.979 419.187 172.112 419.2H173.872V415.28V414.76C173.872 414.573 173.892 414.393 173.932 414.22L173.942 414.194C173.947 414.182 173.951 414.17 173.956 414.158C173.971 414.116 173.983 414.076 173.992 414.04C174.019 413.987 174.045 413.927 174.072 413.86C174.152 413.727 174.232 413.627 174.312 413.56C174.392 413.48 174.505 413.413 174.652 413.36C174.719 413.333 174.785 413.32 174.852 413.32C174.932 413.307 175.005 413.3 175.072 413.3C175.512 413.3 175.845 413.5 176.072 413.9C176.125 413.98 176.159 414.093 176.172 414.24C176.199 414.387 176.219 414.54 176.232 414.7C176.245 414.847 176.252 414.98 176.252 415.1V415.3V426.78ZM179.772 428.48C179.692 428.653 179.565 428.8 179.392 428.92C179.245 429.013 179.085 429.067 178.912 429.08C178.739 429.107 178.565 429.1 178.392 429.06C178.192 429.02 178.025 428.933 177.892 428.8C177.772 428.68 177.679 428.54 177.612 428.38C177.545 428.22 177.499 428.047 177.472 427.86C177.445 427.673 177.432 427.493 177.432 427.32V415.56V415.06C177.432 414.86 177.445 414.673 177.472 414.5C177.499 414.313 177.532 414.14 177.572 413.98C177.625 413.82 177.699 413.693 177.792 413.6C177.939 413.467 178.092 413.387 178.252 413.36C178.412 413.32 178.585 413.3 178.772 413.3C178.999 413.3 179.205 413.367 179.392 413.5C179.579 413.62 179.712 413.787 179.792 414C179.912 414.28 179.979 414.567 179.992 414.86L180.032 415.76C180.045 416.12 180.052 416.473 180.052 416.82V417.98V419.38C180.052 419.9 180.045 420.507 180.032 421.2V423.54V426.58C180.032 426.927 180.019 427.26 179.992 427.58C179.979 427.9 179.905 428.2 179.772 428.48ZM169.112 428.04C168.845 428.04 168.585 428.027 168.332 428C168.092 427.973 167.839 427.953 167.572 427.94C167.372 427.927 167.165 427.887 166.952 427.82C166.739 427.767 166.559 427.667 166.412 427.52C166.265 427.373 166.152 427.247 166.072 427.14C166.005 427.033 165.952 426.887 165.912 426.7C165.832 426.273 165.799 425.833 165.812 425.38C165.825 424.927 165.832 424.48 165.832 424.04V422.4V421.94V420.76C165.832 420.28 165.825 419.753 165.812 419.18V417.54V416.14C165.812 415.727 165.819 415.447 165.832 415.3C165.845 415.033 165.905 414.76 166.012 414.48C166.119 414.187 166.345 413.967 166.692 413.82C166.839 413.767 166.992 413.727 167.152 413.7C167.312 413.673 167.472 413.68 167.632 413.72C167.792 413.76 167.939 413.833 168.072 413.94C168.219 414.033 168.325 414.167 168.392 414.34C168.472 414.527 168.525 414.727 168.552 414.94C168.592 415.14 168.612 415.353 168.612 415.58C168.612 415.727 168.605 415.94 168.592 416.22V416.86V418.6C168.592 419.32 168.585 420.073 168.572 420.86V423.12C168.572 423.84 168.585 424.413 168.612 424.84C168.612 424.933 168.619 425.027 168.632 425.12C168.645 425.213 168.685 425.293 168.752 425.36C168.832 425.427 168.925 425.467 169.032 425.48H169.372L169.771 425.508C169.957 425.521 170.11 425.532 170.232 425.54H170.692C170.812 425.54 170.912 425.547 170.992 425.56C171.085 425.573 171.212 425.587 171.372 425.6C171.599 425.627 171.832 425.66 172.072 425.7C172.325 425.727 172.552 425.807 172.752 425.94C172.859 426.007 172.932 426.1 172.972 426.22C173.025 426.327 173.059 426.44 173.072 426.56C173.085 426.627 173.092 426.693 173.092 426.76V426.94C173.079 427.087 173.045 427.193 172.992 427.26C172.952 427.34 172.879 427.433 172.772 427.54C172.585 427.74 172.339 427.873 172.032 427.94L171.472 428.02C171.299 428.047 171.119 428.06 170.932 428.06C170.865 428.06 170.745 428.053 170.572 428.04H170.012H169.452H169.112ZM188.523 416C188.99 415.96 189.443 415.94 189.883 415.94C190.323 415.967 190.757 415.987 191.183 416L192.483 416.04C192.51 416.307 192.523 416.567 192.523 416.82V417.58C192.23 417.567 191.91 417.56 191.563 417.56H190.663C189.837 417.56 189.057 417.58 188.323 417.62C188.203 417.633 188.097 417.653 188.003 417.68C187.923 417.693 187.83 417.707 187.723 417.72L187.403 417.8C187.31 417.827 187.217 417.913 187.123 418.06C187.03 418.207 186.983 418.407 186.983 418.66C186.983 418.913 187.023 419.12 187.103 419.28C187.157 419.373 187.223 419.447 187.303 419.5C187.383 419.54 187.457 419.573 187.523 419.6C187.603 419.613 187.67 419.62 187.723 419.62H187.823H192.523C192.523 419.847 192.517 420.053 192.503 420.24C192.49 420.413 192.49 420.587 192.503 420.76C192.53 420.92 192.57 421.087 192.623 421.26C192.677 421.42 192.763 421.6 192.883 421.8C193.003 421.987 193.157 422.12 193.343 422.2C193.53 422.267 193.723 422.287 193.923 422.26C194.137 422.233 194.337 422.16 194.523 422.04C194.71 421.92 194.857 421.767 194.963 421.58C195.15 421.26 195.237 420.94 195.223 420.62C195.21 420.3 195.217 419.953 195.243 419.58L195.223 415.4C195.223 415.173 195.203 414.947 195.163 414.72C195.137 414.493 195.063 414.28 194.943 414.08C194.877 413.96 194.79 413.86 194.683 413.78C194.626 413.737 194.567 413.696 194.506 413.657C194.454 413.623 194.399 413.591 194.343 413.56C194.277 413.533 194.203 413.507 194.123 413.48C194.07 413.453 194.017 413.44 193.963 413.44H193.783C193.663 413.427 193.543 413.42 193.423 413.42H193.063H192.723C192.649 413.412 192.575 413.406 192.501 413.403C192.481 413.402 192.462 413.401 192.443 413.401C192.416 413.4 192.39 413.4 192.363 413.4H191.803C191.723 413.387 191.643 413.387 191.563 413.4H191.323H190.123H189.483C189.387 413.395 189.294 413.39 189.207 413.387C189.076 413.382 188.955 413.38 188.843 413.38C188.55 413.393 188.303 413.407 188.103 413.42C187.917 413.42 187.683 413.46 187.403 413.54C187.177 413.607 186.957 413.713 186.743 413.86C186.53 414.007 186.417 414.233 186.403 414.54C186.403 414.873 186.457 415.187 186.563 415.48C186.683 415.76 186.857 415.913 187.083 415.94C187.577 416.007 188.057 416.027 188.523 416ZM198.743 425.86C198.263 425.513 197.777 425.167 197.283 424.82L195.503 423.46C195.357 423.353 195.217 423.233 195.083 423.1C194.95 422.967 194.79 422.873 194.603 422.82C194.483 422.793 194.363 422.8 194.243 422.84C194.123 422.88 194.003 422.94 193.883 423.02C193.763 423.087 193.65 423.167 193.543 423.26C193.437 423.34 193.343 423.413 193.263 423.48C193.037 423.667 192.81 423.827 192.583 423.96C192.357 424.08 192.13 424.227 191.903 424.4C191.383 424.773 190.83 425.173 190.243 425.6C189.657 426.013 189.11 426.413 188.603 426.8C188.443 426.933 188.243 427.087 188.003 427.26C187.777 427.433 187.63 427.633 187.563 427.86C187.497 428.087 187.51 428.307 187.603 428.52C187.697 428.733 187.85 428.893 188.063 429C188.223 429.08 188.397 429.12 188.583 429.12C188.783 429.133 188.977 429.113 189.163 429.06C189.35 429.02 189.537 428.96 189.723 428.88C189.786 428.853 189.847 428.826 189.906 428.799C189.958 428.775 190.009 428.75 190.058 428.726C190.116 428.697 190.171 428.669 190.223 428.64C190.61 428.44 191.003 428.187 191.403 427.88C191.817 427.587 192.197 427.293 192.543 427C192.663 426.893 192.803 426.773 192.963 426.64C193.137 426.507 193.297 426.387 193.443 426.28C193.508 426.228 193.569 426.181 193.628 426.139C193.69 426.094 193.748 426.054 193.803 426.02C193.91 425.953 194.057 425.913 194.243 425.9C194.457 425.873 194.643 425.927 194.803 426.06C194.963 426.193 195.117 426.313 195.263 426.42C195.477 426.567 195.69 426.727 195.903 426.9C196.117 427.06 196.337 427.213 196.563 427.36C197.017 427.667 197.47 427.96 197.923 428.24C198.377 428.52 198.85 428.773 199.343 429C199.583 429.107 199.81 429.173 200.023 429.2C200.237 429.227 200.457 429.147 200.683 428.96C200.83 428.84 200.943 428.68 201.023 428.48C201.117 428.28 201.143 428.087 201.103 427.9C201.063 427.673 200.937 427.487 200.723 427.34C200.51 427.207 200.323 427.073 200.163 426.94C199.697 426.567 199.223 426.207 198.743 425.86ZM196.783 418.9C197.09 418.913 197.437 418.933 197.823 418.96H198.303V420.98C198.317 421.127 198.337 421.273 198.363 421.42C198.39 421.567 198.443 421.713 198.523 421.86C198.59 422.02 198.703 422.153 198.863 422.26C199.077 422.407 199.297 422.48 199.523 422.48C199.71 422.48 199.897 422.427 200.083 422.32C200.217 422.24 200.323 422.14 200.403 422.02C200.483 421.9 200.543 421.787 200.583 421.68C200.623 421.56 200.65 421.46 200.663 421.38C200.677 421.3 200.683 421.253 200.683 421.24H200.703V414.72C200.703 414.667 200.69 414.527 200.663 414.3C200.65 414.06 200.603 413.86 200.523 413.7C200.403 413.433 200.13 413.267 199.703 413.2C199.477 413.173 199.263 413.187 199.063 413.24C198.877 413.293 198.73 413.387 198.623 413.52C198.53 413.627 198.47 413.727 198.443 413.82C198.434 413.854 198.424 413.89 198.414 413.926C198.397 413.988 198.38 414.053 198.363 414.12C198.323 414.267 198.297 414.413 198.283 414.56C198.283 414.707 198.29 414.853 198.303 415V416.72C198.25 416.72 198.15 416.727 198.003 416.74C197.857 416.74 197.697 416.747 197.523 416.76C197.363 416.773 197.21 416.787 197.063 416.8C196.917 416.8 196.817 416.807 196.763 416.82C196.497 416.887 196.31 416.973 196.203 417.08C196.097 417.173 196.023 417.293 195.983 417.44C195.957 417.587 195.943 417.76 195.943 417.96C195.943 418.16 195.983 418.327 196.063 418.46C196.237 418.727 196.477 418.873 196.783 418.9Z" fill="white"/>
</svg>
